<svg width="730" height="600" viewBox="0 0 730 600" fill="none" xmlns="http://www.w3.org/2000/svg">
<path d="M245.225 172.186C244.258 180.457 241.196 186.849 236.04 191.36C230.92 195.836 224.098 198.074 215.576 198.074C206.338 198.074 198.926 194.762 193.34 188.138C187.79 181.513 185.015 172.651 185.015 161.551V154.031C185.015 146.762 186.304 140.371 188.882 134.856C191.496 129.342 195.184 125.117 199.946 122.181C204.709 119.209 210.223 117.723 216.489 117.723C224.797 117.723 231.457 120.05 236.47 124.705C241.483 129.324 244.401 135.734 245.225 143.934H234.858C233.963 137.703 232.012 133.191 229.004 130.398C226.032 127.605 221.86 126.209 216.489 126.209C209.901 126.209 204.727 128.644 200.967 133.514C197.243 138.383 195.381 145.312 195.381 154.3V161.873C195.381 170.359 197.153 177.109 200.698 182.122C204.243 187.135 209.202 189.642 215.576 189.642C221.305 189.642 225.692 188.353 228.735 185.774C231.815 183.16 233.856 178.631 234.858 172.186H245.225ZM255.161 167.405C255.161 161.712 256.271 156.591 258.491 152.044C260.747 147.496 263.862 143.987 267.837 141.517C271.847 139.046 276.413 137.811 281.533 137.811C289.447 137.811 295.838 140.55 300.708 146.028C305.614 151.507 308.066 158.794 308.066 167.889V168.587C308.066 174.244 306.974 179.329 304.79 183.841C302.642 188.317 299.544 191.808 295.498 194.314C291.488 196.821 286.868 198.074 281.641 198.074C273.763 198.074 267.371 195.335 262.466 189.856C257.596 184.378 255.161 177.127 255.161 168.104V167.405ZM265.151 168.587C265.151 175.032 266.637 180.206 269.609 184.109C272.617 188.012 276.628 189.964 281.641 189.964C286.689 189.964 290.7 187.994 293.672 184.056C296.644 180.081 298.13 174.531 298.13 167.405C298.13 161.032 296.608 155.875 293.564 151.937C290.557 147.962 286.546 145.975 281.533 145.975C276.628 145.975 272.671 147.926 269.663 151.829C266.655 155.732 265.151 161.318 265.151 168.587ZM354.365 181.585C354.365 178.899 353.345 176.823 351.304 175.354C349.299 173.851 345.771 172.562 340.723 171.487C335.71 170.413 331.717 169.124 328.745 167.62C325.809 166.116 323.625 164.326 322.192 162.249C320.796 160.172 320.098 157.701 320.098 154.837C320.098 150.075 322.103 146.046 326.113 142.752C330.16 139.458 335.316 137.811 341.582 137.811C348.171 137.811 353.506 139.511 357.588 142.913C361.706 146.315 363.765 150.665 363.765 155.965H353.774C353.774 153.243 352.611 150.898 350.283 148.929C347.992 146.959 345.091 145.975 341.582 145.975C337.965 145.975 335.137 146.762 333.096 148.338C331.055 149.913 330.034 151.972 330.034 154.515C330.034 156.914 330.983 158.722 332.881 159.939C334.779 161.157 338.198 162.321 343.14 163.431C348.117 164.541 352.145 165.866 355.225 167.405C358.304 168.945 360.578 170.807 362.046 172.991C363.55 175.14 364.302 177.771 364.302 180.887C364.302 186.079 362.225 190.25 358.071 193.401C353.918 196.517 348.529 198.074 341.904 198.074C337.249 198.074 333.132 197.251 329.551 195.604C325.97 193.956 323.159 191.665 321.118 188.729C319.113 185.757 318.11 182.552 318.11 179.114H328.047C328.226 182.444 329.551 185.094 332.021 187.063C334.528 188.997 337.822 189.964 341.904 189.964C345.664 189.964 348.672 189.212 350.928 187.708C353.219 186.168 354.365 184.127 354.365 181.585ZM390.728 124.812V138.885H401.577V146.565H390.728V182.605C390.728 184.933 391.211 186.688 392.178 187.869C393.145 189.015 394.792 189.588 397.119 189.588C398.265 189.588 399.84 189.373 401.846 188.943V197C399.232 197.716 396.689 198.074 394.219 198.074C389.779 198.074 386.431 196.731 384.175 194.046C381.919 191.36 380.791 187.547 380.791 182.605V146.565H370.21V138.885H380.791V124.812H390.728ZM409.526 167.405C409.526 161.712 410.636 156.591 412.856 152.044C415.112 147.496 418.228 143.987 422.202 141.517C426.213 139.046 430.778 137.811 435.898 137.811C443.812 137.811 450.203 140.55 455.073 146.028C459.979 151.507 462.432 158.794 462.432 167.889V168.587C462.432 174.244 461.34 179.329 459.155 183.841C457.007 188.317 453.91 191.808 449.863 194.314C445.853 196.821 441.234 198.074 436.006 198.074C428.128 198.074 421.737 195.335 416.831 189.856C411.961 184.378 409.526 177.127 409.526 168.104V167.405ZM419.517 168.587C419.517 175.032 421.003 180.206 423.975 184.109C426.982 188.012 430.993 189.964 436.006 189.964C441.055 189.964 445.065 187.994 448.037 184.056C451.009 180.081 452.495 174.531 452.495 167.405C452.495 161.032 450.973 155.875 447.93 151.937C444.922 147.962 440.911 145.975 435.898 145.975C430.993 145.975 427.036 147.926 424.028 151.829C421.021 155.732 419.517 161.318 419.517 168.587ZM508.73 181.585C508.73 178.899 507.71 176.823 505.669 175.354C503.664 173.851 500.137 172.562 495.088 171.487C490.075 170.413 486.082 169.124 483.11 167.62C480.174 166.116 477.99 164.326 476.558 162.249C475.161 160.172 474.463 157.701 474.463 154.837C474.463 150.075 476.468 146.046 480.479 142.752C484.525 139.458 489.681 137.811 495.947 137.811C502.536 137.811 507.871 139.511 511.953 142.913C516.071 146.315 518.13 150.665 518.13 155.965H508.14C508.14 153.243 506.976 150.898 504.648 148.929C502.357 146.959 499.456 145.975 495.947 145.975C492.331 145.975 489.502 146.762 487.461 148.338C485.42 149.913 484.399 151.972 484.399 154.515C484.399 156.914 485.348 158.722 487.246 159.939C489.144 161.157 492.563 162.321 497.505 163.431C502.482 164.541 506.51 165.866 509.59 167.405C512.669 168.945 514.943 170.807 516.411 172.991C517.915 175.14 518.667 177.771 518.667 180.887C518.667 186.079 516.59 190.25 512.437 193.401C508.283 196.517 502.894 198.074 496.27 198.074C491.615 198.074 487.497 197.251 483.916 195.604C480.335 193.956 477.524 191.665 475.483 188.729C473.478 185.757 472.476 182.552 472.476 179.114H482.412C482.591 182.444 483.916 185.094 486.387 187.063C488.893 188.997 492.188 189.964 496.27 189.964C500.029 189.964 503.037 189.212 505.293 187.708C507.585 186.168 508.73 184.127 508.73 181.585ZM280.19 327.074C272.313 327.074 265.903 324.496 260.962 319.34C256.021 314.148 253.55 307.219 253.55 298.554V296.728C253.55 290.963 254.642 285.824 256.826 281.312C259.046 276.765 262.126 273.22 266.064 270.678C270.039 268.1 274.336 266.811 278.955 266.811C286.51 266.811 292.383 269.299 296.572 274.276C300.762 279.254 302.856 286.379 302.856 295.653V299.789H263.486C263.63 305.518 265.295 310.155 268.481 313.7C271.704 317.209 275.786 318.964 280.728 318.964C284.237 318.964 287.209 318.248 289.644 316.815C292.078 315.383 294.209 313.485 296.035 311.122L302.104 315.849C297.235 323.332 289.93 327.074 280.19 327.074ZM278.955 274.975C274.945 274.975 271.579 276.443 268.857 279.379C266.136 282.279 264.453 286.361 263.809 291.625H292.92V290.873C292.633 285.824 291.273 281.921 288.838 279.164C286.403 276.371 283.109 274.975 278.955 274.975ZM323.804 267.885L324.126 275.189C328.566 269.604 334.367 266.811 341.528 266.811C353.81 266.811 360.005 273.739 360.112 287.597V326H350.176V287.543C350.14 283.354 349.173 280.256 347.275 278.251C345.413 276.246 342.495 275.243 338.521 275.243C335.298 275.243 332.469 276.103 330.034 277.821C327.599 279.54 325.701 281.796 324.341 284.589V326H314.404V267.885H323.804ZM413.179 326H403.242V243.5H413.179V326ZM465.01 326C464.437 324.854 463.971 322.813 463.613 319.877C458.994 324.675 453.48 327.074 447.07 327.074C441.341 327.074 436.632 325.463 432.944 322.24C429.292 318.982 427.466 314.864 427.466 309.887C427.466 303.835 429.757 299.145 434.341 295.814C438.96 292.449 445.441 290.766 453.784 290.766H463.452V286.2C463.452 282.727 462.414 279.97 460.337 277.929C458.26 275.852 455.199 274.813 451.152 274.813C447.607 274.813 444.635 275.709 442.236 277.499C439.837 279.289 438.638 281.456 438.638 283.998H428.647C428.647 281.098 429.668 278.305 431.709 275.619C433.786 272.898 436.579 270.749 440.088 269.174C443.633 267.598 447.518 266.811 451.743 266.811C458.439 266.811 463.685 268.493 467.48 271.859C471.276 275.189 473.245 279.791 473.389 285.663V312.411C473.389 317.746 474.069 321.99 475.43 325.141V326H465.01ZM448.521 318.427C451.636 318.427 454.59 317.621 457.383 316.01C460.176 314.398 462.199 312.304 463.452 309.726V297.802H455.664C443.49 297.802 437.402 301.365 437.402 308.49C437.402 311.605 438.441 314.04 440.518 315.795C442.594 317.549 445.262 318.427 448.521 318.427ZM106.06 430.186C105.093 438.457 102.031 444.849 96.875 449.36C91.7546 453.836 84.9333 456.074 76.4111 456.074C67.1729 456.074 59.7607 452.762 54.1748 446.138C48.6247 439.513 45.8496 430.651 45.8496 419.551V412.031C45.8496 404.762 47.1387 398.371 49.7168 392.856C52.3307 387.342 56.0189 383.117 60.7812 380.181C65.5436 377.209 71.0579 375.723 77.3242 375.723C85.6315 375.723 92.2917 378.05 97.3047 382.705C102.318 387.324 105.236 393.734 106.06 401.934H95.6934C94.7982 395.703 92.8467 391.191 89.8389 388.398C86.8669 385.605 82.6953 384.209 77.3242 384.209C70.7357 384.209 65.5615 386.644 61.8018 391.514C58.0778 396.383 56.2158 403.312 56.2158 412.3V419.873C56.2158 428.359 57.9883 435.109 61.5332 440.122C65.0781 445.135 70.0374 447.642 76.4111 447.642C82.1403 447.642 86.5267 446.353 89.5703 443.774C92.6497 441.16 94.6908 436.631 95.6934 430.186H106.06ZM115.996 425.405C115.996 419.712 117.106 414.591 119.326 410.044C121.582 405.496 124.697 401.987 128.672 399.517C132.682 397.046 137.248 395.811 142.368 395.811C150.282 395.811 156.673 398.55 161.543 404.028C166.449 409.507 168.901 416.794 168.901 425.889V426.587C168.901 432.244 167.809 437.329 165.625 441.841C163.477 446.317 160.379 449.808 156.333 452.314C152.323 454.821 147.703 456.074 142.476 456.074C134.598 456.074 128.206 453.335 123.301 447.856C118.431 442.378 115.996 435.127 115.996 426.104V425.405ZM125.986 426.587C125.986 433.032 127.472 438.206 130.444 442.109C133.452 446.012 137.463 447.964 142.476 447.964C147.524 447.964 151.535 445.994 154.507 442.056C157.479 438.081 158.965 432.531 158.965 425.405C158.965 419.032 157.443 413.875 154.399 409.937C151.392 405.962 147.381 403.975 142.368 403.975C137.463 403.975 133.506 405.926 130.498 409.829C127.49 413.732 125.986 419.318 125.986 426.587ZM190.762 396.885L191.084 404.189C195.524 398.604 201.325 395.811 208.486 395.811C220.768 395.811 226.963 402.739 227.07 416.597V455H217.134V416.543C217.098 412.354 216.131 409.256 214.233 407.251C212.371 405.246 209.453 404.243 205.479 404.243C202.256 404.243 199.427 405.103 196.992 406.821C194.557 408.54 192.66 410.796 191.299 413.589V455H181.362V396.885H190.762ZM275.894 439.585C275.894 436.899 274.873 434.823 272.832 433.354C270.827 431.851 267.3 430.562 262.251 429.487C257.238 428.413 253.245 427.124 250.273 425.62C247.337 424.116 245.153 422.326 243.721 420.249C242.324 418.172 241.626 415.701 241.626 412.837C241.626 408.075 243.631 404.046 247.642 400.752C251.688 397.458 256.844 395.811 263.11 395.811C269.699 395.811 275.034 397.511 279.116 400.913C283.234 404.315 285.293 408.665 285.293 413.965H275.303C275.303 411.243 274.139 408.898 271.812 406.929C269.52 404.959 266.619 403.975 263.11 403.975C259.494 403.975 256.665 404.762 254.624 406.338C252.583 407.913 251.562 409.972 251.562 412.515C251.562 414.914 252.511 416.722 254.409 417.939C256.307 419.157 259.727 420.321 264.668 421.431C269.645 422.541 273.674 423.866 276.753 425.405C279.832 426.945 282.106 428.807 283.574 430.991C285.078 433.14 285.83 435.771 285.83 438.887C285.83 444.079 283.753 448.25 279.6 451.401C275.446 454.517 270.057 456.074 263.433 456.074C258.778 456.074 254.66 455.251 251.079 453.604C247.498 451.956 244.688 449.665 242.646 446.729C240.641 443.757 239.639 440.552 239.639 437.114H249.575C249.754 440.444 251.079 443.094 253.55 445.063C256.056 446.997 259.351 447.964 263.433 447.964C267.192 447.964 270.2 447.212 272.456 445.708C274.748 444.168 275.894 442.127 275.894 439.585ZM312.256 382.812V396.885H323.105V404.565H312.256V440.605C312.256 442.933 312.739 444.688 313.706 445.869C314.673 447.015 316.32 447.588 318.647 447.588C319.793 447.588 321.369 447.373 323.374 446.943V455C320.76 455.716 318.218 456.074 315.747 456.074C311.307 456.074 307.959 454.731 305.703 452.046C303.447 449.36 302.319 445.547 302.319 440.605V404.565H291.738V396.885H302.319V382.812H312.256ZM362.852 405.801C361.348 405.55 359.718 405.425 357.964 405.425C351.447 405.425 347.025 408.2 344.697 413.75V455H334.761V396.885H344.429L344.59 403.599C347.848 398.407 352.467 395.811 358.447 395.811C360.381 395.811 361.849 396.061 362.852 396.562V405.801ZM407.915 449.253C404.048 453.8 398.372 456.074 390.889 456.074C384.694 456.074 379.967 454.284 376.709 450.703C373.486 447.087 371.857 441.751 371.821 434.697V396.885H381.758V434.429C381.758 443.237 385.339 447.642 392.5 447.642C400.091 447.642 405.14 444.813 407.646 439.155V396.885H417.583V455H408.13L407.915 449.253ZM456.04 447.964C459.585 447.964 462.682 446.89 465.332 444.741C467.982 442.593 469.45 439.907 469.736 436.685H479.136C478.957 440.015 477.811 443.184 475.698 446.191C473.586 449.199 470.757 451.598 467.212 453.389C463.703 455.179 459.979 456.074 456.04 456.074C448.127 456.074 441.825 453.442 437.134 448.179C432.479 442.879 430.151 435.646 430.151 426.479V424.814C430.151 419.157 431.19 414.126 433.267 409.722C435.343 405.317 438.315 401.898 442.183 399.463C446.086 397.028 450.687 395.811 455.986 395.811C462.503 395.811 467.91 397.762 472.207 401.665C476.54 405.568 478.849 410.635 479.136 416.865H469.736C469.45 413.105 468.018 410.026 465.439 407.627C462.897 405.192 459.746 403.975 455.986 403.975C450.938 403.975 447.017 405.801 444.224 409.453C441.466 413.07 440.088 418.315 440.088 425.19V427.07C440.088 433.766 441.466 438.923 444.224 442.539C446.981 446.156 450.92 447.964 456.04 447.964ZM513.618 447.964C517.163 447.964 520.26 446.89 522.91 444.741C525.56 442.593 527.028 439.907 527.314 436.685H536.714C536.535 440.015 535.389 443.184 533.276 446.191C531.164 449.199 528.335 451.598 524.79 453.389C521.281 455.179 517.557 456.074 513.618 456.074C505.705 456.074 499.403 453.442 494.712 448.179C490.057 442.879 487.729 435.646 487.729 426.479V424.814C487.729 419.157 488.768 414.126 490.845 409.722C492.922 405.317 495.894 401.898 499.761 399.463C503.664 397.028 508.265 395.811 513.564 395.811C520.081 395.811 525.488 397.762 529.785 401.665C534.118 405.568 536.427 410.635 536.714 416.865H527.314C527.028 413.105 525.596 410.026 523.018 407.627C520.475 405.192 517.324 403.975 513.564 403.975C508.516 403.975 504.595 405.801 501.802 409.453C499.045 413.07 497.666 418.315 497.666 425.19V427.07C497.666 433.766 499.045 438.923 501.802 442.539C504.559 446.156 508.498 447.964 513.618 447.964ZM558.682 455H548.745V396.885H558.682V455ZM547.939 381.47C547.939 379.858 548.423 378.498 549.39 377.388C550.392 376.278 551.86 375.723 553.794 375.723C555.728 375.723 557.196 376.278 558.198 377.388C559.201 378.498 559.702 379.858 559.702 381.47C559.702 383.081 559.201 384.424 558.198 385.498C557.196 386.572 555.728 387.109 553.794 387.109C551.86 387.109 550.392 386.572 549.39 385.498C548.423 384.424 547.939 383.081 547.939 381.47ZM572.002 425.405C572.002 419.712 573.112 414.591 575.332 410.044C577.588 405.496 580.703 401.987 584.678 399.517C588.688 397.046 593.254 395.811 598.374 395.811C606.287 395.811 612.679 398.55 617.549 404.028C622.454 409.507 624.907 416.794 624.907 425.889V426.587C624.907 432.244 623.815 437.329 621.631 441.841C619.482 446.317 616.385 449.808 612.339 452.314C608.328 454.821 603.709 456.074 598.481 456.074C590.604 456.074 584.212 453.335 579.307 447.856C574.437 442.378 572.002 435.127 572.002 426.104V425.405ZM581.992 426.587C581.992 433.032 583.478 438.206 586.45 442.109C589.458 446.012 593.468 447.964 598.481 447.964C603.53 447.964 607.541 445.994 610.513 442.056C613.485 438.081 614.971 432.531 614.971 425.405C614.971 419.032 613.449 413.875 610.405 409.937C607.397 405.962 603.387 403.975 598.374 403.975C593.468 403.975 589.512 405.926 586.504 409.829C583.496 413.732 581.992 419.318 581.992 426.587ZM602.886 372.5H614.917L600.522 388.291H592.52L602.886 372.5ZM646.768 396.885L647.09 404.189C651.53 398.604 657.331 395.811 664.492 395.811C676.774 395.811 682.969 402.739 683.076 416.597V455H673.14V416.543C673.104 412.354 672.137 409.256 670.239 407.251C668.377 405.246 665.459 404.243 661.484 404.243C658.262 404.243 655.433 405.103 652.998 406.821C650.563 408.54 648.665 410.796 647.305 413.589V455H637.368V396.885H646.768Z" fill="#C9A967"/>
</svg>
