<svg width="639" height="340" viewBox="0 0 639 340" fill="none" xmlns="http://www.w3.org/2000/svg">
<path d="M200.225 55.1855C199.258 63.457 196.196 69.8486 191.04 74.3604C185.92 78.8363 179.098 81.0742 170.576 81.0742C161.338 81.0742 153.926 77.762 148.34 71.1377C142.79 64.5133 140.015 55.651 140.015 44.5508V37.0312C140.015 29.7624 141.304 23.3708 143.882 17.8564C146.496 12.3421 150.184 8.11686 154.946 5.18066C159.709 2.20866 165.223 0.722656 171.489 0.722656C179.797 0.722656 186.457 3.05013 191.47 7.70508C196.483 12.3242 199.401 18.7337 200.225 26.9336H189.858C188.963 20.7031 187.012 16.1914 184.004 13.3984C181.032 10.6055 176.86 9.20898 171.489 9.20898C164.901 9.20898 159.727 11.6439 155.967 16.5137C152.243 21.3835 150.381 28.3122 150.381 37.2998V44.873C150.381 53.3594 152.153 60.109 155.698 65.1221C159.243 70.1351 164.202 72.6416 170.576 72.6416C176.305 72.6416 180.692 71.3525 183.735 68.7744C186.815 66.1605 188.856 61.6309 189.858 55.1855H200.225ZM210.161 50.4053C210.161 44.7119 211.271 39.5915 213.491 35.0439C215.747 30.4964 218.862 26.9873 222.837 24.5166C226.847 22.0459 231.413 20.8105 236.533 20.8105C244.447 20.8105 250.838 23.5498 255.708 29.0283C260.614 34.5068 263.066 41.7936 263.066 50.8887V51.5869C263.066 57.2445 261.974 62.3291 259.79 66.8408C257.642 71.3167 254.544 74.8079 250.498 77.3145C246.488 79.821 241.868 81.0742 236.641 81.0742C228.763 81.0742 222.371 78.335 217.466 72.8564C212.596 67.3779 210.161 60.127 210.161 51.1035V50.4053ZM220.151 51.5869C220.151 58.0322 221.637 63.2064 224.609 67.1094C227.617 71.0124 231.628 72.9639 236.641 72.9639C241.689 72.9639 245.7 70.9945 248.672 67.0557C251.644 63.0811 253.13 57.5309 253.13 50.4053C253.13 44.0316 251.608 38.8753 248.564 34.9365C245.557 30.9619 241.546 28.9746 236.533 28.9746C231.628 28.9746 227.671 30.9261 224.663 34.8291C221.655 38.7321 220.151 44.318 220.151 51.5869ZM309.365 64.585C309.365 61.8994 308.345 59.8226 306.304 58.3545C304.299 56.8506 300.771 55.5615 295.723 54.4873C290.71 53.4131 286.717 52.124 283.745 50.6201C280.809 49.1162 278.625 47.3258 277.192 45.249C275.796 43.1722 275.098 40.7015 275.098 37.8369C275.098 33.0745 277.103 29.0462 281.113 25.752C285.16 22.4577 290.316 20.8105 296.582 20.8105C303.171 20.8105 308.506 22.5114 312.588 25.9131C316.706 29.3148 318.765 33.6654 318.765 38.9648H308.774C308.774 36.2435 307.611 33.8981 305.283 31.9287C302.992 29.9593 300.091 28.9746 296.582 28.9746C292.965 28.9746 290.137 29.7624 288.096 31.3379C286.055 32.9134 285.034 34.9723 285.034 37.5146C285.034 39.9137 285.983 41.722 287.881 42.9395C289.779 44.1569 293.198 45.3206 298.14 46.4307C303.117 47.5407 307.145 48.8656 310.225 50.4053C313.304 51.945 315.578 53.807 317.046 55.9912C318.55 58.1396 319.302 60.7715 319.302 63.8867C319.302 69.0788 317.225 73.2503 313.071 76.4014C308.918 79.5166 303.529 81.0742 296.904 81.0742C292.249 81.0742 288.132 80.2507 284.551 78.6035C280.97 76.9564 278.159 74.6647 276.118 71.7285C274.113 68.7565 273.11 65.5518 273.11 62.1143H283.047C283.226 65.4443 284.551 68.0941 287.021 70.0635C289.528 71.9971 292.822 72.9639 296.904 72.9639C300.664 72.9639 303.672 72.2119 305.928 70.708C308.219 69.1683 309.365 67.1273 309.365 64.585ZM345.728 7.8125V21.8848H356.577V29.5654H345.728V65.6055C345.728 67.9329 346.211 69.6875 347.178 70.8691C348.145 72.015 349.792 72.5879 352.119 72.5879C353.265 72.5879 354.84 72.373 356.846 71.9434V80C354.232 80.7161 351.689 81.0742 349.219 81.0742C344.779 81.0742 341.431 79.7314 339.175 77.0459C336.919 74.3604 335.791 70.5469 335.791 65.6055V29.5654H325.21V21.8848H335.791V7.8125H345.728ZM364.526 50.4053C364.526 44.7119 365.636 39.5915 367.856 35.0439C370.112 30.4964 373.228 26.9873 377.202 24.5166C381.213 22.0459 385.778 20.8105 390.898 20.8105C398.812 20.8105 405.203 23.5498 410.073 29.0283C414.979 34.5068 417.432 41.7936 417.432 50.8887V51.5869C417.432 57.2445 416.34 62.3291 414.155 66.8408C412.007 71.3167 408.91 74.8079 404.863 77.3145C400.853 79.821 396.234 81.0742 391.006 81.0742C383.128 81.0742 376.737 78.335 371.831 72.8564C366.961 67.3779 364.526 60.127 364.526 51.1035V50.4053ZM374.517 51.5869C374.517 58.0322 376.003 63.2064 378.975 67.1094C381.982 71.0124 385.993 72.9639 391.006 72.9639C396.055 72.9639 400.065 70.9945 403.037 67.0557C406.009 63.0811 407.495 57.5309 407.495 50.4053C407.495 44.0316 405.973 38.8753 402.93 34.9365C399.922 30.9619 395.911 28.9746 390.898 28.9746C385.993 28.9746 382.036 30.9261 379.028 34.8291C376.021 38.7321 374.517 44.318 374.517 51.5869ZM463.73 64.585C463.73 61.8994 462.71 59.8226 460.669 58.3545C458.664 56.8506 455.137 55.5615 450.088 54.4873C445.075 53.4131 441.082 52.124 438.11 50.6201C435.174 49.1162 432.99 47.3258 431.558 45.249C430.161 43.1722 429.463 40.7015 429.463 37.8369C429.463 33.0745 431.468 29.0462 435.479 25.752C439.525 22.4577 444.681 20.8105 450.947 20.8105C457.536 20.8105 462.871 22.5114 466.953 25.9131C471.071 29.3148 473.13 33.6654 473.13 38.9648H463.14C463.14 36.2435 461.976 33.8981 459.648 31.9287C457.357 29.9593 454.456 28.9746 450.947 28.9746C447.331 28.9746 444.502 29.7624 442.461 31.3379C440.42 32.9134 439.399 34.9723 439.399 37.5146C439.399 39.9137 440.348 41.722 442.246 42.9395C444.144 44.1569 447.563 45.3206 452.505 46.4307C457.482 47.5407 461.51 48.8656 464.59 50.4053C467.669 51.945 469.943 53.807 471.411 55.9912C472.915 58.1396 473.667 60.7715 473.667 63.8867C473.667 69.0788 471.59 73.2503 467.437 76.4014C463.283 79.5166 457.894 81.0742 451.27 81.0742C446.615 81.0742 442.497 80.2507 438.916 78.6035C435.335 76.9564 432.524 74.6647 430.483 71.7285C428.478 68.7565 427.476 65.5518 427.476 62.1143H437.412C437.591 65.4443 438.916 68.0941 441.387 70.0635C443.893 71.9971 447.188 72.9639 451.27 72.9639C455.029 72.9639 458.037 72.2119 460.293 70.708C462.585 69.1683 463.73 67.1273 463.73 64.585ZM235.19 210.074C227.313 210.074 220.903 207.496 215.962 202.34C211.021 197.148 208.55 190.219 208.55 181.554V179.728C208.55 173.963 209.642 168.824 211.826 164.312C214.046 159.765 217.126 156.22 221.064 153.678C225.039 151.1 229.336 149.811 233.955 149.811C241.51 149.811 247.383 152.299 251.572 157.276C255.762 162.254 257.856 169.379 257.856 178.653V182.789H218.486C218.63 188.518 220.295 193.155 223.481 196.7C226.704 200.209 230.786 201.964 235.728 201.964C239.237 201.964 242.209 201.248 244.644 199.815C247.078 198.383 249.209 196.485 251.035 194.122L257.104 198.849C252.235 206.332 244.93 210.074 235.19 210.074ZM233.955 157.975C229.945 157.975 226.579 159.443 223.857 162.379C221.136 165.279 219.453 169.361 218.809 174.625H247.92V173.873C247.633 168.824 246.273 164.921 243.838 162.164C241.403 159.371 238.109 157.975 233.955 157.975ZM278.804 150.885L279.126 158.189C283.566 152.604 289.367 149.811 296.528 149.811C308.81 149.811 315.005 156.739 315.112 170.597V209H305.176V170.543C305.14 166.354 304.173 163.256 302.275 161.251C300.413 159.246 297.495 158.243 293.521 158.243C290.298 158.243 287.469 159.103 285.034 160.821C282.599 162.54 280.701 164.796 279.341 167.589V209H269.404V150.885H278.804ZM368.179 209H358.242V126.5H368.179V209ZM420.01 209C419.437 207.854 418.971 205.813 418.613 202.877C413.994 207.675 408.48 210.074 402.07 210.074C396.341 210.074 391.632 208.463 387.944 205.24C384.292 201.982 382.466 197.864 382.466 192.887C382.466 186.835 384.757 182.145 389.341 178.814C393.96 175.449 400.441 173.766 408.784 173.766H418.452V169.2C418.452 165.727 417.414 162.97 415.337 160.929C413.26 158.852 410.199 157.813 406.152 157.813C402.607 157.813 399.635 158.709 397.236 160.499C394.837 162.289 393.638 164.456 393.638 166.998H383.647C383.647 164.098 384.668 161.305 386.709 158.619C388.786 155.898 391.579 153.749 395.088 152.174C398.633 150.598 402.518 149.811 406.743 149.811C413.439 149.811 418.685 151.493 422.48 154.859C426.276 158.189 428.245 162.791 428.389 168.663V195.411C428.389 200.746 429.069 204.99 430.43 208.141V209H420.01ZM403.521 201.427C406.636 201.427 409.59 200.621 412.383 199.01C415.176 197.398 417.199 195.304 418.452 192.726V180.802H410.664C398.49 180.802 392.402 184.365 392.402 191.49C392.402 194.605 393.441 197.04 395.518 198.795C397.594 200.549 400.262 201.427 403.521 201.427ZM61.0596 313.186C60.0928 321.457 57.0312 327.849 51.875 332.36C46.7546 336.836 39.9333 339.074 31.4111 339.074C22.1729 339.074 14.7607 335.762 9.1748 329.138C3.62467 322.513 0.849609 313.651 0.849609 302.551V295.031C0.849609 287.762 2.13867 281.371 4.7168 275.856C7.33073 270.342 11.0189 266.117 15.7812 263.181C20.5436 260.209 26.0579 258.723 32.3242 258.723C40.6315 258.723 47.2917 261.05 52.3047 265.705C57.3177 270.324 60.236 276.734 61.0596 284.934H50.6934C49.7982 278.703 47.8467 274.191 44.8389 271.398C41.8669 268.605 37.6953 267.209 32.3242 267.209C25.7357 267.209 20.5615 269.644 16.8018 274.514C13.0778 279.383 11.2158 286.312 11.2158 295.3V302.873C11.2158 311.359 12.9883 318.109 16.5332 323.122C20.0781 328.135 25.0374 330.642 31.4111 330.642C37.1403 330.642 41.5267 329.353 44.5703 326.774C47.6497 324.16 49.6908 319.631 50.6934 313.186H61.0596ZM70.9961 308.405C70.9961 302.712 72.1061 297.591 74.3262 293.044C76.582 288.496 79.6973 284.987 83.6719 282.517C87.6823 280.046 92.2477 278.811 97.3682 278.811C105.282 278.811 111.673 281.55 116.543 287.028C121.449 292.507 123.901 299.794 123.901 308.889V309.587C123.901 315.244 122.809 320.329 120.625 324.841C118.477 329.317 115.379 332.808 111.333 335.314C107.323 337.821 102.703 339.074 97.4756 339.074C89.598 339.074 83.2064 336.335 78.3008 330.856C73.431 325.378 70.9961 318.127 70.9961 309.104V308.405ZM80.9863 309.587C80.9863 316.032 82.4723 321.206 85.4443 325.109C88.4521 329.012 92.4626 330.964 97.4756 330.964C102.524 330.964 106.535 328.994 109.507 325.056C112.479 321.081 113.965 315.531 113.965 308.405C113.965 302.032 112.443 296.875 109.399 292.937C106.392 288.962 102.381 286.975 97.3682 286.975C92.4626 286.975 88.5059 288.926 85.498 292.829C82.4902 296.732 80.9863 302.318 80.9863 309.587ZM145.762 279.885L146.084 287.189C150.524 281.604 156.325 278.811 163.486 278.811C175.768 278.811 181.963 285.739 182.07 299.597V338H172.134V299.543C172.098 295.354 171.131 292.256 169.233 290.251C167.371 288.246 164.453 287.243 160.479 287.243C157.256 287.243 154.427 288.103 151.992 289.821C149.557 291.54 147.66 293.796 146.299 296.589V338H136.362V279.885H145.762ZM230.894 322.585C230.894 319.899 229.873 317.823 227.832 316.354C225.827 314.851 222.3 313.562 217.251 312.487C212.238 311.413 208.245 310.124 205.273 308.62C202.337 307.116 200.153 305.326 198.721 303.249C197.324 301.172 196.626 298.701 196.626 295.837C196.626 291.075 198.631 287.046 202.642 283.752C206.688 280.458 211.844 278.811 218.11 278.811C224.699 278.811 230.034 280.511 234.116 283.913C238.234 287.315 240.293 291.665 240.293 296.965H230.303C230.303 294.243 229.139 291.898 226.812 289.929C224.52 287.959 221.619 286.975 218.11 286.975C214.494 286.975 211.665 287.762 209.624 289.338C207.583 290.913 206.562 292.972 206.562 295.515C206.562 297.914 207.511 299.722 209.409 300.939C211.307 302.157 214.727 303.321 219.668 304.431C224.645 305.541 228.674 306.866 231.753 308.405C234.832 309.945 237.106 311.807 238.574 313.991C240.078 316.14 240.83 318.771 240.83 321.887C240.83 327.079 238.753 331.25 234.6 334.401C230.446 337.517 225.057 339.074 218.433 339.074C213.778 339.074 209.66 338.251 206.079 336.604C202.498 334.956 199.688 332.665 197.646 329.729C195.641 326.757 194.639 323.552 194.639 320.114H204.575C204.754 323.444 206.079 326.094 208.55 328.063C211.056 329.997 214.351 330.964 218.433 330.964C222.192 330.964 225.2 330.212 227.456 328.708C229.748 327.168 230.894 325.127 230.894 322.585ZM267.256 265.812V279.885H278.105V287.565H267.256V323.605C267.256 325.933 267.739 327.688 268.706 328.869C269.673 330.015 271.32 330.588 273.647 330.588C274.793 330.588 276.369 330.373 278.374 329.943V338C275.76 338.716 273.218 339.074 270.747 339.074C266.307 339.074 262.959 337.731 260.703 335.046C258.447 332.36 257.319 328.547 257.319 323.605V287.565H246.738V279.885H257.319V265.812H267.256ZM317.852 288.801C316.348 288.55 314.718 288.425 312.964 288.425C306.447 288.425 302.025 291.2 299.697 296.75V338H289.761V279.885H299.429L299.59 286.599C302.848 281.407 307.467 278.811 313.447 278.811C315.381 278.811 316.849 279.061 317.852 279.562V288.801ZM362.915 332.253C359.048 336.8 353.372 339.074 345.889 339.074C339.694 339.074 334.967 337.284 331.709 333.703C328.486 330.087 326.857 324.751 326.821 317.697V279.885H336.758V317.429C336.758 326.237 340.339 330.642 347.5 330.642C355.091 330.642 360.14 327.813 362.646 322.155V279.885H372.583V338H363.13L362.915 332.253ZM411.04 330.964C414.585 330.964 417.682 329.89 420.332 327.741C422.982 325.593 424.45 322.907 424.736 319.685H434.136C433.957 323.015 432.811 326.184 430.698 329.191C428.586 332.199 425.757 334.598 422.212 336.389C418.703 338.179 414.979 339.074 411.04 339.074C403.127 339.074 396.825 336.442 392.134 331.179C387.479 325.879 385.151 318.646 385.151 309.479V307.814C385.151 302.157 386.19 297.126 388.267 292.722C390.343 288.317 393.315 284.898 397.183 282.463C401.086 280.028 405.687 278.811 410.986 278.811C417.503 278.811 422.91 280.762 427.207 284.665C431.54 288.568 433.849 293.635 434.136 299.865H424.736C424.45 296.105 423.018 293.026 420.439 290.627C417.897 288.192 414.746 286.975 410.986 286.975C405.938 286.975 402.017 288.801 399.224 292.453C396.466 296.07 395.088 301.315 395.088 308.19V310.07C395.088 316.766 396.466 321.923 399.224 325.539C401.981 329.156 405.92 330.964 411.04 330.964ZM468.618 330.964C472.163 330.964 475.26 329.89 477.91 327.741C480.56 325.593 482.028 322.907 482.314 319.685H491.714C491.535 323.015 490.389 326.184 488.276 329.191C486.164 332.199 483.335 334.598 479.79 336.389C476.281 338.179 472.557 339.074 468.618 339.074C460.705 339.074 454.403 336.442 449.712 331.179C445.057 325.879 442.729 318.646 442.729 309.479V307.814C442.729 302.157 443.768 297.126 445.845 292.722C447.922 288.317 450.894 284.898 454.761 282.463C458.664 280.028 463.265 278.811 468.564 278.811C475.081 278.811 480.488 280.762 484.785 284.665C489.118 288.568 491.427 293.635 491.714 299.865H482.314C482.028 296.105 480.596 293.026 478.018 290.627C475.475 288.192 472.324 286.975 468.564 286.975C463.516 286.975 459.595 288.801 456.802 292.453C454.045 296.07 452.666 301.315 452.666 308.19V310.07C452.666 316.766 454.045 321.923 456.802 325.539C459.559 329.156 463.498 330.964 468.618 330.964ZM513.682 338H503.745V279.885H513.682V338ZM502.939 264.47C502.939 262.858 503.423 261.498 504.39 260.388C505.392 259.278 506.86 258.723 508.794 258.723C510.728 258.723 512.196 259.278 513.198 260.388C514.201 261.498 514.702 262.858 514.702 264.47C514.702 266.081 514.201 267.424 513.198 268.498C512.196 269.572 510.728 270.109 508.794 270.109C506.86 270.109 505.392 269.572 504.39 268.498C503.423 267.424 502.939 266.081 502.939 264.47ZM527.002 308.405C527.002 302.712 528.112 297.591 530.332 293.044C532.588 288.496 535.703 284.987 539.678 282.517C543.688 280.046 548.254 278.811 553.374 278.811C561.287 278.811 567.679 281.55 572.549 287.028C577.454 292.507 579.907 299.794 579.907 308.889V309.587C579.907 315.244 578.815 320.329 576.631 324.841C574.482 329.317 571.385 332.808 567.339 335.314C563.328 337.821 558.709 339.074 553.481 339.074C545.604 339.074 539.212 336.335 534.307 330.856C529.437 325.378 527.002 318.127 527.002 309.104V308.405ZM536.992 309.587C536.992 316.032 538.478 321.206 541.45 325.109C544.458 329.012 548.468 330.964 553.481 330.964C558.53 330.964 562.541 328.994 565.513 325.056C568.485 321.081 569.971 315.531 569.971 308.405C569.971 302.032 568.449 296.875 565.405 292.937C562.397 288.962 558.387 286.975 553.374 286.975C548.468 286.975 544.512 288.926 541.504 292.829C538.496 296.732 536.992 302.318 536.992 309.587ZM557.886 255.5H569.917L555.522 271.291H547.52L557.886 255.5ZM601.768 279.885L602.09 287.189C606.53 281.604 612.331 278.811 619.492 278.811C631.774 278.811 637.969 285.739 638.076 299.597V338H628.14V299.543C628.104 295.354 627.137 292.256 625.239 290.251C623.377 288.246 620.459 287.243 616.484 287.243C613.262 287.243 610.433 288.103 607.998 289.821C605.563 291.54 603.665 293.796 602.305 296.589V338H592.368V279.885H601.768Z" fill="#C9A967"/>
</svg>
