<svg xmlns="http://www.w3.org/2000/svg" width="40" height="40" viewBox="0 0 40 40"><defs><style>.a{fill:#c9a967;}.b{fill:#fff;}</style></defs><g transform="translate(-1424.54 -4481.54)"><circle class="a" cx="20" cy="20" r="20" transform="translate(1424.54 4481.54)"/><path class="b" d="M15.174,30.872H1.826A1.824,1.824,0,0,0,0,32.689v8.722a1.824,1.824,0,0,0,1.826,1.817h4.3a.167.167,0,0,1,.134.067l1.569,2.117a.824.824,0,0,0,.664.336h0a.824.824,0,0,0,.663-.33l1.6-2.124a.167.167,0,0,1,.133-.066h4.276A1.824,1.824,0,0,0,17,41.411V32.689a1.824,1.824,0,0,0-1.826-1.817ZM16,41.411a.819.819,0,0,1-.032.225l-5.117-4.463L16,32.922Zm-.83-9.548a.828.828,0,0,1,.417.112L9.032,37.391a.834.834,0,0,1-1.06,0l-6.56-5.417a.828.828,0,0,1,.415-.111H15.174ZM1.028,41.636A.819.819,0,0,1,1,41.411V32.92l5.15,4.252ZM9.969,42.7,8.5,44.645,7.062,42.707a1.168,1.168,0,0,0-.935-.47H1.85l5.072-4.424.413.341a1.834,1.834,0,0,0,2.332,0l.412-.34,5.071,4.423H10.9A1.17,1.17,0,0,0,9.969,42.7Z" transform="translate(1435.819 4464.667)"/></g></svg>