<svg xmlns="http://www.w3.org/2000/svg" width="50.859" height="62" viewBox="0 0 50.859 62"><defs><style>.a{fill:#c9a967;}</style></defs><g transform="translate(-46)"><g transform="translate(75.063 54.734)"><path class="a" d="M287.211,452a1.211,1.211,0,1,0,1.211,1.211A1.211,1.211,0,0,0,287.211,452Z" transform="translate(-286 -452)"/></g><g transform="translate(46)"><path class="a" d="M93.227,5.57H89.594V3.633A3.637,3.637,0,0,0,85.961,0H56.9a3.637,3.637,0,0,0-3.633,3.633V5.57H49.633A3.637,3.637,0,0,0,46,9.2c0,7.878,3.686,13.668,9.667,15.279A26.7,26.7,0,0,0,65.073,35.6a3.5,3.5,0,0,1,1.513,2.924V45.2a4.85,4.85,0,0,0-3.633,4.691H61.742a3.637,3.637,0,0,0-3.633,3.633v7.266A1.211,1.211,0,0,0,59.32,62H83.539a1.211,1.211,0,0,0,1.211-1.211V53.523a3.637,3.637,0,0,0-3.633-3.633H79.906a4.852,4.852,0,0,0-3.633-4.69V38.533a3.506,3.506,0,0,1,1.515-2.93,26.694,26.694,0,0,0,9.406-11.121c5.979-1.612,9.665-7.4,9.665-15.279A3.637,3.637,0,0,0,93.227,5.57ZM48.422,9.2a1.212,1.212,0,0,1,1.211-1.211h3.633v5.413a26.6,26.6,0,0,0,1.244,8.067C50.656,19.563,48.422,15.154,48.422,9.2Zm32.7,43.109a1.212,1.212,0,0,1,1.211,1.211v6.055h-21.8V53.523a1.212,1.212,0,0,1,1.211-1.211Zm6.055-38.907A24.349,24.349,0,0,1,76.435,33.594a5.923,5.923,0,0,0-2.584,4.939v7.725a1.211,1.211,0,0,0,1.211,1.211,2.425,2.425,0,0,1,2.422,2.422H65.375a2.423,2.423,0,0,1,2.327-2.42q.047,0,.095,0a1.216,1.216,0,0,0,1.211-1.216V38.527a5.919,5.919,0,0,0-2.582-4.933,24.354,24.354,0,0,1-10.738-20.19V3.633A1.212,1.212,0,0,1,56.9,2.422H85.961a1.212,1.212,0,0,1,1.211,1.211Zm1.179,8.066a26.614,26.614,0,0,0,1.243-8.066V7.992h3.633A1.212,1.212,0,0,1,94.438,9.2C94.438,15.154,92.2,19.562,88.351,21.471Z" transform="translate(-46)"/></g><g transform="translate(61.7 7.314)"><path class="a" d="M194.963,67.394a1.21,1.21,0,0,0-.978-.824l-5.226-.759-2.337-4.737a1.211,1.211,0,0,0-2.172,0l-2.337,4.737-5.226.759a1.211,1.211,0,0,0-.671,2.066l3.782,3.686-.893,5.205a1.211,1.211,0,0,0,1.757,1.277l4.674-2.457,4.675,2.457a1.211,1.211,0,0,0,1.757-1.277l-.894-5.205,3.782-3.686A1.211,1.211,0,0,0,194.963,67.394Zm-6.235,3.637a1.211,1.211,0,0,0-.348,1.072l.586,3.414L185.9,73.907a1.211,1.211,0,0,0-1.127,0l-3.065,1.612.586-3.415a1.211,1.211,0,0,0-.348-1.072l-2.48-2.418,3.427-.5a1.211,1.211,0,0,0,.912-.662l1.533-3.107,1.533,3.107a1.211,1.211,0,0,0,.912.662l3.427.5Z" transform="translate(-175.649 -60.4)"/></g><g transform="translate(65.375 54.734)"><path class="a" d="M212.055,452h-4.844a1.211,1.211,0,0,0,0,2.422h4.844a1.211,1.211,0,0,0,0-2.422Z" transform="translate(-206 -452)"/></g><g transform="translate(90.079 58.314)"><path class="a" d="M410.01,481.61h.675C410.341,481.542,410.11,481.535,410.01,481.61Z" transform="translate(-410.01 -481.557)"/></g></g></svg>