<svg xmlns="http://www.w3.org/2000/svg" width="19.54" height="19.54" viewBox="0 0 19.54 19.54"><defs><style>.a{fill:#c9c9c9;}</style></defs><path class="a" d="M210.74,208.87a1.87,1.87,0,1,1-1.87-1.87A1.868,1.868,0,0,1,210.74,208.87Z" transform="translate(-199.1 -199.1)"/><path class="a" d="M144.376,136.694a1.86,1.86,0,0,0-1.065-1.065,3.167,3.167,0,0,0-1.042-.195c-.592-.027-.771-.034-2.267-.034s-1.675,0-2.267.034a3.167,3.167,0,0,0-1.042.195,1.86,1.86,0,0,0-1.065,1.065,3.167,3.167,0,0,0-.195,1.042c-.027.592-.034.767-.034,2.267s.008,1.675.034,2.267a3.067,3.067,0,0,0,.195,1.042,1.86,1.86,0,0,0,1.065,1.065,3.166,3.166,0,0,0,1.042.195c.592.027.767.034,2.267.034s1.675,0,2.267-.034a3.066,3.066,0,0,0,1.042-.195,1.853,1.853,0,0,0,1.065-1.065,3.167,3.167,0,0,0,.195-1.042c.027-.592.034-.771.034-2.267s0-1.675-.034-2.267A3.167,3.167,0,0,0,144.376,136.694ZM140,142.884A2.881,2.881,0,1,1,142.884,140,2.881,2.881,0,0,1,140,142.884Zm3-5.2a.672.672,0,1,1,.672-.672A.673.673,0,0,1,143,137.682Z" transform="translate(-130.233 -130.233)"/><path class="a" d="M9.77,0a9.77,9.77,0,1,0,9.77,9.77A9.769,9.769,0,0,0,9.77,0Zm5.576,12.083a4.166,4.166,0,0,1-.26,1.362,2.861,2.861,0,0,1-1.641,1.641,4.124,4.124,0,0,1-1.362.26c-.6.027-.79.034-2.313.034s-1.714-.008-2.313-.034a4.166,4.166,0,0,1-1.362-.26,2.894,2.894,0,0,1-1.641-1.641,4.124,4.124,0,0,1-.26-1.362c-.027-.6-.034-.79-.034-2.313s.008-1.714.034-2.313a4.166,4.166,0,0,1,.26-1.362A2.894,2.894,0,0,1,6.095,4.454a4.145,4.145,0,0,1,1.362-.26c.6-.027.79-.034,2.313-.034s1.714.008,2.313.034a4.166,4.166,0,0,1,1.362.26,2.894,2.894,0,0,1,1.641,1.641,4.145,4.145,0,0,1,.26,1.362c.027.6.034.79.034,2.313S15.373,11.484,15.346,12.083Z"/></svg>