<svg xmlns="http://www.w3.org/2000/svg" width="27.804" height="27.804" viewBox="0 0 27.804 27.804"><defs><style>.a{fill:#c9a967;}</style></defs><path class="a" d="M212.322,209.661A2.661,2.661,0,1,1,209.661,207,2.658,2.658,0,0,1,212.322,209.661Z" transform="translate(-195.759 -195.759)"/><path class="a" d="M148.172,137.241a2.646,2.646,0,0,0-1.515-1.515,4.506,4.506,0,0,0-1.483-.277c-.842-.038-1.1-.049-3.226-.049s-2.384.005-3.226.049a4.506,4.506,0,0,0-1.482.277,2.646,2.646,0,0,0-1.515,1.515,4.506,4.506,0,0,0-.277,1.482c-.038.842-.049,1.092-.049,3.226s.011,2.384.049,3.226a4.364,4.364,0,0,0,.277,1.482,2.646,2.646,0,0,0,1.515,1.515,4.506,4.506,0,0,0,1.482.277c.842.038,1.092.049,3.226.049s2.384-.005,3.226-.049a4.364,4.364,0,0,0,1.483-.277,2.636,2.636,0,0,0,1.515-1.515,4.506,4.506,0,0,0,.277-1.482c.038-.842.049-1.1.049-3.226s-.005-2.384-.049-3.226A4.506,4.506,0,0,0,148.172,137.241Zm-6.223,8.808a4.1,4.1,0,1,1,4.1-4.1A4.1,4.1,0,0,1,141.949,146.049Zm4.263-7.4a.956.956,0,1,1,.956-.956A.957.957,0,0,1,146.212,138.647Z" transform="translate(-128.047 -128.047)"/><path class="a" d="M13.9,0A13.9,13.9,0,1,0,27.8,13.9,13.9,13.9,0,0,0,13.9,0Zm7.934,17.193a5.927,5.927,0,0,1-.369,1.939,4.071,4.071,0,0,1-2.335,2.335,5.868,5.868,0,0,1-1.939.369c-.853.038-1.124.049-3.291.049s-2.438-.011-3.291-.049a5.927,5.927,0,0,1-1.939-.369,4.117,4.117,0,0,1-2.335-2.335,5.868,5.868,0,0,1-.369-1.939c-.038-.853-.049-1.124-.049-3.291s.011-2.438.049-3.291a5.927,5.927,0,0,1,.369-1.939A4.117,4.117,0,0,1,8.672,6.337a5.9,5.9,0,0,1,1.939-.369c.853-.038,1.124-.049,3.291-.049s2.438.011,3.291.049a5.927,5.927,0,0,1,1.939.369,4.117,4.117,0,0,1,2.335,2.335,5.9,5.9,0,0,1,.369,1.939c.038.853.049,1.124.049,3.291S21.874,16.34,21.836,17.193Z"/></svg>