<svg xmlns="http://www.w3.org/2000/svg" width="27.804" height="27.804" viewBox="0 0 27.804 27.804"><defs><style>.a{fill:#c9a967;}</style></defs><path class="a" d="M13.9,0A13.9,13.9,0,1,0,27.8,13.9,13.9,13.9,0,0,0,13.9,0ZM9.862,21.016H6.478V10.828H9.862ZM8.167,9.438H8.146a1.764,1.764,0,1,1,.043-3.519,1.765,1.765,0,1,1-.022,3.519Zm13.9,11.578H18.686V15.569c0-1.368-.489-2.3-1.716-2.3A1.855,1.855,0,0,0,15.232,14.5a2.371,2.371,0,0,0-.114.825v5.686H11.735s.043-9.232,0-10.187h3.383v1.444a3.361,3.361,0,0,1,3.052-1.683c2.226,0,3.9,1.455,3.9,4.583v5.843Z"/></svg>