<svg xmlns="http://www.w3.org/2000/svg" width="19.54" height="19.54" viewBox="0 0 19.54 19.54"><defs><style>.a{fill:#c9c9c9;}</style></defs><path class="a" d="M9.77,0a9.77,9.77,0,1,0,9.77,9.77A9.769,9.769,0,0,0,9.77,0ZM6.931,14.77H4.553V7.61H6.931ZM5.74,6.633H5.725A1.24,1.24,0,1,1,5.755,4.16,1.241,1.241,0,1,1,5.74,6.633Zm9.77,8.137H13.132V10.942c0-.962-.343-1.618-1.206-1.618a1.3,1.3,0,0,0-1.221.87,1.666,1.666,0,0,0-.08.58v4H8.247s.031-6.488,0-7.16h2.378V8.625A2.362,2.362,0,0,1,12.77,7.442c1.565,0,2.74,1.023,2.74,3.221V14.77Z"/></svg>