<svg xmlns="http://www.w3.org/2000/svg" width="190" height="41.167" viewBox="0 0 190 41.167">
  <g id="logo-menunav" transform="translate(-120.866 -126.916)">
    <g id="Grupo_251" data-name="Grupo 251" transform="translate(210.785 127.471)">
      <path id="Trazado_620" data-name="Trazado 620" d="M726.77,131.775a14.12,14.12,0,0,0-6.189-1.193h-7.36v19.2h7.36a14.123,14.123,0,0,0,6.189-1.193,8.035,8.035,0,0,0,3.624-3.357,11.416,11.416,0,0,0,0-10.1A8.038,8.038,0,0,0,726.77,131.775Zm-9.42,1.991H720.4a9.279,9.279,0,0,1,4.143.771,4.558,4.558,0,0,1,2.154,2.193,9.45,9.45,0,0,1,0,6.919,4.5,4.5,0,0,1-2.153,2.166,9.42,9.42,0,0,1-4.143.758h-3.049Z" transform="translate(-713.221 -130.582)" fill="#c9a967"/>
      <path id="Trazado_621" data-name="Trazado 621" d="M850.4,155.349a8.268,8.268,0,0,0-7.935,0,7.591,7.591,0,0,0-2.816,2.811,8.146,8.146,0,0,0-1.046,4.157,8.238,8.238,0,0,0,1.031,4.157,7.48,7.48,0,0,0,2.8,2.812,8.3,8.3,0,0,0,7.949,0,7.46,7.46,0,0,0,2.817-2.812,8.9,8.9,0,0,0,0-8.313A7.489,7.489,0,0,0,850.4,155.349Zm-3.982,11.341a3.425,3.425,0,0,1-2.526-1.094,5.567,5.567,0,0,1,0-6.558,3.48,3.48,0,0,1,5.067,0,5.5,5.5,0,0,1,0,6.556A3.475,3.475,0,0,1,846.419,166.69Z" transform="translate(-819.572 -150.735)" fill="#c9a967"/>
      <path id="Trazado_622" data-name="Trazado 622" d="M947.09,156.727l-3.721,11.054-3.721-11.054h-4.33l5.6,15.239h4.869l5.632-15.239Z" transform="translate(-901.605 -152.765)" fill="#c9a967"/>
      <path id="Trazado_623" data-name="Trazado 623" d="M1046.858,155.318a7.907,7.907,0,0,0-3.967-.983,8.173,8.173,0,0,0-4.165,1.03,7.291,7.291,0,0,0-2.771,2.874,8.7,8.7,0,0,0-1,4.2,8.189,8.189,0,0,0,1.015,4.111,7.156,7.156,0,0,0,2.8,2.768,8.367,8.367,0,0,0,4.086.983,7.832,7.832,0,0,0,3.307-.676,7.094,7.094,0,0,0,2.465-1.861,7.281,7.281,0,0,0,1.432-2.629l.049-.165h-4.188l-.034.074a3.165,3.165,0,0,1-1.149,1.322,3.416,3.416,0,0,1-1.911.508,3.649,3.649,0,0,1-3.765-3.49h11.388l.009-.118c.02-.263.035-.516.046-.759s.015-.476.015-.7a7.573,7.573,0,0,0-.97-3.794A7.112,7.112,0,0,0,1046.858,155.318Zm-6.4,3.19a4.024,4.024,0,0,1,2.435-.775,3.519,3.519,0,0,1,2.4.844,3.112,3.112,0,0,1,1.035,2.132h-7.179A3.534,3.534,0,0,1,1040.456,158.508Z" transform="translate(-986.117 -150.735)" fill="#c9a967"/>
      <rect id="Rectángulo_24" data-name="Rectángulo 24" width="4.13" height="19.201" transform="translate(65.511 0)" fill="#c9a967"/>
      <path id="Trazado_624" data-name="Trazado 624" d="M727.986,272.38a5.619,5.619,0,0,0-2.536-2.134,10.349,10.349,0,0,0-4.264-.771h-7.965v19.2h4.13v-7.345h3.836a10.051,10.051,0,0,0,4.327-.813,5.7,5.7,0,0,0,2.472-8.138Zm-10.635.143h3.594a4.226,4.226,0,0,1,2.829.766,2.722,2.722,0,0,1,.855,2.127,2.688,2.688,0,0,1-.855,2.1,4.225,4.225,0,0,1-2.829.766h-3.594Z" transform="translate(-713.221 -248.427)" fill="#c9a967"/>
      <path id="Trazado_625" data-name="Trazado 625" d="M824.688,294.243a8.269,8.269,0,0,0-7.935,0,7.591,7.591,0,0,0-2.816,2.811,8.145,8.145,0,0,0-1.046,4.158,8.241,8.241,0,0,0,1.03,4.156,7.483,7.483,0,0,0,2.8,2.812,8.3,8.3,0,0,0,7.949,0,7.46,7.46,0,0,0,2.817-2.812,8.9,8.9,0,0,0,0-8.313A7.491,7.491,0,0,0,824.688,294.243Zm-3.983,11.341a3.424,3.424,0,0,1-2.526-1.094,5.567,5.567,0,0,1,0-6.558,3.48,3.48,0,0,1,5.067,0,5.5,5.5,0,0,1,0,6.556A3.474,3.474,0,0,1,820.706,305.584Z" transform="translate(-797.762 -268.582)" fill="#c9a967"/>
      <path id="Trazado_626" data-name="Trazado 626" d="M933.283,293.229a6.093,6.093,0,0,0-3.167.8,5.439,5.439,0,0,0-1.866,1.823l-.27-2.264h-3.661V308.83h4.13v-7.861a4.486,4.486,0,0,1,1.011-3.116,3.349,3.349,0,0,1,2.583-1.106,2.783,2.783,0,0,1,2.349.977,4.7,4.7,0,0,1,.76,2.883v8.224h4.129v-8.586a7.7,7.7,0,0,0-1.575-5.22A5.609,5.609,0,0,0,933.283,293.229Z" transform="translate(-892.275 -268.582)" fill="#c9a967"/>
      <path id="Trazado_627" data-name="Trazado 627" d="M1032.482,269.11h-3.662l-.454,4.017h-2.586v3.488h2.572v6.4c0,1.985.495,3.391,1.47,4.177a5.988,5.988,0,0,0,3.863,1.176h2.761v-3.549h-2a2.383,2.383,0,0,1-1.535-.376,1.818,1.818,0,0,1-.425-1.4v-6.427h4.055v-3.488h-4.055Z" transform="translate(-978.334 -248.118)" fill="#c9a967"/>
      <path id="Trazado_628" data-name="Trazado 628" d="M1110.443,294.212a7.906,7.906,0,0,0-3.967-.983,8.173,8.173,0,0,0-4.165,1.029,7.289,7.289,0,0,0-2.771,2.874,8.7,8.7,0,0,0-1,4.2,8.191,8.191,0,0,0,1.015,4.111,7.159,7.159,0,0,0,2.8,2.767,8.366,8.366,0,0,0,4.086.983,7.833,7.833,0,0,0,3.307-.676,7.1,7.1,0,0,0,2.465-1.861,7.278,7.278,0,0,0,1.432-2.629l.049-.164h-4.188l-.034.074a3.166,3.166,0,0,1-1.15,1.322,3.416,3.416,0,0,1-1.911.507,3.649,3.649,0,0,1-3.765-3.49h11.388l.009-.118c.02-.263.035-.516.046-.759s.015-.477.015-.7a7.576,7.576,0,0,0-.97-3.794A7.111,7.111,0,0,0,1110.443,294.212Zm-6.4,3.19a4.025,4.025,0,0,1,2.436-.776,3.52,3.52,0,0,1,2.4.844,3.113,3.113,0,0,1,1.036,2.132h-7.18A3.534,3.534,0,0,1,1104.04,297.4Z" transform="translate(-1040.05 -268.582)" fill="#c9a967"/>
      <path id="Trazado_629" data-name="Trazado 629" d="M1231.686,295.024a5.894,5.894,0,0,0-4.6-1.795,6.522,6.522,0,0,0-3.071.74,6,6,0,0,0-2.123,1.835,5.3,5.3,0,0,0-4.943-2.574,5.862,5.862,0,0,0-2.83.665,5.51,5.51,0,0,0-1.784,1.521l-.3-1.824h-3.656V308.83h4.13v-7.861a4.773,4.773,0,0,1,.923-3.12,2.979,2.979,0,0,1,2.4-1.1,2.594,2.594,0,0,1,2.227.975,4.842,4.842,0,0,1,.732,2.885v8.224h4.13v-7.861a4.774,4.774,0,0,1,.924-3.12,3.011,3.011,0,0,1,2.428-1.1,2.49,2.49,0,0,1,2.181.974,4.921,4.921,0,0,1,.717,2.886v8.224h4.13v-8.586A7.609,7.609,0,0,0,1231.686,295.024Z" transform="translate(-1133.211 -268.582)" fill="#c9a967"/>
    </g>
    <path id="Trazado_630" data-name="Trazado 630" d="M120.866,126.916v41.043h22v-.741a18.37,18.37,0,0,1,36.739,0v.741h22V126.916Zm1.485,1.482h26.6c-13.6,3.489-23.1,12.969-26.6,26.549ZM141.4,166.477H122.356c.136-9.992,3.044-18.449,8.18-24.836l15.231,13.175A19.7,19.7,0,0,0,141.4,166.477Zm5.341-12.783-15.247-13.189a35.051,35.051,0,0,1,17.97-10.7l5.476,18.617A19.9,19.9,0,0,0,146.738,153.694ZM166.115,148a19.939,19.939,0,0,0-9.755,0l-5.453-18.539a50.55,50.55,0,0,1,20.661,0Zm1.423.423,5.476-18.617a35.051,35.051,0,0,1,17.97,10.7l-15.247,13.189A19.9,19.9,0,0,0,167.538,148.426Zm13.54,18.051a19.7,19.7,0,0,0-4.37-11.661l15.231-13.175c5.137,6.388,8.044,14.844,8.18,24.836Zm19.046-11.529c-3.495-13.58-12.992-23.061-26.6-26.549h26.6Z" fill="#c9a967"/>
  </g>
</svg>
