<svg xmlns="http://www.w3.org/2000/svg" width="190" height="41" viewBox="0 0 190 41"><defs><style>.a{fill:#fff;}</style></defs><g transform="translate(-120.866 -126.916)"><g transform="translate(210.785 127.469)"><path class="a" d="M726.77,131.77a14.17,14.17,0,0,0-6.189-1.188h-7.36v19.123h7.36a14.173,14.173,0,0,0,6.189-1.188,8.022,8.022,0,0,0,3.624-3.343,11.329,11.329,0,0,0,0-10.061A8.025,8.025,0,0,0,726.77,131.77Zm-9.42,1.983H720.4a9.312,9.312,0,0,1,4.143.768A4.548,4.548,0,0,1,726.7,136.7a9.376,9.376,0,0,1,0,6.891,4.492,4.492,0,0,1-2.153,2.157,9.454,9.454,0,0,1-4.143.755h-3.049Z" transform="translate(-713.221 -130.582)"/><path class="a" d="M850.4,155.345a8.3,8.3,0,0,0-7.935,0,7.576,7.576,0,0,0-2.816,2.8,8.088,8.088,0,0,0-1.046,4.141,8.179,8.179,0,0,0,1.031,4.14,7.466,7.466,0,0,0,2.8,2.8,8.329,8.329,0,0,0,7.949,0,7.445,7.445,0,0,0,2.816-2.8,8.828,8.828,0,0,0,0-8.28A7.473,7.473,0,0,0,850.4,155.345Zm-3.982,11.3a3.432,3.432,0,0,1-2.526-1.09,5.526,5.526,0,0,1,0-6.531,3.489,3.489,0,0,1,5.067,0,5.464,5.464,0,0,1,0,6.53A3.482,3.482,0,0,1,846.419,166.64Z" transform="translate(-819.572 -150.75)"/><path class="a" d="M947.09,156.727l-3.721,11.009-3.721-11.009h-4.33l5.6,15.177h4.869l5.632-15.177Z" transform="translate(-901.604 -152.781)"/><path class="a" d="M1046.858,155.314a7.933,7.933,0,0,0-3.967-.979,8.2,8.2,0,0,0-4.165,1.025,7.276,7.276,0,0,0-2.771,2.862,8.635,8.635,0,0,0-1,4.182,8.131,8.131,0,0,0,1.015,4.094,7.142,7.142,0,0,0,2.8,2.756,8.394,8.394,0,0,0,4.086.979,7.86,7.86,0,0,0,3.307-.674,7.09,7.09,0,0,0,2.465-1.854,7.239,7.239,0,0,0,1.432-2.618l.049-.164h-4.188l-.035.074a3.155,3.155,0,0,1-1.149,1.316,3.426,3.426,0,0,1-1.911.505,3.643,3.643,0,0,1-3.765-3.476h11.388l.009-.118c.02-.262.035-.514.046-.756s.015-.475.015-.7a7.521,7.521,0,0,0-.97-3.779A7.1,7.1,0,0,0,1046.858,155.314Zm-6.4,3.177a4.035,4.035,0,0,1,2.435-.772,3.528,3.528,0,0,1,2.4.841,3.094,3.094,0,0,1,1.035,2.123h-7.179A3.518,3.518,0,0,1,1040.456,158.491Z" transform="translate(-986.117 -150.75)"/><rect class="a" width="4.13" height="19.123" transform="translate(65.511)"/><path class="a" d="M727.986,272.368a5.613,5.613,0,0,0-2.536-2.125,10.387,10.387,0,0,0-4.264-.768h-7.966V288.6h4.13v-7.315h3.836a10.086,10.086,0,0,0,4.327-.81,5.684,5.684,0,0,0,2.5-2.152,5.607,5.607,0,0,0,.8-2.929A5.664,5.664,0,0,0,727.986,272.368Zm-10.635.142h3.594a4.238,4.238,0,0,1,2.829.763,2.705,2.705,0,0,1,.855,2.119,2.671,2.671,0,0,1-.855,2.092,4.237,4.237,0,0,1-2.829.763h-3.594Z" transform="translate(-713.221 -248.513)"/><path class="a" d="M824.688,294.239a8.3,8.3,0,0,0-7.935,0,7.575,7.575,0,0,0-2.816,2.8,8.087,8.087,0,0,0-1.046,4.141,8.181,8.181,0,0,0,1.03,4.14,7.468,7.468,0,0,0,2.8,2.8,8.33,8.33,0,0,0,7.949,0,7.446,7.446,0,0,0,2.817-2.8,8.832,8.832,0,0,0,0-8.28A7.475,7.475,0,0,0,824.688,294.239Zm-3.982,11.3a3.431,3.431,0,0,1-2.526-1.09,5.526,5.526,0,0,1,0-6.531,3.49,3.49,0,0,1,5.067,0,5.464,5.464,0,0,1,0,6.53A3.481,3.481,0,0,1,820.706,305.534Z" transform="translate(-797.762 -268.682)"/><path class="a" d="M933.283,293.229a6.113,6.113,0,0,0-3.167.8,5.43,5.43,0,0,0-1.865,1.815l-.27-2.255h-3.661v15.177h4.13v-7.829a4.457,4.457,0,0,1,1.011-3.1,3.356,3.356,0,0,1,2.583-1.1,2.788,2.788,0,0,1,2.349.973,4.664,4.664,0,0,1,.76,2.871v8.19h4.13v-8.551a7.652,7.652,0,0,0-1.575-5.2A5.62,5.62,0,0,0,933.283,293.229Z" transform="translate(-892.275 -268.682)"/><path class="a" d="M1032.482,269.11h-3.662l-.454,4h-2.586v3.474h2.572v6.371c0,1.977.495,3.377,1.47,4.161a6.005,6.005,0,0,0,3.863,1.172h2.761v-3.534h-2a2.391,2.391,0,0,1-1.535-.375,1.806,1.806,0,0,1-.425-1.393v-6.4h4.055v-3.474h-4.055Z" transform="translate(-978.334 -248.203)"/><path class="a" d="M1110.443,294.208a7.932,7.932,0,0,0-3.967-.979,8.2,8.2,0,0,0-4.165,1.025,7.272,7.272,0,0,0-2.771,2.862,8.634,8.634,0,0,0-1,4.182,8.133,8.133,0,0,0,1.015,4.094,7.144,7.144,0,0,0,2.8,2.756,8.392,8.392,0,0,0,4.086.979,7.86,7.86,0,0,0,3.307-.673,7.094,7.094,0,0,0,2.465-1.854,7.242,7.242,0,0,0,1.432-2.618l.049-.164h-4.188l-.034.074a3.155,3.155,0,0,1-1.15,1.316,3.425,3.425,0,0,1-1.911.505,3.643,3.643,0,0,1-3.765-3.476h11.388l.009-.118c.02-.262.035-.514.046-.756s.015-.475.015-.7a7.523,7.523,0,0,0-.97-3.779A7.1,7.1,0,0,0,1110.443,294.208Zm-6.4,3.177a4.036,4.036,0,0,1,2.436-.772,3.528,3.528,0,0,1,2.4.841,3.1,3.1,0,0,1,1.036,2.123h-7.18A3.518,3.518,0,0,1,1104.04,297.385Z" transform="translate(-1040.05 -268.682)"/><path class="a" d="M1231.687,295.016a5.907,5.907,0,0,0-4.6-1.787,6.544,6.544,0,0,0-3.071.737,5.993,5.993,0,0,0-2.123,1.827,5.308,5.308,0,0,0-4.943-2.564,5.881,5.881,0,0,0-2.83.662,5.5,5.5,0,0,0-1.784,1.515l-.3-1.817h-3.656v15.177h4.13v-7.829a4.741,4.741,0,0,1,.924-3.108,2.984,2.984,0,0,1,2.4-1.1,2.6,2.6,0,0,1,2.227.971,4.807,4.807,0,0,1,.732,2.873v8.19h4.13v-7.829a4.741,4.741,0,0,1,.924-3.108,3.016,3.016,0,0,1,2.428-1.1,2.494,2.494,0,0,1,2.181.97,4.885,4.885,0,0,1,.717,2.874v8.19h4.13v-8.551A7.558,7.558,0,0,0,1231.687,295.016Z" transform="translate(-1133.211 -268.682)"/></g><path class="a" d="M120.866,126.916v40.877h22v-.738a18.37,18.37,0,0,1,36.739,0v.738h22V126.916Zm1.485,1.476h26.6c-13.6,3.474-23.1,12.917-26.6,26.442ZM141.4,166.317H122.356c.136-9.952,3.044-18.374,8.18-24.736L145.767,154.7A19.571,19.571,0,0,0,141.4,166.317Zm5.341-12.731L131.491,140.45a35.078,35.078,0,0,1,17.97-10.653l5.476,18.542A19.913,19.913,0,0,0,146.738,153.586Zm19.377-5.668a20.018,20.018,0,0,0-9.755,0l-5.453-18.464a50.752,50.752,0,0,1,20.661,0Zm1.423.421,5.476-18.542a35.078,35.078,0,0,1,17.97,10.653l-15.247,13.136A19.913,19.913,0,0,0,167.538,148.339Zm13.54,17.978a19.571,19.571,0,0,0-4.37-11.614l15.231-13.122c5.137,6.362,8.044,14.784,8.18,24.736Zm19.046-11.483c-3.495-13.525-12.992-22.968-26.6-26.442h26.6Z" transform="translate(0 0)"/></g></svg>