<svg xmlns="http://www.w3.org/2000/svg" width="63" height="61" viewBox="0 0 63 61"><defs><style>.a{fill:#c9a967;}</style></defs><path class="a" d="M30.857,26.964a1.049,1.049,0,0,1-.446-.1L12.6,18.435a1.057,1.057,0,0,1,0-1.907L30.411,8.1a1.043,1.043,0,0,1,.893,0l17.81,8.428a1.057,1.057,0,0,1,0,1.907L31.3,26.864A1.049,1.049,0,0,1,30.857,26.964ZM15.509,17.482l15.349,7.264,15.349-7.264L30.857,10.218Z" transform="translate(0.643 0.428)"/><path class="a" d="M30.7,34.838a1.055,1.055,0,0,1-.471-.111L17.583,28.406A1.055,1.055,0,0,1,17,27.463V19.407a1.054,1.054,0,0,1,1.5-.953L30.7,24.192,42.89,18.453a1.055,1.055,0,0,1,1.5.953v8.057a1.055,1.055,0,0,1-.583.943L31.167,34.727a1.055,1.055,0,0,1-.471.111ZM19.107,26.812,30.7,32.607l11.589-5.795V21.067l-11.14,5.243a1.054,1.054,0,0,1-.9,0l-11.14-5.243Z" transform="translate(0.804 0.937)"/><path class="a" d="M47.964,18.107H30.054a1.054,1.054,0,0,1,0-2.107h17.91a1.054,1.054,0,0,1,0,2.107Z" transform="translate(1.402 0.827)"/><path class="a" d="M47.054,27.589A1.054,1.054,0,0,1,46,26.536V17.054a1.054,1.054,0,1,1,2.107,0v9.482A1.054,1.054,0,0,1,47.054,27.589Z" transform="translate(2.294 0.821)"/><path class="a" d="M30.054,20.321A1.054,1.054,0,0,1,29,19.268V15.054a1.054,1.054,0,1,1,2.107,0v4.214A1.054,1.054,0,0,1,30.054,20.321Z" transform="translate(1.446 0.721)"/><path class="a" d="M45.052,30.268a1.054,1.054,0,0,1-.876-1.638l2.107-3.161a1.054,1.054,0,0,1,1.753,1.169L45.93,29.8A1.053,1.053,0,0,1,45.052,30.268Z" transform="translate(2.189 1.289)"/><path class="a" d="M49.162,30.268a1.053,1.053,0,0,1-.878-.469l-2.107-3.161a1.054,1.054,0,0,1,1.753-1.169l2.107,3.161a1.054,1.054,0,0,1-.876,1.638Z" transform="translate(2.288 1.289)"/><path class="a" d="M30.054,29.268A1.054,1.054,0,0,1,29,28.214V25.054a1.054,1.054,0,1,1,2.107,0v3.161A1.054,1.054,0,0,1,30.054,29.268Z" transform="translate(1.446 1.237)"/><path class="a" d="M61.95,40.035H1.05A1.052,1.052,0,0,1,0,38.982V4.215A4.213,4.213,0,0,1,4.2,0H58.8A4.213,4.213,0,0,1,63,4.215V38.982A1.052,1.052,0,0,1,61.95,40.035ZM2.1,37.928H60.9V4.215a2.106,2.106,0,0,0-2.1-2.108H4.2A2.106,2.106,0,0,0,2.1,4.215Z" transform="translate(0)"/><path class="a" d="M58.8,46.536H4.2A4.213,4.213,0,0,1,0,42.32V37.054A1.052,1.052,0,0,1,1.05,36h60.9A1.052,1.052,0,0,1,63,37.054V42.32A4.213,4.213,0,0,1,58.8,46.536ZM2.1,38.107V42.32a2.106,2.106,0,0,0,2.1,2.108H58.8a2.106,2.106,0,0,0,2.1-2.108V38.107Z" transform="translate(0 1.848)"/><path class="a" d="M33.375,42.107H27.054a1.054,1.054,0,1,1,0-2.107h6.321a1.054,1.054,0,0,1,0,2.107Z" transform="translate(1.286 2.066)"/><path class="a" d="M57.522,39.821H5.049A1.052,1.052,0,0,1,4,38.767V5.054A1.052,1.052,0,0,1,5.049,4H57.522a1.052,1.052,0,0,1,1.049,1.054V38.767A1.052,1.052,0,0,1,57.522,39.821ZM6.1,37.714H56.473V6.107H6.1Z" transform="translate(0.214 0.214)"/><path class="a" d="M44.36,58.321H17.141a3.161,3.161,0,0,1,0-6.321H44.36a3.161,3.161,0,0,1,0,6.321ZM17.141,54.107a1.054,1.054,0,0,0,0,2.107H44.36a1.054,1.054,0,0,0,0-2.107Z" transform="translate(0.75 2.679)"/><path class="a" d="M42.232,54.536H19.054a1.054,1.054,0,0,1,0-2.107c3.5,0,5.268-2.481,5.268-7.375A1.054,1.054,0,0,1,25.375,44H35.91a1.054,1.054,0,0,1,1.054,1.054c0,4.894,1.772,7.375,5.268,7.375a1.054,1.054,0,0,1,0,2.107ZM24.185,52.428H37.1a10.082,10.082,0,0,1-2.215-6.321H26.4A10.088,10.088,0,0,1,24.185,52.428Z" transform="translate(0.857 2.25)"/></svg>