<svg xmlns="http://www.w3.org/2000/svg" width="84.16" height="59.994" viewBox="0 0 84.16 59.994"><defs><style>.a{fill:#c9a967;}</style></defs><g transform="translate(-908.644 -1296)"><path class="a" d="M46.611,36.041a3.118,3.118,0,0,0-2.6-1.249H39.853V30.274A3.161,3.161,0,0,0,36.7,27.116H22.132a2.953,2.953,0,0,1-1.952-.991l-1.09-1.491a5.436,5.436,0,0,0-4.019-2.04H10.025a4.1,4.1,0,0,0-3.71,2.624l-.347.982a1.59,1.59,0,0,1-1.3.917H3.158A3.161,3.161,0,0,0,0,30.274V58.791a1.274,1.274,0,0,0,.076.43A2.882,2.882,0,0,0,.6,60.768a3.118,3.118,0,0,0,2.6,1.249H35.373a5.163,5.163,0,0,0,4.615-3.274L46.93,38.912A3.118,3.118,0,0,0,46.611,36.041ZM3.158,29.677H4.671a4.1,4.1,0,0,0,3.71-2.624l.347-.981a1.59,1.59,0,0,1,1.3-.917h5.046a2.953,2.953,0,0,1,1.952.991l1.09,1.491a5.436,5.436,0,0,0,4.019,2.04H36.7a.605.605,0,0,1,.6.6v4.518H11.835a5.163,5.163,0,0,0-4.615,3.274L2.56,51.378v-21.1A.605.605,0,0,1,3.158,29.677Zm41.356,8.389L37.571,57.9a2.607,2.607,0,0,1-2.2,1.559H3.2a.644.644,0,0,1-.515-.17.644.644,0,0,1,.01-.543L9.638,38.912a2.607,2.607,0,0,1,2.2-1.559H44.008a.458.458,0,0,1,.506.713Z" transform="translate(908.644 1273.406)"/><g transform="translate(955.78 1308.128)"><g transform="translate(0 6.776)"><path class="a" d="M73.446,17.919H56.9V10.985a3.6,3.6,0,0,1,1.237-2.694A4.319,4.319,0,0,1,61.1,7.209a4.008,4.008,0,0,1,4.042,3.856v.572a3.95,3.95,0,0,0,7.87,0v-.652a10.469,10.469,0,0,0-3.558-7.8A12.486,12.486,0,0,0,61.023,0H60.9C54.356.059,49.029,5.043,49.029,11.112v6.807H48.6a3.731,3.731,0,0,0-3.879,3.553V37.537A3.731,3.731,0,0,0,48.6,41.09H73.446a3.731,3.731,0,0,0,3.879-3.553V21.472A3.731,3.731,0,0,0,73.446,17.919ZM51.278,11.112c0-4.944,4.328-9,9.648-9.052h.1a10.146,10.146,0,0,1,6.852,2.586,8.506,8.506,0,0,1,2.891,6.339v.652a1.693,1.693,0,0,1-3.373,0v-.572A6.175,6.175,0,0,0,61.144,5.15a6.637,6.637,0,0,0-4.583,1.67,5.563,5.563,0,0,0-1.911,4.164v6.934H51.278Zm23.8,26.425a1.568,1.568,0,0,1-1.63,1.493H48.6a1.568,1.568,0,0,1-1.63-1.493V21.472a1.568,1.568,0,0,1,1.63-1.493H73.446a1.568,1.568,0,0,1,1.63,1.493V37.537Z" transform="translate(-44.719)"/><path class="a" d="M178.49,274.179a4.83,4.83,0,0,0-5.022,4.6,4.445,4.445,0,0,0,1.649,3.406v5.965a1.08,1.08,0,0,0,1.124,1.03h4.5a1.08,1.08,0,0,0,1.124-1.03v-5.965a4.445,4.445,0,0,0,1.649-3.406A4.83,4.83,0,0,0,178.49,274.179Zm1.6,6.674a1.007,1.007,0,0,0-.475.841v5.426h-2.249v-5.426a1.007,1.007,0,0,0-.475-.841,2.49,2.49,0,0,1-1.174-2.075,2.784,2.784,0,0,1,5.547,0A2.49,2.49,0,0,1,180.089,280.853Z" transform="translate(-162.187 -252.175)"/><path class="a" d="M402.4,190.952l-3.927-2.077a1.182,1.182,0,0,0-1.536.377.984.984,0,0,0,.412,1.407l3.927,2.077a1.2,1.2,0,0,0,.561.138,1.147,1.147,0,0,0,.975-.515A.984.984,0,0,0,402.4,190.952Z" transform="translate(-365.942 -173.59)"/><path class="a" d="M397.914,115.666a1.2,1.2,0,0,0,.561-.138l3.927-2.077a.984.984,0,0,0,.412-1.407,1.182,1.182,0,0,0-1.536-.377l-3.927,2.077a.984.984,0,0,0-.412,1.407A1.147,1.147,0,0,0,397.914,115.666Z" transform="translate(-365.941 -102.578)"/></g></g></g></svg>