<svg xmlns="http://www.w3.org/2000/svg" width="62" height="62" viewBox="0 0 62 62"><defs><style>.a{fill:#c9a967;}</style></defs><g transform="translate(53.733 12.4)"><path class="a" d="M447.867,102.4A4.133,4.133,0,1,0,452,106.533,4.137,4.137,0,0,0,447.867,102.4Zm0,6.2a2.067,2.067,0,1,1,2.067-2.067A2.069,2.069,0,0,1,447.867,108.6Z" transform="translate(-443.734 -102.4)"/></g><g transform="translate(0 46.5)"><path class="a" d="M4.133,384a4.133,4.133,0,1,0,4.133,4.133A4.138,4.138,0,0,0,4.133,384Zm0,6.2A2.067,2.067,0,1,1,6.2,388.133,2.069,2.069,0,0,1,4.133,390.2Z" transform="translate(0 -384)"/></g><g transform="translate(45.466 9.299)"><path class="a" d="M385.86,81.2l-8.915-4.3a1.033,1.033,0,1,0-.9,1.861l8.915,4.3a1.031,1.031,0,0,0,1.379-.482A1.034,1.034,0,0,0,385.86,81.2Z" transform="translate(-375.463 -76.792)"/></g><g transform="translate(42.367 53.733)"><path class="a" d="M354,443.733a4.133,4.133,0,1,0,4.133,4.133A4.137,4.137,0,0,0,354,443.733Zm0,6.2a2.067,2.067,0,1,1,2.067-2.067A2.069,2.069,0,0,1,354,449.933Z" transform="translate(-349.867 -443.733)"/></g><g transform="translate(34.099 50.632)"><path class="a" d="M291.993,422.532l-8.915-4.3a1.033,1.033,0,0,0-.9,1.861l8.915,4.3a1.031,1.031,0,0,0,1.379-.482A1.034,1.034,0,0,0,291.993,422.532Z" transform="translate(-281.596 -418.124)"/></g><g transform="translate(26.867 27.9)"><path class="a" d="M226,230.4a4.133,4.133,0,1,0,4.133,4.133A4.137,4.137,0,0,0,226,230.4Zm0,6.2a2.067,2.067,0,1,1,2.067-2.067A2.069,2.069,0,0,1,226,236.6Z" transform="translate(-221.867 -230.4)"/></g><g transform="translate(20.666 23.767)"><path class="a" d="M179.181,201.826l-6.848-5.337a1.034,1.034,0,0,0-1.271,1.631l6.848,5.337a1.034,1.034,0,1,0,1.271-1.631Z" transform="translate(-170.664 -196.272)"/></g><g transform="translate(38.233 26.867)"><path class="a" d="M327.1,221.867a11.367,11.367,0,1,0,11.367,11.367A11.38,11.38,0,0,0,327.1,221.867Zm0,20.667a9.3,9.3,0,1,1,9.3-9.3A9.31,9.31,0,0,1,327.1,242.534Z" transform="translate(-315.733 -221.867)"/></g><g transform="translate(45.467 31)"><path class="a" d="M379.6,256a4.133,4.133,0,1,0,4.133,4.133A4.137,4.137,0,0,0,379.6,256Zm0,6.2a2.067,2.067,0,1,1,2.067-2.067A2.069,2.069,0,0,1,379.6,262.2Z" transform="translate(-375.467 -256)"/></g><g transform="translate(43.4 41.333)"><path class="a" d="M367.6,341.333h-6a3.164,3.164,0,0,0-3.2,3.116v2.724a1.034,1.034,0,0,0,.516.895,11.31,11.31,0,0,0,11.369,0,1.033,1.033,0,0,0,.516-.894V344.45A3.164,3.164,0,0,0,367.6,341.333Zm1.136,5.224a9.37,9.37,0,0,1-8.267,0V344.45a1.1,1.1,0,0,1,1.135-1.05h6a1.1,1.1,0,0,1,1.136,1.05v2.107Z" transform="translate(-358.4 -341.333)"/></g><g transform="translate(13.433 39.267)"><path class="a" d="M122.3,324.267a11.367,11.367,0,1,0,11.367,11.367A11.38,11.38,0,0,0,122.3,324.267Zm0,20.667a9.3,9.3,0,1,1,9.3-9.3A9.31,9.31,0,0,1,122.3,344.934Z" transform="translate(-110.933 -324.267)"/></g><g transform="translate(20.667 43.4)"><path class="a" d="M174.8,358.4a4.133,4.133,0,1,0,4.133,4.133A4.137,4.137,0,0,0,174.8,358.4Zm0,6.2a2.067,2.067,0,1,1,2.067-2.067A2.069,2.069,0,0,1,174.8,364.6Z" transform="translate(-170.667 -358.4)"/></g><g transform="translate(18.6 53.733)"><path class="a" d="M162.8,443.733h-6a3.164,3.164,0,0,0-3.2,3.115v2.724a1.034,1.034,0,0,0,.516.895,11.31,11.31,0,0,0,11.369,0,1.032,1.032,0,0,0,.516-.894V446.85A3.164,3.164,0,0,0,162.8,443.733Zm1.136,5.223a9.37,9.37,0,0,1-8.267,0V446.85a1.1,1.1,0,0,1,1.136-1.05h6a1.1,1.1,0,0,1,1.136,1.05v2.107Z" transform="translate(-153.6 -443.733)"/></g><g transform="translate(0 13.433)"><path class="a" d="M11.367,110.933A11.367,11.367,0,1,0,22.733,122.3,11.38,11.38,0,0,0,11.367,110.933Zm0,20.667a9.3,9.3,0,1,1,9.3-9.3A9.31,9.31,0,0,1,11.367,131.6Z" transform="translate(0 -110.933)"/></g><g transform="translate(7.233 17.567)"><path class="a" d="M63.867,145.067A4.133,4.133,0,1,0,68,149.2,4.137,4.137,0,0,0,63.867,145.067Zm0,6.2a2.067,2.067,0,1,1,2.067-2.067A2.069,2.069,0,0,1,63.867,151.267Z" transform="translate(-59.734 -145.067)"/></g><g transform="translate(5.167 27.9)"><path class="a" d="M51.865,230.4h-6a3.164,3.164,0,0,0-3.2,3.116v2.724a1.034,1.034,0,0,0,.516.895,11.309,11.309,0,0,0,11.369,0,1.032,1.032,0,0,0,.516-.894v-2.724A3.164,3.164,0,0,0,51.865,230.4ZM53,235.624a9.37,9.37,0,0,1-8.267,0v-2.107a1.1,1.1,0,0,1,1.136-1.05h6A1.1,1.1,0,0,1,53,233.517v2.107Z" transform="translate(-42.667 -230.4)"/></g><g transform="translate(24.8)"><path class="a" d="M216.167,0a11.367,11.367,0,1,0,11.367,11.367A11.38,11.38,0,0,0,216.167,0Zm0,20.667a9.3,9.3,0,1,1,9.3-9.3A9.31,9.31,0,0,1,216.167,20.667Z" transform="translate(-204.8)"/></g><g transform="translate(32.033 4.133)"><path class="a" d="M268.667,34.133a4.133,4.133,0,1,0,4.133,4.133A4.137,4.137,0,0,0,268.667,34.133Zm0,6.2a2.067,2.067,0,1,1,2.067-2.067A2.069,2.069,0,0,1,268.667,40.333Z" transform="translate(-264.534 -34.133)"/></g><g transform="translate(29.967 14.467)"><path class="a" d="M256.665,119.467h-6a3.164,3.164,0,0,0-3.2,3.116v2.724a1.034,1.034,0,0,0,.516.895,11.309,11.309,0,0,0,11.369,0,1.032,1.032,0,0,0,.516-.894v-2.724A3.164,3.164,0,0,0,256.665,119.467Zm1.136,5.223a9.37,9.37,0,0,1-8.267,0v-2.107a1.1,1.1,0,0,1,1.136-1.05h6a1.1,1.1,0,0,1,1.136,1.05v2.107Z" transform="translate(-247.467 -119.467)"/></g><g transform="translate(17.64 10.333)"><path class="a" d="M154.651,85.694a1.035,1.035,0,0,0-1.457-.113l-7.161,6.128a1.033,1.033,0,1,0,1.343,1.57l7.161-6.128A1.033,1.033,0,0,0,154.651,85.694Z" transform="translate(-145.671 -85.333)"/></g><g transform="translate(41.333 18.601)"><path class="a" d="M349.393,162.29l-6.2-8.267a1.033,1.033,0,0,0-1.653,1.239l6.2,8.267a1.033,1.033,0,0,0,1.653-1.239Z" transform="translate(-341.333 -153.61)"/></g><g transform="translate(33.281 41.237)"><path class="a" d="M282.465,340.953a1.034,1.034,0,0,0-1.447-.207l-5.772,4.329a1.033,1.033,0,0,0,1.24,1.652l5.772-4.329A1.032,1.032,0,0,0,282.465,340.953Z" transform="translate(-274.833 -340.54)"/></g><g transform="translate(6.2 49.6)"><path class="a" d="M59.467,409.6H52.233a1.033,1.033,0,0,0,0,2.067h7.233a1.033,1.033,0,0,0,0-2.067Z" transform="translate(-51.2 -409.6)"/></g><g transform="translate(7.233)"><path class="a" d="M63.866,0A4.133,4.133,0,1,0,68,4.133,4.138,4.138,0,0,0,63.866,0Zm0,6.2a2.067,2.067,0,1,1,2.067-2.067A2.069,2.069,0,0,1,63.866,6.2Z" transform="translate(-59.733)"/></g><g transform="translate(10.333 6.2)"><path class="a" d="M86.367,51.2a1.033,1.033,0,0,0-1.033,1.033v7.233a1.033,1.033,0,1,0,2.067,0V52.233A1.033,1.033,0,0,0,86.367,51.2Z" transform="translate(-85.334 -51.2)"/></g></svg>