<svg xmlns="http://www.w3.org/2000/svg" width="19.858" height="19.627" viewBox="0 0 19.858 19.627"><defs><style>.a{fill:#c9c9c9;}</style></defs><path class="a" d="M9.929,19.627a9.923,9.923,0,0,1-7.02-2.874,9.733,9.733,0,0,1,0-13.879,10.011,10.011,0,0,1,14.041,0,9.733,9.733,0,0,1,0,13.879A9.923,9.923,0,0,1,9.929,19.627ZM10,5.83a35.679,35.679,0,0,0-4.632.247A1.477,1.477,0,0,0,4.319,7.12,15.3,15.3,0,0,0,4.07,9.958,15.317,15.317,0,0,0,4.319,12.8a1.477,1.477,0,0,0,1.047,1.042A35.679,35.679,0,0,0,10,14.086a35.679,35.679,0,0,0,4.632-.247A1.478,1.478,0,0,0,15.678,12.8a15.317,15.317,0,0,0,.248-2.839,15.3,15.3,0,0,0-.248-2.838,1.477,1.477,0,0,0-1.047-1.043A35.679,35.679,0,0,0,10,5.83ZM8.786,11.7h0V8.216l3.1,1.742L8.787,11.7Z"/></svg>