<svg xmlns="http://www.w3.org/2000/svg" width="28" height="28" viewBox="0 0 28 28"><defs><style>.a{fill:#c9a967;}.b{fill:#f8f8f8;}</style></defs><g transform="translate(-912 -856)"><circle class="a" cx="14" cy="14" r="14" transform="translate(912 856)"/><path class="b" d="M-128.632-267.161a2.1,2.1,0,0,0-1.478-1.488,49.638,49.638,0,0,0-6.532-.352,49.638,49.638,0,0,0-6.532.352,2.1,2.1,0,0,0-1.478,1.488,22.032,22.032,0,0,0-.349,4.05,22.032,22.032,0,0,0,.349,4.05,2.1,2.1,0,0,0,1.478,1.488,49.638,49.638,0,0,0,6.532.352,49.638,49.638,0,0,0,6.532-.352,2.1,2.1,0,0,0,1.478-1.488,22.033,22.033,0,0,0,.349-4.05A22.033,22.033,0,0,0-128.632-267.161Zm-9.719,6.536V-265.6l4.369,2.486Z" transform="translate(1062.739 1133.317)"/></g></svg>