<svg width="595" height="364" viewBox="0 0 595 364" fill="none" xmlns="http://www.w3.org/2000/svg">
<path d="M141.177 46.8525H107.285V74.5674H146.655V83H96.9727V4.79688H146.118V13.2832H107.285V38.4199H141.177V46.8525ZM191.772 67.585C191.772 64.8994 190.752 62.8226 188.711 61.3545C186.706 59.8506 183.179 58.5615 178.13 57.4873C173.117 56.4131 169.124 55.124 166.152 53.6201C163.216 52.1162 161.032 50.3258 159.6 48.249C158.203 46.1722 157.505 43.7015 157.505 40.8369C157.505 36.0745 159.51 32.0462 163.521 28.752C167.567 25.4577 172.723 23.8105 178.989 23.8105C185.578 23.8105 190.913 25.5114 194.995 28.9131C199.113 32.3148 201.172 36.6654 201.172 41.9648H191.182C191.182 39.2435 190.018 36.8981 187.69 34.9287C185.399 32.9593 182.498 31.9746 178.989 31.9746C175.373 31.9746 172.544 32.7624 170.503 34.3379C168.462 35.9134 167.441 37.9723 167.441 40.5146C167.441 42.9137 168.39 44.722 170.288 45.9395C172.186 47.1569 175.605 48.3206 180.547 49.4307C185.524 50.5407 189.552 51.8656 192.632 53.4053C195.711 54.945 197.985 56.807 199.453 58.9912C200.957 61.1396 201.709 63.7715 201.709 66.8867C201.709 72.0788 199.632 76.2503 195.479 79.4014C191.325 82.5166 185.936 84.0742 179.312 84.0742C174.657 84.0742 170.539 83.2507 166.958 81.6035C163.377 79.9564 160.566 77.6647 158.525 74.7285C156.52 71.7565 155.518 68.5518 155.518 65.1143H165.454C165.633 68.4443 166.958 71.0941 169.429 73.0635C171.935 74.9971 175.229 75.9639 179.312 75.9639C183.071 75.9639 186.079 75.2119 188.335 73.708C190.627 72.1683 191.772 70.1273 191.772 67.585ZM228.135 10.8125V24.8848H238.984V32.5654H228.135V68.6055C228.135 70.9329 228.618 72.6875 229.585 73.8691C230.552 75.015 232.199 75.5879 234.526 75.5879C235.672 75.5879 237.248 75.373 239.253 74.9434V83C236.639 83.7161 234.097 84.0742 231.626 84.0742C227.186 84.0742 223.838 82.7314 221.582 80.0459C219.326 77.3604 218.198 73.5469 218.198 68.6055V32.5654H207.617V24.8848H218.198V10.8125H228.135ZM286.519 77.2529C282.651 81.8005 276.976 84.0742 269.492 84.0742C263.298 84.0742 258.571 82.2839 255.312 78.7031C252.09 75.0866 250.461 69.7513 250.425 62.6973V24.8848H260.361V62.4287C260.361 71.2373 263.942 75.6416 271.104 75.6416C278.695 75.6416 283.743 72.8128 286.25 67.1553V24.8848H296.187V83H286.733L286.519 77.2529ZM308.916 53.459C308.916 44.543 311.029 37.3815 315.254 31.9746C319.479 26.5319 325.011 23.8105 331.851 23.8105C338.654 23.8105 344.043 26.138 348.018 30.793V0.5H357.954V83H348.823L348.34 76.7695C344.365 81.6393 338.833 84.0742 331.743 84.0742C325.011 84.0742 319.515 81.3171 315.254 75.8027C311.029 70.2884 308.916 63.0911 308.916 54.2109V53.459ZM318.853 54.5869C318.853 61.1755 320.213 66.3317 322.935 70.0557C325.656 73.7796 329.416 75.6416 334.214 75.6416C340.516 75.6416 345.117 72.8128 348.018 67.1553V40.4609C345.046 34.9824 340.48 32.2432 334.321 32.2432C329.451 32.2432 325.656 34.123 322.935 37.8828C320.213 41.6426 318.853 47.2106 318.853 54.5869ZM384.219 83H374.282V24.8848H384.219V83ZM373.477 9.46973C373.477 7.8584 373.96 6.49772 374.927 5.3877C375.929 4.27767 377.397 3.72266 379.331 3.72266C381.265 3.72266 382.733 4.27767 383.735 5.3877C384.738 6.49772 385.239 7.8584 385.239 9.46973C385.239 11.0811 384.738 12.4238 383.735 13.498C382.733 14.5723 381.265 15.1094 379.331 15.1094C377.397 15.1094 375.929 14.5723 374.927 13.498C373.96 12.4238 373.477 11.0811 373.477 9.46973ZM397.539 53.4053C397.539 47.7119 398.649 42.5915 400.869 38.0439C403.125 33.4964 406.24 29.9873 410.215 27.5166C414.225 25.0459 418.791 23.8105 423.911 23.8105C431.825 23.8105 438.216 26.5498 443.086 32.0283C447.992 37.5068 450.444 44.7936 450.444 53.8887V54.5869C450.444 60.2445 449.352 65.3291 447.168 69.8408C445.02 74.3167 441.922 77.8079 437.876 80.3145C433.866 82.821 429.246 84.0742 424.019 84.0742C416.141 84.0742 409.749 81.335 404.844 75.8564C399.974 70.3779 397.539 63.127 397.539 54.1035V53.4053ZM407.529 54.5869C407.529 61.0322 409.015 66.2064 411.987 70.1094C414.995 74.0124 419.006 75.9639 424.019 75.9639C429.067 75.9639 433.078 73.9945 436.05 70.0557C439.022 66.0811 440.508 60.5309 440.508 53.4053C440.508 47.0316 438.986 41.8753 435.942 37.9365C432.935 33.9619 428.924 31.9746 423.911 31.9746C419.006 31.9746 415.049 33.9261 412.041 37.8291C409.033 41.7321 407.529 47.318 407.529 54.5869ZM496.743 67.585C496.743 64.8994 495.723 62.8226 493.682 61.3545C491.676 59.8506 488.149 58.5615 483.101 57.4873C478.088 56.4131 474.095 55.124 471.123 53.6201C468.187 52.1162 466.003 50.3258 464.57 48.249C463.174 46.1722 462.476 43.7015 462.476 40.8369C462.476 36.0745 464.481 32.0462 468.491 28.752C472.537 25.4577 477.694 23.8105 483.96 23.8105C490.549 23.8105 495.884 25.5114 499.966 28.9131C504.084 32.3148 506.143 36.6654 506.143 41.9648H496.152C496.152 39.2435 494.989 36.8981 492.661 34.9287C490.369 32.9593 487.469 31.9746 483.96 31.9746C480.343 31.9746 477.515 32.7624 475.474 34.3379C473.433 35.9134 472.412 37.9723 472.412 40.5146C472.412 42.9137 473.361 44.722 475.259 45.9395C477.157 47.1569 480.576 48.3206 485.518 49.4307C490.495 50.5407 494.523 51.8656 497.603 53.4053C500.682 54.945 502.956 56.807 504.424 58.9912C505.928 61.1396 506.68 63.7715 506.68 66.8867C506.68 72.0788 504.603 76.2503 500.449 79.4014C496.296 82.5166 490.907 84.0742 484.282 84.0742C479.627 84.0742 475.509 83.2507 471.929 81.6035C468.348 79.9564 465.537 77.6647 463.496 74.7285C461.491 71.7565 460.488 68.5518 460.488 65.1143H470.425C470.604 68.4443 471.929 71.0941 474.399 73.0635C476.906 74.9971 480.2 75.9639 484.282 75.9639C488.042 75.9639 491.05 75.2119 493.306 73.708C495.597 72.1683 496.743 70.1273 496.743 67.585ZM258.535 182.459C258.535 173.543 260.648 166.382 264.873 160.975C269.098 155.532 274.631 152.811 281.47 152.811C288.273 152.811 293.662 155.138 297.637 159.793V129.5H307.573V212H298.442L297.959 205.77C293.984 210.639 288.452 213.074 281.362 213.074C274.631 213.074 269.134 210.317 264.873 204.803C260.648 199.288 258.535 192.091 258.535 183.211V182.459ZM268.472 183.587C268.472 190.175 269.832 195.332 272.554 199.056C275.275 202.78 279.035 204.642 283.833 204.642C290.135 204.642 294.736 201.813 297.637 196.155V169.461C294.665 163.982 290.099 161.243 283.94 161.243C279.071 161.243 275.275 163.123 272.554 166.883C269.832 170.643 268.472 176.211 268.472 183.587ZM347.158 213.074C339.281 213.074 332.871 210.496 327.93 205.34C322.988 200.148 320.518 193.219 320.518 184.554V182.728C320.518 176.963 321.61 171.824 323.794 167.312C326.014 162.765 329.093 159.22 333.032 156.678C337.007 154.1 341.304 152.811 345.923 152.811C353.478 152.811 359.351 155.299 363.54 160.276C367.729 165.254 369.824 172.379 369.824 181.653V185.789H330.454C330.597 191.518 332.262 196.155 335.449 199.7C338.672 203.209 342.754 204.964 347.695 204.964C351.204 204.964 354.176 204.248 356.611 202.815C359.046 201.383 361.177 199.485 363.003 197.122L369.072 201.849C364.202 209.332 356.898 213.074 347.158 213.074ZM345.923 160.975C341.912 160.975 338.547 162.443 335.825 165.379C333.104 168.279 331.421 172.361 330.776 177.625H359.888V176.873C359.601 171.824 358.241 167.921 355.806 165.164C353.371 162.371 350.076 160.975 345.923 160.975ZM51.5332 320.59H18.7695L11.4111 341H0.776367L30.6396 262.797H39.6631L69.5801 341H58.999L51.5332 320.59ZM21.8848 312.104H48.4717L35.1514 275.526L21.8848 312.104ZM106.641 291.801C105.137 291.55 103.507 291.425 101.753 291.425C95.236 291.425 90.8138 294.2 88.4863 299.75V341H78.5498V282.885H88.2178L88.3789 289.599C91.6374 284.407 96.2565 281.811 102.236 281.811C104.17 281.811 105.638 282.061 106.641 282.562V291.801ZM112.334 311.459C112.334 302.328 114.429 295.113 118.618 289.813C122.808 284.478 128.429 281.811 135.483 281.811C142.358 281.811 147.783 284.12 151.758 288.739L152.188 282.885H161.318V363.344H151.382V335.629C147.371 339.926 142.036 342.074 135.376 342.074C128.358 342.074 122.754 339.353 118.564 333.91C114.411 328.432 112.334 321.181 112.334 312.157V311.459ZM122.271 312.587C122.271 319.247 123.667 324.475 126.46 328.271C129.289 332.066 133.084 333.964 137.847 333.964C143.755 333.964 148.267 331.35 151.382 326.122V297.655C148.231 292.535 143.755 289.975 137.954 289.975C133.156 289.975 129.342 291.89 126.514 295.722C123.685 299.517 122.271 305.139 122.271 312.587ZM213.149 335.253C209.282 339.8 203.607 342.074 196.123 342.074C189.928 342.074 185.202 340.284 181.943 336.703C178.721 333.087 177.091 327.751 177.056 320.697V282.885H186.992V320.429C186.992 329.237 190.573 333.642 197.734 333.642C205.326 333.642 210.374 330.813 212.881 325.155V282.885H222.817V341H213.364L213.149 335.253ZM248.76 341H238.823V282.885H248.76V341ZM238.018 267.47C238.018 265.858 238.501 264.498 239.468 263.388C240.47 262.278 241.938 261.723 243.872 261.723C245.806 261.723 247.274 262.278 248.276 263.388C249.279 264.498 249.78 265.858 249.78 267.47C249.78 269.081 249.279 270.424 248.276 271.498C247.274 272.572 245.806 273.109 243.872 273.109C241.938 273.109 240.47 272.572 239.468 271.498C238.501 270.424 238.018 269.081 238.018 267.47ZM278.193 268.812V282.885H289.043V290.565H278.193V326.605C278.193 328.933 278.677 330.688 279.644 331.869C280.61 333.015 282.257 333.588 284.585 333.588C285.731 333.588 287.306 333.373 289.312 332.943V341C286.698 341.716 284.155 342.074 281.685 342.074C277.244 342.074 273.896 340.731 271.641 338.046C269.385 335.36 268.257 331.547 268.257 326.605V290.565H257.676V282.885H268.257V268.812H278.193ZM324.814 342.074C316.937 342.074 310.527 339.496 305.586 334.34C300.645 329.148 298.174 322.219 298.174 313.554V311.728C298.174 305.963 299.266 300.824 301.45 296.312C303.67 291.765 306.75 288.22 310.688 285.678C314.663 283.1 318.96 281.811 323.579 281.811C331.134 281.811 337.007 284.299 341.196 289.276C345.386 294.254 347.48 301.379 347.48 310.653V314.789H308.11C308.254 320.518 309.919 325.155 313.105 328.7C316.328 332.209 320.41 333.964 325.352 333.964C328.861 333.964 331.833 333.248 334.268 331.815C336.702 330.383 338.833 328.485 340.659 326.122L346.729 330.849C341.859 338.332 334.554 342.074 324.814 342.074ZM323.579 289.975C319.569 289.975 316.203 291.443 313.481 294.379C310.76 297.279 309.077 301.361 308.433 306.625H337.544V305.873C337.257 300.824 335.897 296.921 333.462 294.164C331.027 291.371 327.733 289.975 323.579 289.975ZM382.339 333.964C385.884 333.964 388.981 332.89 391.631 330.741C394.281 328.593 395.749 325.907 396.035 322.685H405.435C405.256 326.015 404.11 329.184 401.997 332.191C399.884 335.199 397.056 337.598 393.511 339.389C390.002 341.179 386.278 342.074 382.339 342.074C374.425 342.074 368.123 339.442 363.433 334.179C358.778 328.879 356.45 321.646 356.45 312.479V310.814C356.45 305.157 357.489 300.126 359.565 295.722C361.642 291.317 364.614 287.898 368.481 285.463C372.384 283.028 376.986 281.811 382.285 281.811C388.802 281.811 394.209 283.762 398.506 287.665C402.839 291.568 405.148 296.635 405.435 302.865H396.035C395.749 299.105 394.316 296.026 391.738 293.627C389.196 291.192 386.045 289.975 382.285 289.975C377.236 289.975 373.315 291.801 370.522 295.453C367.765 299.07 366.387 304.315 366.387 311.19V313.07C366.387 319.766 367.765 324.923 370.522 328.539C373.28 332.156 377.218 333.964 382.339 333.964ZM430.088 268.812V282.885H440.938V290.565H430.088V326.605C430.088 328.933 430.571 330.688 431.538 331.869C432.505 333.015 434.152 333.588 436.479 333.588C437.625 333.588 439.201 333.373 441.206 332.943V341C438.592 341.716 436.05 342.074 433.579 342.074C429.139 342.074 425.791 340.731 423.535 338.046C421.279 335.36 420.151 331.547 420.151 326.605V290.565H409.57V282.885H420.151V268.812H430.088ZM488.472 335.253C484.604 339.8 478.929 342.074 471.445 342.074C465.251 342.074 460.524 340.284 457.266 336.703C454.043 333.087 452.414 327.751 452.378 320.697V282.885H462.314V320.429C462.314 329.237 465.895 333.642 473.057 333.642C480.648 333.642 485.697 330.813 488.203 325.155V282.885H498.14V341H488.687L488.472 335.253ZM541.377 291.801C539.873 291.55 538.244 291.425 536.489 291.425C529.972 291.425 525.55 294.2 523.223 299.75V341H513.286V282.885H522.954L523.115 289.599C526.374 284.407 530.993 281.811 536.973 281.811C538.906 281.811 540.374 282.061 541.377 282.562V291.801ZM584.292 341C583.719 339.854 583.254 337.813 582.896 334.877C578.276 339.675 572.762 342.074 566.353 342.074C560.623 342.074 555.915 340.463 552.227 337.24C548.574 333.982 546.748 329.864 546.748 324.887C546.748 318.835 549.04 314.145 553.623 310.814C558.242 307.449 564.723 305.766 573.066 305.766H582.734V301.2C582.734 297.727 581.696 294.97 579.619 292.929C577.542 290.852 574.481 289.813 570.435 289.813C566.89 289.813 563.918 290.709 561.519 292.499C559.119 294.289 557.92 296.456 557.92 298.998H547.93C547.93 296.098 548.95 293.305 550.991 290.619C553.068 287.898 555.861 285.749 559.37 284.174C562.915 282.598 566.8 281.811 571.025 281.811C577.721 281.811 582.967 283.493 586.763 286.859C590.558 290.189 592.528 294.791 592.671 300.663V327.411C592.671 332.746 593.351 336.99 594.712 340.141V341H584.292ZM567.803 333.427C570.918 333.427 573.872 332.621 576.665 331.01C579.458 329.398 581.481 327.304 582.734 324.726V312.802H574.946C562.772 312.802 556.685 316.365 556.685 323.49C556.685 326.605 557.723 329.04 559.8 330.795C561.877 332.549 564.544 333.427 567.803 333.427Z" fill="#C9A967"/>
</svg>
