<svg xmlns="http://www.w3.org/2000/svg" xmlns:xlink="http://www.w3.org/1999/xlink" width="464" height="390" viewBox="0 0 464 390"><defs><style>.a{fill:#fff;}.b{clip-path:url(#a);}.c{fill:#7c7c7c;}.d{fill:#f16550;}.e{fill:#34445b;}</style><clipPath id="a"><rect class="a" width="464" height="390"/></clipPath></defs><g transform="translate(-340 -1704)"><g class="b" transform="translate(340 1704)"><g transform="translate(0 14.698)"><g transform="translate(140.362 190.587)"><path class="c" d="M141.177,208.1V185.557h6.9c3.965,0,6.9,1.032,8.8,3.042s2.825,4.78,2.825,8.311c0,3.476-.923,6.192-2.825,8.2s-4.78,2.988-8.8,2.988Zm2.716-2.227h4.128a10.947,10.947,0,0,0,5.215-1.086,5.933,5.933,0,0,0,2.77-3.1,12.761,12.761,0,0,0,.815-4.78,13.157,13.157,0,0,0-.815-4.889,5.934,5.934,0,0,0-2.77-3.1,10.947,10.947,0,0,0-5.215-1.086h-4.128Z" transform="translate(-140.362 -184.905)"/><path class="c" d="M163.5,188.6a1.856,1.856,0,0,1-1.9-1.9,1.766,1.766,0,0,1,.543-1.3,1.986,1.986,0,0,1,1.358-.489,1.85,1.85,0,0,1,1.3.489,1.61,1.61,0,0,1,.543,1.3,1.8,1.8,0,0,1-.543,1.358A1.765,1.765,0,0,1,163.5,188.6Zm-1.358,19.5v-15.97h2.716V208.1Z" transform="translate(-140.362 -184.905)"/><path class="c" d="M167.9,215.215V192.184h2.444l.272,2.662a7.62,7.62,0,0,1,2.227-2.118,6.823,6.823,0,0,1,3.639-.923,7.791,7.791,0,0,1,4.128,1.086,7.352,7.352,0,0,1,2.77,2.988,9.906,9.906,0,0,1,0,8.583,7.71,7.71,0,0,1-2.77,2.988,8.128,8.128,0,0,1-4.183,1.086,7.147,7.147,0,0,1-3.476-.815,6.144,6.144,0,0,1-2.336-2.227v9.778H167.9Zm8.257-9.071a5.352,5.352,0,0,0,2.825-.76,5.283,5.283,0,0,0,1.956-2.118,7.381,7.381,0,0,0,0-6.3,5.283,5.283,0,0,0-1.956-2.118,5.626,5.626,0,0,0-5.649,0,5.283,5.283,0,0,0-1.956,2.118,7.381,7.381,0,0,0,0,6.3,5.283,5.283,0,0,0,1.956,2.118A4.9,4.9,0,0,0,176.159,206.144Z" transform="translate(-140.362 -184.905)"/><path class="c" d="M186.534,208.1V184.9h2.716V208.1Z" transform="translate(-140.362 -184.905)"/><path class="c" d="M199.354,208.534a7.839,7.839,0,0,1-4.074-1.032,7.341,7.341,0,0,1-2.825-2.933,8.856,8.856,0,0,1-1.032-4.454,9.164,9.164,0,0,1,1.086-4.454,8.226,8.226,0,0,1,11.027-2.933,7.341,7.341,0,0,1,2.825,2.933,8.856,8.856,0,0,1,1.032,4.454,9.164,9.164,0,0,1-1.086,4.454,7.856,7.856,0,0,1-2.879,2.933A8.4,8.4,0,0,1,199.354,208.534Zm0-2.336a5.1,5.1,0,0,0,2.553-.652,5.354,5.354,0,0,0,1.956-2.01,6.316,6.316,0,0,0,.76-3.368,7.173,7.173,0,0,0-.706-3.368,4.875,4.875,0,0,0-1.9-2.01,5.251,5.251,0,0,0-2.553-.652,5.1,5.1,0,0,0-2.553.652,5.354,5.354,0,0,0-1.956,2.01,7.838,7.838,0,0,0,0,6.736,4.856,4.856,0,0,0,4.4,2.662Z" transform="translate(-140.362 -184.905)"/><path class="c" d="M209.512,208.1v-15.97h2.444l.217,2.336a5.247,5.247,0,0,1,2.064-2.01,5.8,5.8,0,0,1,2.879-.706,6.876,6.876,0,0,1,3.259.76,4.952,4.952,0,0,1,2.118,2.336,5.761,5.761,0,0,1,2.281-2.281,6.335,6.335,0,0,1,3.151-.815,6.184,6.184,0,0,1,4.563,1.738c1.141,1.141,1.684,2.933,1.684,5.323v9.343h-2.662v-9.071a6.163,6.163,0,0,0-.978-3.748,3.508,3.508,0,0,0-2.879-1.249,3.959,3.959,0,0,0-3.2,1.521A6.325,6.325,0,0,0,223.2,199.9v8.257h-2.716v-9.071a6.163,6.163,0,0,0-.978-3.748,3.508,3.508,0,0,0-2.879-1.249,3.857,3.857,0,0,0-3.151,1.521,6.325,6.325,0,0,0-1.249,4.291v8.257h-2.716Z" transform="translate(-140.362 -184.905)"/><path class="c" d="M242.049,208.534a7.343,7.343,0,0,1-3.314-.652,4.49,4.49,0,0,1-1.956-1.793,4.847,4.847,0,0,1-.652-2.444,4.266,4.266,0,0,1,1.847-3.748,8.771,8.771,0,0,1,5.106-1.3h4.291v-.217a4.255,4.255,0,0,0-1.086-3.151,3.979,3.979,0,0,0-2.933-1.086,4.588,4.588,0,0,0-2.716.815,3.4,3.4,0,0,0-1.412,2.281h-2.77a5.07,5.07,0,0,1,1.2-2.933,5.756,5.756,0,0,1,2.553-1.793,9.117,9.117,0,0,1,3.2-.652,6.664,6.664,0,0,1,5.052,1.793,6.544,6.544,0,0,1,1.684,4.726v9.832H247.7l-.163-2.879a5.653,5.653,0,0,1-1.956,2.281A6.3,6.3,0,0,1,242.049,208.534Zm.435-2.336a4.422,4.422,0,0,0,2.662-.815,4.972,4.972,0,0,0,1.684-2.118,6.6,6.6,0,0,0,.6-2.716v-.054h-4.074a5.369,5.369,0,0,0-3.368.815,2.6,2.6,0,0,0-.978,2.064,2.528,2.528,0,0,0,.923,2.01A3.3,3.3,0,0,0,242.484,206.2Z" transform="translate(-140.362 -184.905)"/><path class="c" d="M258.4,208.1a5.067,5.067,0,0,1-3.422-1.086c-.815-.706-1.249-2.01-1.249-3.857v-8.8h-2.77v-2.281h2.77l.38-3.857h2.336v3.857h4.726v2.281h-4.78v8.8a2.833,2.833,0,0,0,.6,2.064,3.269,3.269,0,0,0,2.173.543h1.684V208.1H258.4Z" transform="translate(-140.362 -184.905)"/><path class="c" d="M268.775,208.534a6.056,6.056,0,0,1-4.509-1.738c-1.141-1.141-1.684-2.933-1.684-5.323v-9.343H265.3V201.2c0,3.314,1.358,5,4.074,5a4.419,4.419,0,0,0,3.476-1.521,6.078,6.078,0,0,0,1.358-4.291v-8.257h2.716V208.1h-2.444l-.217-2.879a5.563,5.563,0,0,1-2.227,2.39A6.013,6.013,0,0,1,268.775,208.534Z" transform="translate(-140.362 -184.905)"/><path class="c" d="M279.747,208.1v-15.97h2.444l.217,3.042a5.832,5.832,0,0,1,2.227-2.5,7.227,7.227,0,0,1,3.748-.923v2.825h-.76a6.954,6.954,0,0,0-2.607.489,4.072,4.072,0,0,0-1.9,1.684,6.308,6.308,0,0,0-.706,3.259v8.039h-2.662Z" transform="translate(-140.362 -184.905)"/><path class="c" d="M295.12,208.534a7.342,7.342,0,0,1-3.314-.652,4.491,4.491,0,0,1-1.956-1.793,4.847,4.847,0,0,1-.652-2.444,4.266,4.266,0,0,1,1.847-3.748,8.771,8.771,0,0,1,5.106-1.3h4.291v-.217a4.255,4.255,0,0,0-1.086-3.151,3.979,3.979,0,0,0-2.933-1.086,4.588,4.588,0,0,0-2.716.815,3.4,3.4,0,0,0-1.412,2.281h-2.77a5.07,5.07,0,0,1,1.2-2.933,5.756,5.756,0,0,1,2.553-1.793,9.117,9.117,0,0,1,3.2-.652,6.664,6.664,0,0,1,5.052,1.793,6.544,6.544,0,0,1,1.684,4.726v9.832h-2.39l-.163-2.879a5.653,5.653,0,0,1-1.956,2.281A6.5,6.5,0,0,1,295.12,208.534Zm.435-2.336a4.422,4.422,0,0,0,2.662-.815,4.971,4.971,0,0,0,1.684-2.118,6.6,6.6,0,0,0,.6-2.716v-.054h-4.074a5.369,5.369,0,0,0-3.368.815,2.6,2.6,0,0,0-.978,2.064,2.528,2.528,0,0,0,.923,2.01A3.45,3.45,0,0,0,295.554,206.2Z" transform="translate(-140.362 -184.905)"/><path class="c" d="M319.727,208.534a7.839,7.839,0,0,1-4.074-1.032,7.21,7.21,0,0,1-2.77-2.933,10.135,10.135,0,0,1-.054-8.8,7.211,7.211,0,0,1,2.77-2.933,7.9,7.9,0,0,1,4.128-1.032,7.512,7.512,0,0,1,4.02,1.032,7.087,7.087,0,0,1,2.607,2.77,7.759,7.759,0,0,1,.923,3.694v1.521H314.566a5.746,5.746,0,0,0,.869,3.042,4.62,4.62,0,0,0,1.9,1.793,4.8,4.8,0,0,0,2.444.6,5.085,5.085,0,0,0,2.825-.76,4.02,4.02,0,0,0,1.63-2.118H326.9a6.979,6.979,0,0,1-7.17,5.16Zm0-14.5a5.16,5.16,0,0,0-3.422,1.2,4.771,4.771,0,0,0-1.738,3.422h10.049a4.531,4.531,0,0,0-1.467-3.368A5.006,5.006,0,0,0,319.727,194.03Z" transform="translate(-140.362 -184.905)"/><path class="c" d="M329.287,208.1v-15.97h2.444l.163,2.879a5.563,5.563,0,0,1,2.227-2.39,6.106,6.106,0,0,1,3.259-.869,5.972,5.972,0,0,1,4.509,1.738c1.141,1.141,1.684,2.933,1.684,5.323v9.343h-2.716v-9.071c0-3.314-1.358-5-4.128-5a4.385,4.385,0,0,0-3.422,1.521,6.078,6.078,0,0,0-1.358,4.291v8.257h-2.662Z" transform="translate(-140.362 -184.905)"/><path class="c" d="M150.9,239.55a10.29,10.29,0,0,1-5.541-1.467,9.942,9.942,0,0,1-3.694-4.074,13.387,13.387,0,0,1-1.3-6.084,12.875,12.875,0,0,1,1.358-6.084,9.973,9.973,0,0,1,3.8-4.128,11.132,11.132,0,0,1,5.812-1.467,10.2,10.2,0,0,1,6.3,1.847,8.442,8.442,0,0,1,3.259,5.052h-3.151a5.284,5.284,0,0,0-2.118-3.2,7.212,7.212,0,0,0-4.346-1.2,8.39,8.39,0,0,0-4.291,1.086,7.231,7.231,0,0,0-2.825,3.151,11.448,11.448,0,0,0-1.032,4.943,11.633,11.633,0,0,0,.978,4.943,7.151,7.151,0,0,0,2.77,3.151,7.449,7.449,0,0,0,4.128,1.086,6.768,6.768,0,0,0,5.432-2.118,9.668,9.668,0,0,0,2.118-5.758h-6.518v-2.118h9.289V239.17h-2.5l-.217-3.694a8.9,8.9,0,0,1-2.988,3.042A9.238,9.238,0,0,1,150.9,239.55Z" transform="translate(-140.362 -184.905)"/><path class="c" d="M171,239.55a7.839,7.839,0,0,1-4.074-1.032,7.21,7.21,0,0,1-2.77-2.933,10.135,10.135,0,0,1-.054-8.8,7.21,7.21,0,0,1,2.77-2.933A7.9,7.9,0,0,1,171,222.82a7.512,7.512,0,0,1,4.02,1.032,7.087,7.087,0,0,1,2.607,2.77,7.759,7.759,0,0,1,.923,3.694v1.521H165.838a5.746,5.746,0,0,0,.869,3.042,4.62,4.62,0,0,0,1.9,1.793,4.8,4.8,0,0,0,2.444.6,5.085,5.085,0,0,0,2.825-.76,4.02,4.02,0,0,0,1.63-2.118h2.662a7.4,7.4,0,0,1-2.444,3.694A7.542,7.542,0,0,1,171,239.55Zm0-14.449a5.16,5.16,0,0,0-3.422,1.2,4.771,4.771,0,0,0-1.738,3.422h10.049a4.531,4.531,0,0,0-1.467-3.368A5.006,5.006,0,0,0,171,225.1Z" transform="translate(-140.362 -184.905)"/><path class="c" d="M180.5,239.17V223.2h2.444l.217,3.042a5.832,5.832,0,0,1,2.227-2.5,7.227,7.227,0,0,1,3.748-.923v2.825h-.76a6.955,6.955,0,0,0-2.607.489,4.072,4.072,0,0,0-1.9,1.684,6.309,6.309,0,0,0-.706,3.259v8.039H180.5Z" transform="translate(-140.362 -184.905)"/><path class="c" d="M197.181,239.55a7.839,7.839,0,0,1-4.074-1.032,7.21,7.21,0,0,1-2.77-2.933,10.135,10.135,0,0,1-.054-8.8,7.21,7.21,0,0,1,2.77-2.933,7.9,7.9,0,0,1,4.128-1.032,7.512,7.512,0,0,1,4.02,1.032,7.086,7.086,0,0,1,2.607,2.77,7.759,7.759,0,0,1,.923,3.694v1.521H192.021a5.746,5.746,0,0,0,.869,3.042,4.971,4.971,0,0,0,1.9,1.793,4.8,4.8,0,0,0,2.444.6,5.085,5.085,0,0,0,2.825-.76,4.02,4.02,0,0,0,1.63-2.118h2.662a7.4,7.4,0,0,1-2.444,3.694A7.651,7.651,0,0,1,197.181,239.55Zm0-14.449a5.16,5.16,0,0,0-3.422,1.2,4.771,4.771,0,0,0-1.738,3.422H202.07a4.531,4.531,0,0,0-1.467-3.368A5.006,5.006,0,0,0,197.181,225.1Z" transform="translate(-140.362 -184.905)"/><path class="c" d="M206.687,239.17V223.2h2.444l.163,2.879a5.563,5.563,0,0,1,2.227-2.39,6.106,6.106,0,0,1,3.259-.869,5.972,5.972,0,0,1,4.509,1.738c1.141,1.141,1.684,2.933,1.684,5.323v9.343h-2.716v-9.071c0-3.314-1.358-5-4.128-5a4.385,4.385,0,0,0-3.422,1.521,6.169,6.169,0,0,0-1.358,4.291v8.257h-2.662Z" transform="translate(-140.362 -184.905)"/><path class="c" d="M230.859,239.55a8.177,8.177,0,0,1-4.128-1.032,7.856,7.856,0,0,1-2.879-2.933,9.895,9.895,0,0,1,0-8.8,7.474,7.474,0,0,1,2.879-2.933,8.038,8.038,0,0,1,4.128-1.032,7.7,7.7,0,0,1,4.78,1.467,6.238,6.238,0,0,1,2.444,3.965h-2.77a3.607,3.607,0,0,0-1.575-2.281,5.166,5.166,0,0,0-2.933-.815,5.251,5.251,0,0,0-2.553.652,5.354,5.354,0,0,0-1.956,2.01,7.838,7.838,0,0,0,0,6.736,5.13,5.13,0,0,0,1.956,2.064,4.77,4.77,0,0,0,2.553.706,5.166,5.166,0,0,0,2.933-.815,3.585,3.585,0,0,0,1.575-2.336h2.77a6.257,6.257,0,0,1-2.444,3.911A7.813,7.813,0,0,1,230.859,239.55Z" transform="translate(-140.362 -184.905)"/><path class="c" d="M241.886,219.669a1.856,1.856,0,0,1-1.9-1.9,1.765,1.765,0,0,1,.543-1.3,1.986,1.986,0,0,1,1.358-.489,1.85,1.85,0,0,1,1.3.489,1.61,1.61,0,0,1,.543,1.3,1.8,1.8,0,0,1-.543,1.358A1.685,1.685,0,0,1,241.886,219.669Zm-1.358,19.5V223.2h2.716v15.97Z" transform="translate(-140.362 -184.905)"/><path class="c" d="M251.664,239.55a7.342,7.342,0,0,1-3.314-.652,4.49,4.49,0,0,1-1.956-1.793,4.847,4.847,0,0,1-.652-2.444,4.266,4.266,0,0,1,1.847-3.748,8.771,8.771,0,0,1,5.106-1.3h4.291v-.217a4.255,4.255,0,0,0-1.086-3.151,3.979,3.979,0,0,0-2.933-1.086,4.588,4.588,0,0,0-2.716.815,3.4,3.4,0,0,0-1.412,2.281h-2.77a5.07,5.07,0,0,1,1.2-2.933,5.756,5.756,0,0,1,2.553-1.793,9.117,9.117,0,0,1,3.2-.652,6.664,6.664,0,0,1,5.052,1.793,6.544,6.544,0,0,1,1.684,4.726v9.832h-2.39l-.163-2.879a5.654,5.654,0,0,1-1.956,2.281A6.76,6.76,0,0,1,251.664,239.55Zm.38-2.281a4.422,4.422,0,0,0,2.662-.815,4.972,4.972,0,0,0,1.684-2.118,6.6,6.6,0,0,0,.6-2.716v-.054h-4.074a5.369,5.369,0,0,0-3.368.815,2.6,2.6,0,0,0-.978,2.064,2.528,2.528,0,0,0,.923,2.01A3.7,3.7,0,0,0,252.044,237.269Z" transform="translate(-140.362 -184.905)"/><path class="c" d="M262.147,239.17V223.2h2.444l.217,2.336a5.246,5.246,0,0,1,2.064-2.01,5.8,5.8,0,0,1,2.879-.706,6.876,6.876,0,0,1,3.259.76,4.952,4.952,0,0,1,2.118,2.336,5.762,5.762,0,0,1,2.281-2.281,6.335,6.335,0,0,1,3.151-.815,6.184,6.184,0,0,1,4.563,1.738c1.141,1.141,1.684,2.933,1.684,5.323v9.343h-2.662v-9.071a6.163,6.163,0,0,0-.978-3.748,3.508,3.508,0,0,0-2.879-1.249,3.959,3.959,0,0,0-3.2,1.521,6.325,6.325,0,0,0-1.249,4.291v8.257H273.12v-9.071a6.163,6.163,0,0,0-.978-3.748,3.508,3.508,0,0,0-2.879-1.249,3.857,3.857,0,0,0-3.151,1.521,6.325,6.325,0,0,0-1.249,4.291v8.257h-2.716Z" transform="translate(-140.362 -184.905)"/><path class="c" d="M290.991,219.669a1.856,1.856,0,0,1-1.9-1.9,1.765,1.765,0,0,1,.543-1.3,1.986,1.986,0,0,1,1.358-.489,1.85,1.85,0,0,1,1.3.489,1.61,1.61,0,0,1,.543,1.3,1.8,1.8,0,0,1-.543,1.358A1.685,1.685,0,0,1,290.991,219.669Zm-1.358,19.5V223.2h2.716v15.97Z" transform="translate(-140.362 -184.905)"/><path class="c" d="M302.616,239.55a7.839,7.839,0,0,1-4.074-1.032,7.21,7.21,0,0,1-2.77-2.933,10.135,10.135,0,0,1-.054-8.8,7.21,7.21,0,0,1,2.77-2.933,7.9,7.9,0,0,1,4.128-1.032,7.512,7.512,0,0,1,4.02,1.032,7.087,7.087,0,0,1,2.607,2.77,7.759,7.759,0,0,1,.923,3.694v1.521H297.455a5.746,5.746,0,0,0,.869,3.042,4.62,4.62,0,0,0,1.9,1.793,4.8,4.8,0,0,0,2.444.6,5.085,5.085,0,0,0,2.825-.76,4.02,4.02,0,0,0,1.63-2.118h2.662a7.4,7.4,0,0,1-2.444,3.694A7.542,7.542,0,0,1,302.616,239.55Zm0-14.449a5.16,5.16,0,0,0-3.422,1.2,4.771,4.771,0,0,0-1.738,3.422H307.5a4.531,4.531,0,0,0-1.467-3.368A5.006,5.006,0,0,0,302.616,225.1Z" transform="translate(-140.362 -184.905)"/><path class="c" d="M312.122,239.17V223.2h2.444l.163,2.879a5.563,5.563,0,0,1,2.227-2.39,6.106,6.106,0,0,1,3.259-.869,5.972,5.972,0,0,1,4.509,1.738c1.141,1.141,1.684,2.933,1.684,5.323v9.343h-2.716v-9.071c0-3.314-1.358-5-4.128-5a4.385,4.385,0,0,0-3.422,1.521,6.078,6.078,0,0,0-1.358,4.291v8.257h-2.662Z" transform="translate(-140.362 -184.905)"/><path class="c" d="M335.262,239.17a5.067,5.067,0,0,1-3.422-1.086c-.815-.706-1.249-2.01-1.249-3.857v-8.8h-2.77v-2.281h2.77l.38-3.857h2.336v3.857h4.726v2.281h-4.726v8.8a2.833,2.833,0,0,0,.6,2.064,3.269,3.269,0,0,0,2.173.543h1.684v2.336h-2.5Z" transform="translate(-140.362 -184.905)"/><path class="c" d="M346.615,239.55a7.839,7.839,0,0,1-4.074-1.032,7.341,7.341,0,0,1-2.825-2.933,8.856,8.856,0,0,1-1.032-4.454,9.164,9.164,0,0,1,1.086-4.454,8.226,8.226,0,0,1,11.027-2.933,7.341,7.341,0,0,1,2.825,2.933,8.856,8.856,0,0,1,1.032,4.454,9.164,9.164,0,0,1-1.086,4.454,7.7,7.7,0,0,1-6.953,3.965Zm0-2.336a5.1,5.1,0,0,0,2.553-.652,5.354,5.354,0,0,0,1.956-2.01,7.015,7.015,0,0,0,.76-3.368,7.173,7.173,0,0,0-.706-3.368,4.875,4.875,0,0,0-1.9-2.01,5.251,5.251,0,0,0-2.553-.652,5.1,5.1,0,0,0-2.553.652,5.354,5.354,0,0,0-1.955,2.01,7.837,7.837,0,0,0,0,6.736,4.875,4.875,0,0,0,1.9,2.01A5.047,5.047,0,0,0,346.615,237.215Z" transform="translate(-140.362 -184.905)"/><path class="c" d="M370.95,239.55a8.128,8.128,0,0,1-4.183-1.086,7.352,7.352,0,0,1-2.77-2.988,9.906,9.906,0,0,1,0-8.583,7.71,7.71,0,0,1,2.77-2.988,7.988,7.988,0,0,1,4.183-1.086,7.3,7.3,0,0,1,3.476.815,5.78,5.78,0,0,1,2.336,2.227v-9.886h2.716V239.17h-2.444l-.272-2.662a7.62,7.62,0,0,1-2.227,2.118A6.37,6.37,0,0,1,370.95,239.55Zm.326-2.336a5.352,5.352,0,0,0,2.825-.76,5.283,5.283,0,0,0,1.956-2.118,7.268,7.268,0,0,0,.706-3.151,6.57,6.57,0,0,0-.706-3.151,4.932,4.932,0,0,0-1.956-2.118,5.626,5.626,0,0,0-5.649,0,5.283,5.283,0,0,0-1.956,2.118,7.381,7.381,0,0,0,0,6.3,4.627,4.627,0,0,0,1.956,2.118A5.352,5.352,0,0,0,371.276,237.215Z" transform="translate(-140.362 -184.905)"/><path class="c" d="M389.527,239.55a7.839,7.839,0,0,1-4.074-1.032,7.21,7.21,0,0,1-2.77-2.933,10.135,10.135,0,0,1-.054-8.8,7.211,7.211,0,0,1,2.77-2.933,7.9,7.9,0,0,1,4.128-1.032,7.512,7.512,0,0,1,4.02,1.032,7.087,7.087,0,0,1,2.607,2.77,7.759,7.759,0,0,1,.923,3.694v1.521H384.367a5.745,5.745,0,0,0,.869,3.042,4.62,4.62,0,0,0,1.9,1.793,4.8,4.8,0,0,0,2.444.6,5.085,5.085,0,0,0,2.825-.76,4.02,4.02,0,0,0,1.63-2.118H396.7a7.4,7.4,0,0,1-2.444,3.694A7.542,7.542,0,0,1,389.527,239.55Zm0-14.449a5.16,5.16,0,0,0-3.422,1.2,4.771,4.771,0,0,0-1.738,3.422h10.049a4.531,4.531,0,0,0-1.467-3.368A5.006,5.006,0,0,0,389.527,225.1Z" transform="translate(-140.362 -184.905)"/><path class="c" d="M141.177,270.241V247.7h7.387a9.386,9.386,0,0,1,4.346.869,6.283,6.283,0,0,1,2.553,2.336,6.867,6.867,0,0,1,.815,3.368,6.658,6.658,0,0,1-.815,3.314,5.916,5.916,0,0,1-2.5,2.39,9.473,9.473,0,0,1-4.4.869h-4.726v9.4Zm2.716-11.733h4.617a5.366,5.366,0,0,0,3.857-1.141,4.921,4.921,0,0,0,0-6.3,5.366,5.366,0,0,0-3.857-1.141h-4.617Z" transform="translate(-140.362 -184.905)"/><path class="c" d="M158.071,270.241v-15.97h2.444l.217,3.042a5.832,5.832,0,0,1,2.227-2.5,7.227,7.227,0,0,1,3.748-.923v2.825h-.76a6.955,6.955,0,0,0-2.607.489,4.072,4.072,0,0,0-1.9,1.684,6.309,6.309,0,0,0-.706,3.259v8.039h-2.662Z" transform="translate(-140.362 -184.905)"/><path class="c" d="M174.8,270.621a7.839,7.839,0,0,1-4.074-1.032,7.341,7.341,0,0,1-2.825-2.933,8.856,8.856,0,0,1-1.032-4.454,9.164,9.164,0,0,1,1.086-4.454,8.226,8.226,0,0,1,11.027-2.933,7.341,7.341,0,0,1,2.825,2.933,8.856,8.856,0,0,1,1.032,4.454,9.164,9.164,0,0,1-1.086,4.454,7.856,7.856,0,0,1-2.879,2.933A8.4,8.4,0,0,1,174.8,270.621Zm0-2.336a5.1,5.1,0,0,0,2.553-.652,5.354,5.354,0,0,0,1.956-2.01,6.316,6.316,0,0,0,.76-3.368,7.173,7.173,0,0,0-.706-3.368,4.875,4.875,0,0,0-1.9-2.01,5.251,5.251,0,0,0-2.553-.652,5.1,5.1,0,0,0-2.553.652,5.354,5.354,0,0,0-1.956,2.01,7.838,7.838,0,0,0,0,6.736,4.875,4.875,0,0,0,1.9,2.01A5.047,5.047,0,0,0,174.8,268.286Z" transform="translate(-140.362 -184.905)"/><path class="c" d="M185.448,277.3l3.965-8.637h-.923l-6.355-14.449h2.933l5.269,12.439,5.595-12.439h2.825l-10.484,23.032h-2.825Z" transform="translate(-140.362 -184.905)"/><path class="c" d="M205.655,270.621a7.839,7.839,0,0,1-4.074-1.032,7.21,7.21,0,0,1-2.77-2.933,10.135,10.135,0,0,1-.054-8.8,7.21,7.21,0,0,1,2.77-2.933,7.9,7.9,0,0,1,4.128-1.032,7.511,7.511,0,0,1,4.02,1.032,7.087,7.087,0,0,1,2.607,2.77,7.759,7.759,0,0,1,.923,3.694v1.521H200.494a5.746,5.746,0,0,0,.869,3.042,4.972,4.972,0,0,0,1.9,1.793,4.8,4.8,0,0,0,2.444.6,5.085,5.085,0,0,0,2.825-.76,4.02,4.02,0,0,0,1.63-2.118h2.662a6.979,6.979,0,0,1-7.17,5.16Zm0-14.449a5.16,5.16,0,0,0-3.422,1.2,4.771,4.771,0,0,0-1.738,3.422h10.049a4.531,4.531,0,0,0-1.467-3.368A4.761,4.761,0,0,0,205.655,256.172Z" transform="translate(-140.362 -184.905)"/><path class="c" d="M222.548,270.621a8.177,8.177,0,0,1-4.128-1.032,7.856,7.856,0,0,1-2.879-2.933,9.895,9.895,0,0,1,0-8.8,7.474,7.474,0,0,1,2.879-2.933,8.038,8.038,0,0,1,4.128-1.032,7.7,7.7,0,0,1,4.78,1.467,6.238,6.238,0,0,1,2.444,3.965H227a3.607,3.607,0,0,0-1.575-2.281,5.165,5.165,0,0,0-2.933-.815,5.251,5.251,0,0,0-2.553.652,5.354,5.354,0,0,0-1.956,2.01,7.838,7.838,0,0,0,0,6.736,5.13,5.13,0,0,0,1.956,2.064,4.77,4.77,0,0,0,2.553.706,5.166,5.166,0,0,0,2.933-.815A3.585,3.585,0,0,0,227,265.244h2.77a6.256,6.256,0,0,1-2.444,3.911A8.059,8.059,0,0,1,222.548,270.621Z" transform="translate(-140.362 -184.905)"/><path class="c" d="M237.812,270.241a5.067,5.067,0,0,1-3.422-1.086c-.815-.706-1.249-2.01-1.249-3.857v-8.8h-2.825v-2.281h2.77l.38-3.857H235.8v3.857h4.726V256.5H235.8v8.8a2.833,2.833,0,0,0,.6,2.064,3.269,3.269,0,0,0,2.173.543h1.684v2.336h-2.444Z" transform="translate(-140.362 -184.905)"/><path class="c" d="M249.165,270.621a7.839,7.839,0,0,1-4.074-1.032,7.341,7.341,0,0,1-2.825-2.933,8.856,8.856,0,0,1-1.032-4.454,9.164,9.164,0,0,1,1.086-4.454,8.226,8.226,0,0,1,11.027-2.933,7.341,7.341,0,0,1,2.825,2.933A8.856,8.856,0,0,1,257.2,262.2a9.164,9.164,0,0,1-1.086,4.454,7.7,7.7,0,0,1-6.953,3.965Zm0-2.336a5.1,5.1,0,0,0,2.553-.652,5.354,5.354,0,0,0,1.956-2.01,7.015,7.015,0,0,0,.76-3.368,7.173,7.173,0,0,0-.706-3.368,4.875,4.875,0,0,0-1.9-2.01,5.251,5.251,0,0,0-2.553-.652,5.1,5.1,0,0,0-2.553.652,5.354,5.354,0,0,0-1.956,2.01,7.838,7.838,0,0,0,0,6.736,4.856,4.856,0,0,0,4.4,2.662Z" transform="translate(-140.362 -184.905)"/><path class="c" d="M266.439,270.241V247.7H280.4v2.227H269.155V257.8h10.266v2.173H269.155v8.039H280.4v2.227Z" transform="translate(-140.362 -184.905)"/><path class="c" d="M279.693,277.3v-2.336h1.249a2.556,2.556,0,0,0,1.738-.489,2.169,2.169,0,0,0,.543-1.684V254.271h2.716V272.9a4.429,4.429,0,0,1-1.141,3.368,4.822,4.822,0,0,1-3.368,1.086h-1.738Zm4.889-26.617a1.685,1.685,0,0,1-1.3-.543,1.8,1.8,0,0,1-.543-1.358,1.766,1.766,0,0,1,.543-1.3,1.983,1.983,0,0,1,2.607,0,1.61,1.61,0,0,1,.543,1.3,1.8,1.8,0,0,1-.543,1.358A1.766,1.766,0,0,1,284.582,250.686Z" transform="translate(-140.362 -184.905)"/><path class="c" d="M296.152,270.621a7.839,7.839,0,0,1-4.074-1.032,7.21,7.21,0,0,1-2.77-2.933,10.135,10.135,0,0,1-.054-8.8,7.21,7.21,0,0,1,2.77-2.933,7.9,7.9,0,0,1,4.128-1.032,7.512,7.512,0,0,1,4.02,1.032,7.087,7.087,0,0,1,2.607,2.77,7.759,7.759,0,0,1,.923,3.694v1.521H290.991a5.745,5.745,0,0,0,.869,3.042,4.62,4.62,0,0,0,1.9,1.793,4.8,4.8,0,0,0,2.444.6,5.085,5.085,0,0,0,2.825-.76,4.02,4.02,0,0,0,1.63-2.118h2.662a6.979,6.979,0,0,1-7.17,5.16Zm0-14.449a5.16,5.16,0,0,0-3.422,1.2,4.771,4.771,0,0,0-1.738,3.422H301.04a4.531,4.531,0,0,0-1.467-3.368A4.761,4.761,0,0,0,296.152,256.172Z" transform="translate(-140.362 -184.905)"/><path class="c" d="M313.045,270.621a8.177,8.177,0,0,1-4.128-1.032,7.474,7.474,0,0,1-2.879-2.933,9.895,9.895,0,0,1,0-8.8,7.474,7.474,0,0,1,2.879-2.933,8.038,8.038,0,0,1,4.128-1.032,7.7,7.7,0,0,1,4.78,1.467,6.237,6.237,0,0,1,2.444,3.965H317.5a3.607,3.607,0,0,0-1.575-2.281,5.165,5.165,0,0,0-2.933-.815,5.251,5.251,0,0,0-2.553.652,5.354,5.354,0,0,0-1.955,2.01,7.837,7.837,0,0,0,0,6.736,5.13,5.13,0,0,0,1.955,2.064,4.77,4.77,0,0,0,2.553.706,5.166,5.166,0,0,0,2.933-.815,3.585,3.585,0,0,0,1.575-2.336h2.77a6.256,6.256,0,0,1-2.444,3.911A8.06,8.06,0,0,1,313.045,270.621Z" transform="translate(-140.362 -184.905)"/><path class="c" d="M328.255,270.621a6.056,6.056,0,0,1-4.509-1.738c-1.141-1.141-1.684-2.933-1.684-5.323v-9.343h2.716v9.071c0,3.314,1.358,5,4.074,5a4.419,4.419,0,0,0,3.476-1.521,6.078,6.078,0,0,0,1.358-4.291v-8.257H336.4v15.97h-2.444l-.217-2.879a5.563,5.563,0,0,1-2.227,2.39A5.882,5.882,0,0,1,328.255,270.621Z" transform="translate(-140.362 -184.905)"/><path class="c" d="M345.583,270.241a5.067,5.067,0,0,1-3.422-1.086c-.815-.706-1.249-2.01-1.249-3.857v-8.8h-2.77v-2.281h2.77l.38-3.857h2.336v3.857h4.726V256.5h-4.726v8.8a2.833,2.833,0,0,0,.6,2.064,3.269,3.269,0,0,0,2.173.543h1.684v2.336h-2.5Z" transform="translate(-140.362 -184.905)"/><path class="c" d="M351.721,250.686a1.856,1.856,0,0,1-1.9-1.9,1.765,1.765,0,0,1,.543-1.3,1.986,1.986,0,0,1,1.358-.489,1.85,1.85,0,0,1,1.3.489,1.61,1.61,0,0,1,.543,1.3,1.8,1.8,0,0,1-.543,1.358A1.61,1.61,0,0,1,351.721,250.686Zm-1.3,19.555v-15.97h2.716v15.97Z" transform="translate(-140.362 -184.905)"/><path class="c" d="M360.792,270.241l-6.029-15.97h2.825l4.78,13.363,4.835-13.363h2.77l-6.03,15.97Z" transform="translate(-140.362 -184.905)"/><path class="c" d="M377.849,270.621a7.839,7.839,0,0,1-4.074-1.032,7.341,7.341,0,0,1-2.825-2.933,8.856,8.856,0,0,1-1.032-4.454A9.164,9.164,0,0,1,371,257.748a8.226,8.226,0,0,1,11.027-2.933,7.341,7.341,0,0,1,2.825,2.933,8.856,8.856,0,0,1,1.032,4.454,9.164,9.164,0,0,1-1.086,4.454,7.856,7.856,0,0,1-2.879,2.933A7.976,7.976,0,0,1,377.849,270.621Zm0-2.336a5.1,5.1,0,0,0,2.553-.652,5.354,5.354,0,0,0,1.956-2.01,7.015,7.015,0,0,0,.76-3.368,7.173,7.173,0,0,0-.706-3.368,4.875,4.875,0,0,0-1.9-2.01,5.251,5.251,0,0,0-2.553-.652,5.1,5.1,0,0,0-2.553.652,5.354,5.354,0,0,0-1.956,2.01,7.837,7.837,0,0,0,0,6.736,4.875,4.875,0,0,0,1.9,2.01A4.762,4.762,0,0,0,377.849,268.286Z" transform="translate(-140.362 -184.905)"/></g><g transform="translate(66.977 77.999)"><rect class="d" width="33.298" height="205.112" transform="translate(0 0)"/><g transform="translate(71.539)"><path class="e" d="M225.7,109.835c0,24.444-12.494,42.967-46.443,42.967h-40.74V66.868h40.74C213.205,66.868,225.7,85.282,225.7,109.835Zm-23.14,0c0-15.644-8.474-23.629-23.358-23.629H161.71l-.109,47.15h17.6C194.03,133.355,202.559,125.37,202.559,109.835Z" transform="translate(-138.516 -66.868)"/><path class="e" d="M287.515,139.439H246.992l-4.834,13.417H218.311l32.755-85.934h32.32l32.755,85.88H292.295Zm-6.138-17.328-11.95-33.57h-4.183l-12.113,33.57Z" transform="translate(-138.516 -66.868)"/><path class="e" d="M319.075,66.868h74.092v18.74H342.215V101.8H391.32v16.079H342.215v16.3h50.952v18.74H319.075Z" transform="translate(-138.516 -66.868)"/></g></g></g></g></g></svg>