<svg xmlns="http://www.w3.org/2000/svg" xmlns:xlink="http://www.w3.org/1999/xlink" width="464" height="506" viewBox="0 0 464 506"><defs><style>.a{fill:#fff;}.b{clip-path:url(#a);}.c{fill:#34445b;}.d{fill:#4ec67f;}</style><clipPath id="a"><rect class="a" width="464" height="506" transform="translate(340 1632)"/></clipPath></defs><g transform="translate(-340 -1632)"><g class="b"><g transform="translate(340 1759.834)"><path class="c" d="M180.12,88.655c0,19.76-9.88,34.733-36.841,34.733H111.005V53.966h32.274C170.24,53.966,180.12,68.851,180.12,88.655Zm-18.311,0c0-12.646-6.718-19.1-18.486-19.1H129.448l-.088,38.114h13.963C155.091,107.668,161.809,101.257,161.809,88.655Z"/><path class="c" d="M182.623,53.966h18.662v69.422H182.623Z"/><path class="c" d="M206.159,53.966h37.368c18.662,0,29.113,8.694,29.113,25.951s-10.407,26.039-29.025,26.039H224.821v17.432H206.159Zm35.963,36.446c7.289,0,11.812-3.557,11.812-10.495S249.367,69.51,242.209,69.51H224.821v20.9Z"/><path class="c" d="M275.625,53.966h18.662V107.8h39.036v15.588h-57.7Z"/><path class="c" d="M331.567,88.655c0-22,15.456-37.016,38.6-37.016,23.053,0,38.509,15.061,38.509,37.016,0,21.911-15.456,37.016-38.509,37.016C347.023,125.715,331.567,110.566,331.567,88.655Zm58.708,0c0-12.822-8.826-20.9-20.067-20.9-11.329,0-20.067,8.123-20.067,20.9,0,12.734,8.782,20.9,20.067,20.9C381.4,109.6,390.275,101.389,390.275,88.655Z"/><path class="c" d="M178.627,179.066c0,11.329-8.036,19.584-28.849,19.584H111.005V129.228h39.168c20.243,0,26.39,8.519,26.39,18,0,7.509-3.82,11.417-9.441,14.051v1.054C174.412,165.586,178.627,170.9,178.627,179.066Zm-48.916-35.436v13.788h18.925c6.762,0,10.1-2.635,10.1-6.762,0-4.3-3.293-7.026-10.1-7.026Zm30.079,32.494c0-4.567-3.557-7.6-10.407-7.6H129.711v15.72h19.672C156.233,184.2,159.79,180.735,159.79,176.124Z"/><path class="c" d="M182.623,129.228h18.662V198.65H182.623Z"/><path class="c" d="M206.159,129.228H229.87l15.193,45.623h1.405l15.237-45.623h23.712V198.65H267.545V160.536h-1.581l-13.041,38.158H238.609L225.567,160.58h-1.581v38.114H206.115V129.228Z"/><rect class="d" width="27.049" height="144.86" transform="translate(53.79 53.79)"/></g></g></g></svg>