<svg xmlns="http://www.w3.org/2000/svg" xmlns:xlink="http://www.w3.org/1999/xlink" width="464" height="463" viewBox="0 0 464 463"><defs><style>.a{fill:#fff;}.b{clip-path:url(#a);}.c{fill:#7c7c7c;}.d{fill:#ffce00;}.e{fill:#34445b;}</style><clipPath id="a"><rect class="a" width="464" height="463"/></clipPath></defs><g transform="translate(-445 -510)"><g class="b" transform="translate(445 510)"><g transform="translate(-55 25.817)"><g transform="translate(196.586 236.964)"><path class="c" d="M258.8,360.881V338h7c4.025,0,7,1.048,8.932,3.087s2.867,4.852,2.867,8.436c0,3.529-.937,6.285-2.867,8.325s-4.852,3.032-8.932,3.032Zm2.757-2.316h4.19a11.111,11.111,0,0,0,5.293-1.1,6.022,6.022,0,0,0,2.812-3.143,12.953,12.953,0,0,0,.827-4.852,13.354,13.354,0,0,0-.827-4.962,6.35,6.35,0,0,0-2.812-3.2,11.111,11.111,0,0,0-5.293-1.1h-4.19Z" transform="translate(-257.918 -337.283)"/><path class="c" d="M298.23,340.449a1.884,1.884,0,0,1-1.93-1.93,1.792,1.792,0,0,1,.551-1.323,2.016,2.016,0,0,1,1.378-.5,1.878,1.878,0,0,1,1.323.5,1.634,1.634,0,0,1,.551,1.323,1.829,1.829,0,0,1-.551,1.378A1.634,1.634,0,0,1,298.23,340.449ZM296.851,360.3v-16.21h2.757V360.3Z" transform="translate(-274.742 -336.7)"/><path class="c" d="M308,373.163V349.786h2.481l.276,2.7a7.734,7.734,0,0,1,2.261-2.15,6.925,6.925,0,0,1,3.694-.937,7.908,7.908,0,0,1,4.19,1.1,7.463,7.463,0,0,1,2.812,3.032,9.384,9.384,0,0,1,.992,4.356,9.226,9.226,0,0,1-.992,4.356,7.591,7.591,0,0,1-7.057,4.135,7.254,7.254,0,0,1-3.529-.827,5.867,5.867,0,0,1-2.371-2.26v9.924H308Zm8.38-9.207a5.432,5.432,0,0,0,2.867-.772,5.363,5.363,0,0,0,1.985-2.15,7.492,7.492,0,0,0,0-6.4,5.362,5.362,0,0,0-1.985-2.15,5.71,5.71,0,0,0-5.734,0,5.362,5.362,0,0,0-1.985,2.15,7.492,7.492,0,0,0,0,6.4,5.362,5.362,0,0,0,1.985,2.15A4.859,4.859,0,0,0,316.38,363.955Z" transform="translate(-279.992 -342.398)"/><path class="c" d="M342.2,360.342V336.8h2.757v23.542Z" transform="translate(-295.336 -336.745)"/><path class="c" d="M359.25,366.292a7.957,7.957,0,0,1-4.135-1.048,7.451,7.451,0,0,1-2.867-2.977,9.6,9.6,0,0,1-1.048-4.521,9.148,9.148,0,0,1,1.1-4.521,8.349,8.349,0,0,1,11.192-2.977,7.451,7.451,0,0,1,2.867,2.977,9.6,9.6,0,0,1,1.048,4.521,9.149,9.149,0,0,1-1.1,4.521,7.591,7.591,0,0,1-2.922,2.977A8.523,8.523,0,0,1,359.25,366.292Zm0-2.371a5.178,5.178,0,0,0,2.591-.662,5.435,5.435,0,0,0,1.985-2.04,8.223,8.223,0,0,0,.055-6.837,4.948,4.948,0,0,0-1.93-2.04,5.33,5.33,0,0,0-2.591-.662,5.178,5.178,0,0,0-2.591.662,5.435,5.435,0,0,0-1.985,2.04,7.955,7.955,0,0,0,0,6.837,4.948,4.948,0,0,0,1.93,2.04A5.122,5.122,0,0,0,359.25,363.921Z" transform="translate(-299.374 -342.308)"/><path class="c" d="M384.6,366V349.786h2.481l.221,2.371a5.325,5.325,0,0,1,2.1-2.04,5.886,5.886,0,0,1,2.922-.717,6.979,6.979,0,0,1,3.308.772,5.026,5.026,0,0,1,2.15,2.371,5.848,5.848,0,0,1,2.316-2.316,6.43,6.43,0,0,1,3.2-.827,6.277,6.277,0,0,1,4.631,1.764c1.158,1.158,1.709,2.977,1.709,5.4v9.483h-2.7v-9.207a6.255,6.255,0,0,0-.992-3.8,3.561,3.561,0,0,0-2.922-1.268,4.018,4.018,0,0,0-3.253,1.544,6.515,6.515,0,0,0-1.268,4.356v8.38h-2.757v-9.207a6.256,6.256,0,0,0-.992-3.8,3.561,3.561,0,0,0-2.922-1.268,3.915,3.915,0,0,0-3.2,1.544,6.42,6.42,0,0,0-1.268,4.356v8.38H384.6Z" transform="translate(-314.359 -342.398)"/><path class="c" d="M439.51,366.426a7.453,7.453,0,0,1-3.363-.662,4.558,4.558,0,0,1-1.985-1.819,4.92,4.92,0,0,1-.662-2.481,4.33,4.33,0,0,1,1.875-3.8,8.9,8.9,0,0,1,5.183-1.323h4.356v-.221a4.319,4.319,0,0,0-1.1-3.2,4.038,4.038,0,0,0-2.977-1.1,4.657,4.657,0,0,0-2.757.827,3.446,3.446,0,0,0-1.434,2.316h-2.812a5.146,5.146,0,0,1,1.213-2.977,5.842,5.842,0,0,1,2.591-1.819,9.254,9.254,0,0,1,3.253-.662,6.764,6.764,0,0,1,5.128,1.819,6.642,6.642,0,0,1,1.709,4.8V366.1H445.3l-.165-2.922a5.738,5.738,0,0,1-1.985,2.316A6.593,6.593,0,0,1,439.51,366.426Zm.441-2.316a4.488,4.488,0,0,0,2.7-.827,5.046,5.046,0,0,0,1.709-2.15,6.7,6.7,0,0,0,.606-2.757v-.055h-4.135a5.45,5.45,0,0,0-3.418.827,2.636,2.636,0,0,0-.992,2.1,2.566,2.566,0,0,0,.937,2.04A3.657,3.657,0,0,0,439.951,364.111Z" transform="translate(-336.298 -342.443)"/><path class="c" d="M468.353,363.079a5.143,5.143,0,0,1-3.473-1.1c-.827-.717-1.268-2.04-1.268-3.915V349.13H460.8v-2.316h2.812L464,342.9h2.371v3.915h4.8v2.316h-4.8v8.932a2.875,2.875,0,0,0,.606,2.1,3.318,3.318,0,0,0,2.205.551h1.709v2.371h-2.536Z" transform="translate(-348.546 -339.482)"/><path class="c" d="M488.485,366.651a6.147,6.147,0,0,1-4.576-1.764c-1.158-1.158-1.709-2.977-1.709-5.4V350h2.757v9.207c0,3.363,1.378,5.072,4.135,5.072a4.485,4.485,0,0,0,3.529-1.544A6.169,6.169,0,0,0,494,358.38V350h2.757v16.21h-2.481l-.221-2.922a5.646,5.646,0,0,1-2.261,2.426A5.969,5.969,0,0,1,488.485,366.651Z" transform="translate(-358.148 -342.667)"/><path class="c" d="M513.8,366V349.786h2.481l.221,3.088a5.92,5.92,0,0,1,2.261-2.536,7.336,7.336,0,0,1,3.8-.937v2.867h-.772a7.06,7.06,0,0,0-2.646.5,4.133,4.133,0,0,0-1.93,1.709,6.4,6.4,0,0,0-.717,3.308v8.16h-2.7Z" transform="translate(-372.325 -342.398)"/><path class="c" d="M537.31,366.426a7.452,7.452,0,0,1-3.363-.662,4.558,4.558,0,0,1-1.985-1.819,4.921,4.921,0,0,1-.662-2.481,4.33,4.33,0,0,1,1.875-3.8,8.9,8.9,0,0,1,5.183-1.323h4.356v-.221a4.319,4.319,0,0,0-1.1-3.2,4.038,4.038,0,0,0-2.977-1.1,4.657,4.657,0,0,0-2.757.827,3.445,3.445,0,0,0-1.433,2.316h-2.812a5.146,5.146,0,0,1,1.213-2.977,5.843,5.843,0,0,1,2.591-1.819,9.254,9.254,0,0,1,3.253-.662,6.764,6.764,0,0,1,5.127,1.819,6.642,6.642,0,0,1,1.709,4.8V366.1H543.1l-.165-2.922a5.739,5.739,0,0,1-1.985,2.316A6.726,6.726,0,0,1,537.31,366.426Zm.386-2.316a4.488,4.488,0,0,0,2.7-.827,5.046,5.046,0,0,0,1.709-2.15,6.7,6.7,0,0,0,.606-2.757v-.055h-4.135a5.45,5.45,0,0,0-3.418.827,2.636,2.636,0,0,0-.992,2.1,2.566,2.566,0,0,0,.937,2.04A3.75,3.75,0,0,0,537.7,364.111Z" transform="translate(-380.177 -342.443)"/><path class="c" d="M580.995,366.381a7.957,7.957,0,0,1-4.135-1.048,7.319,7.319,0,0,1-2.812-2.977,10.287,10.287,0,0,1-.055-8.932,7.319,7.319,0,0,1,2.812-2.977,8.021,8.021,0,0,1,4.19-1.048,7.624,7.624,0,0,1,4.08,1.048,7.193,7.193,0,0,1,2.646,2.812,7.875,7.875,0,0,1,.937,3.749v1.544h-12.9a5.832,5.832,0,0,0,.882,3.088,4.689,4.689,0,0,0,1.93,1.819,4.868,4.868,0,0,0,2.481.606,5.162,5.162,0,0,0,2.867-.772,4.08,4.08,0,0,0,1.654-2.15h2.7a7.514,7.514,0,0,1-2.481,3.749A7.766,7.766,0,0,1,580.995,366.381Zm0-14.721a5.237,5.237,0,0,0-3.473,1.213,4.843,4.843,0,0,0-1.764,3.473h10.2a4.6,4.6,0,0,0-1.489-3.418A5.182,5.182,0,0,0,580.995,351.661Z" transform="translate(-398.886 -342.398)"/><path class="c" d="M605,366V349.786h2.481l.165,2.922a5.646,5.646,0,0,1,2.26-2.426,6.2,6.2,0,0,1,3.308-.882,6.062,6.062,0,0,1,4.576,1.764c1.158,1.158,1.709,2.977,1.709,5.4v9.483h-2.757v-9.207c0-3.363-1.378-5.072-4.19-5.072a4.451,4.451,0,0,0-3.473,1.544,6.169,6.169,0,0,0-1.378,4.356v8.38H605Z" transform="translate(-413.243 -342.398)"/><path class="c" d="M267.9,418.053a10.445,10.445,0,0,1-5.624-1.489,10.091,10.091,0,0,1-3.749-4.135,13.588,13.588,0,0,1-1.323-6.175,12.916,12.916,0,0,1,1.378-6.175,10.122,10.122,0,0,1,3.859-4.19,11.3,11.3,0,0,1,5.9-1.489,10.352,10.352,0,0,1,6.4,1.875,8.568,8.568,0,0,1,3.308,5.128h-3.2a5.363,5.363,0,0,0-2.15-3.253,7.32,7.32,0,0,0-4.411-1.213,8.515,8.515,0,0,0-4.356,1.1,7.339,7.339,0,0,0-2.867,3.2,11.621,11.621,0,0,0-1.048,5.017,11.807,11.807,0,0,0,.992,5.017,7.259,7.259,0,0,0,2.812,3.2,7.56,7.56,0,0,0,4.19,1.1,6.87,6.87,0,0,0,5.513-2.15,9.813,9.813,0,0,0,2.15-5.844h-6.616v-2.15h9.428v12.24h-2.536l-.221-3.749a9.039,9.039,0,0,1-3.032,3.088A9.377,9.377,0,0,1,267.9,418.053Z" transform="translate(-257.2 -362.587)"/><path class="c" d="M307.094,423.481a7.957,7.957,0,0,1-4.135-1.048,7.318,7.318,0,0,1-2.812-2.977,10.287,10.287,0,0,1-.055-8.932,7.318,7.318,0,0,1,2.812-2.977,8.021,8.021,0,0,1,4.19-1.048,7.624,7.624,0,0,1,4.08,1.048,7.193,7.193,0,0,1,2.646,2.812,7.875,7.875,0,0,1,.937,3.749v1.544h-12.9a5.832,5.832,0,0,0,.882,3.088,5.046,5.046,0,0,0,1.93,1.819,4.868,4.868,0,0,0,2.481.607,5.161,5.161,0,0,0,2.867-.772,4.08,4.08,0,0,0,1.654-2.15h2.7a7.514,7.514,0,0,1-2.481,3.749A7.655,7.655,0,0,1,307.094,423.481Zm0-14.666a5.237,5.237,0,0,0-3.473,1.213,4.843,4.843,0,0,0-1.764,3.473h10.2a4.6,4.6,0,0,0-1.489-3.418A5.081,5.081,0,0,0,307.094,408.816Z" transform="translate(-275.999 -368.016)"/><path class="c" d="M331.2,423.1V406.886h2.481l.221,3.087a5.92,5.92,0,0,1,2.261-2.536,7.335,7.335,0,0,1,3.8-.937v2.867h-.772a7.059,7.059,0,0,0-2.646.5,4.133,4.133,0,0,0-1.93,1.709,6.4,6.4,0,0,0-.717,3.308v8.16h-2.7Z" transform="translate(-290.401 -368.016)"/><path class="c" d="M355.294,423.481a7.957,7.957,0,0,1-4.135-1.048,7.319,7.319,0,0,1-2.812-2.977,10.287,10.287,0,0,1-.055-8.932,7.319,7.319,0,0,1,2.812-2.977,8.021,8.021,0,0,1,4.19-1.048,7.624,7.624,0,0,1,4.08,1.048,7.192,7.192,0,0,1,2.646,2.812,7.875,7.875,0,0,1,.937,3.749v1.544h-12.9a5.832,5.832,0,0,0,.882,3.088,4.689,4.689,0,0,0,1.93,1.819,4.868,4.868,0,0,0,2.481.607,5.161,5.161,0,0,0,2.867-.772,4.08,4.08,0,0,0,1.654-2.15h2.7a7.514,7.514,0,0,1-2.481,3.749A7.655,7.655,0,0,1,355.294,423.481Zm0-14.666a5.237,5.237,0,0,0-3.473,1.213,4.843,4.843,0,0,0-1.764,3.473h10.2a4.6,4.6,0,0,0-1.489-3.418A5.081,5.081,0,0,0,355.294,408.816Z" transform="translate(-297.624 -368.016)"/><path class="c" d="M379.3,423.1V406.886h2.481l.165,2.922a5.647,5.647,0,0,1,2.26-2.426,6.2,6.2,0,0,1,3.308-.882,6.062,6.062,0,0,1,4.576,1.764c1.158,1.158,1.709,2.977,1.709,5.4v9.483h-2.757v-9.207c0-3.363-1.378-5.072-4.19-5.072a4.451,4.451,0,0,0-3.473,1.544A6.169,6.169,0,0,0,382,414.77v8.38h-2.7Z" transform="translate(-311.981 -368.016)"/><path class="c" d="M417.16,423.481a8.3,8.3,0,0,1-4.19-1.048,7.974,7.974,0,0,1-2.922-2.977,10.043,10.043,0,0,1,0-8.932,7.586,7.586,0,0,1,2.922-2.977,8.158,8.158,0,0,1,4.19-1.048,7.818,7.818,0,0,1,4.852,1.489,6.331,6.331,0,0,1,2.481,4.025h-2.812a3.661,3.661,0,0,0-1.6-2.316,5.243,5.243,0,0,0-2.977-.827,5.33,5.33,0,0,0-2.591.662,5.435,5.435,0,0,0-1.985,2.04,7.955,7.955,0,0,0,0,6.837,5.208,5.208,0,0,0,1.985,2.1,4.842,4.842,0,0,0,2.591.717,5.243,5.243,0,0,0,2.977-.827,3.638,3.638,0,0,0,1.6-2.371h2.812a6.35,6.35,0,0,1-2.481,3.97A7.819,7.819,0,0,1,417.16,423.481Z" transform="translate(-325.306 -368.016)"/><path class="c" d="M442.53,397.649a1.884,1.884,0,0,1-1.93-1.93,1.792,1.792,0,0,1,.551-1.323,2.016,2.016,0,0,1,1.378-.5,1.878,1.878,0,0,1,1.323.5,1.634,1.634,0,0,1,.551,1.323,1.829,1.829,0,0,1-.551,1.378A1.71,1.71,0,0,1,442.53,397.649Zm-1.378,19.793v-16.21h2.757v16.21Z" transform="translate(-339.484 -362.363)"/><path class="c" d="M457.21,423.526a7.453,7.453,0,0,1-3.363-.662,4.558,4.558,0,0,1-1.985-1.819,4.92,4.92,0,0,1-.662-2.481,4.33,4.33,0,0,1,1.875-3.8,8.9,8.9,0,0,1,5.183-1.323h4.356v-.221a4.319,4.319,0,0,0-1.1-3.2,4.038,4.038,0,0,0-2.977-1.1,4.657,4.657,0,0,0-2.757.827,3.446,3.446,0,0,0-1.434,2.316h-2.812a5.146,5.146,0,0,1,1.213-2.977,5.842,5.842,0,0,1,2.591-1.819,9.253,9.253,0,0,1,3.253-.662,6.764,6.764,0,0,1,5.127,1.819,6.642,6.642,0,0,1,1.709,4.8V423.2H463l-.165-2.922a5.739,5.739,0,0,1-1.985,2.316A6.465,6.465,0,0,1,457.21,423.526Zm.441-2.316a4.488,4.488,0,0,0,2.7-.827,5.046,5.046,0,0,0,1.709-2.15,6.7,6.7,0,0,0,.606-2.757v-.055h-4.135a5.45,5.45,0,0,0-3.418.827,2.636,2.636,0,0,0-.992,2.1,2.566,2.566,0,0,0,.937,2.04A3.344,3.344,0,0,0,457.651,421.211Z" transform="translate(-344.239 -368.061)"/><path class="c" d="M481.4,423.1V406.886h2.481l.221,2.371a5.325,5.325,0,0,1,2.1-2.04,5.885,5.885,0,0,1,2.922-.717,6.979,6.979,0,0,1,3.308.772,5.026,5.026,0,0,1,2.15,2.371,5.848,5.848,0,0,1,2.316-2.316,6.43,6.43,0,0,1,3.2-.827,6.277,6.277,0,0,1,4.631,1.764c1.158,1.158,1.709,2.977,1.709,5.4v9.483h-2.646v-9.207a6.255,6.255,0,0,0-.992-3.8,3.561,3.561,0,0,0-2.922-1.268,4.018,4.018,0,0,0-3.253,1.544,6.42,6.42,0,0,0-1.268,4.356v8.38h-2.757v-9.207a6.255,6.255,0,0,0-.992-3.8,3.41,3.41,0,0,0-2.922-1.268,3.915,3.915,0,0,0-3.2,1.544,6.42,6.42,0,0,0-1.268,4.356v8.38H481.4Z" transform="translate(-357.789 -368.016)"/><path class="c" d="M532.93,397.649a1.884,1.884,0,0,1-1.93-1.93,1.792,1.792,0,0,1,.551-1.323,2.016,2.016,0,0,1,1.378-.5,1.878,1.878,0,0,1,1.323.5,1.635,1.635,0,0,1,.551,1.323,1.829,1.829,0,0,1-.551,1.378A1.71,1.71,0,0,1,532.93,397.649Zm-1.378,19.793v-16.21h2.757v16.21Z" transform="translate(-380.042 -362.363)"/><path class="c" d="M549.394,423.481a7.957,7.957,0,0,1-4.135-1.048,7.318,7.318,0,0,1-2.812-2.977,10.288,10.288,0,0,1-.055-8.932,7.319,7.319,0,0,1,2.812-2.977,8.021,8.021,0,0,1,4.19-1.048,7.625,7.625,0,0,1,4.08,1.048,7.192,7.192,0,0,1,2.646,2.812,7.875,7.875,0,0,1,.937,3.749v1.544h-12.9a5.832,5.832,0,0,0,.882,3.088,4.69,4.69,0,0,0,1.93,1.819,4.868,4.868,0,0,0,2.481.607,5.161,5.161,0,0,0,2.867-.772,4.08,4.08,0,0,0,1.654-2.15h2.7a7.084,7.084,0,0,1-7.278,5.238Zm0-14.666a5.237,5.237,0,0,0-3.473,1.213,4.843,4.843,0,0,0-1.764,3.473h10.2a4.6,4.6,0,0,0-1.489-3.418A5.082,5.082,0,0,0,549.394,408.816Z" transform="translate(-384.708 -368.016)"/><path class="c" d="M573.5,423.1V406.886h2.481l.165,2.922a5.647,5.647,0,0,1,2.26-2.426,6.2,6.2,0,0,1,3.308-.882,6.062,6.062,0,0,1,4.576,1.764c1.158,1.158,1.709,2.977,1.709,5.4v9.483h-2.757v-9.207c0-3.363-1.378-5.072-4.19-5.072a4.451,4.451,0,0,0-3.473,1.544,6.169,6.169,0,0,0-1.378,4.356v8.38h-2.7Z" transform="translate(-399.11 -368.016)"/><path class="c" d="M609.853,420.179a5.143,5.143,0,0,1-3.473-1.1c-.827-.717-1.268-2.04-1.268-3.915V406.23H602.3v-2.316h2.812L605.5,400h2.371v3.915h4.8v2.316h-4.8v8.932a2.876,2.876,0,0,0,.606,2.1,3.318,3.318,0,0,0,2.205.551h1.709v2.371Z" transform="translate(-412.031 -365.1)"/><path class="c" d="M630.45,423.392a7.957,7.957,0,0,1-4.135-1.048,7.45,7.45,0,0,1-2.867-2.977,8.989,8.989,0,0,1-1.048-4.521,9.3,9.3,0,0,1,1.1-4.521,8.349,8.349,0,0,1,11.192-2.977,7.451,7.451,0,0,1,2.867,2.977,8.989,8.989,0,0,1,1.048,4.521,9.3,9.3,0,0,1-1.1,4.521,7.974,7.974,0,0,1-2.922,2.977A8.1,8.1,0,0,1,630.45,423.392Zm0-2.316a5.178,5.178,0,0,0,2.591-.662,5.434,5.434,0,0,0,1.985-2.04,7.121,7.121,0,0,0,.772-3.418,7.28,7.28,0,0,0-.717-3.418,4.948,4.948,0,0,0-1.93-2.04,5.33,5.33,0,0,0-2.591-.662,5.178,5.178,0,0,0-2.591.662,5.435,5.435,0,0,0-1.985,2.04,7.955,7.955,0,0,0,0,6.837,4.929,4.929,0,0,0,4.466,2.7Z" transform="translate(-421.049 -367.926)"/><path class="c" d="M265.25,475.028a8.25,8.25,0,0,1-4.245-1.1,7.462,7.462,0,0,1-2.812-3.032,9.384,9.384,0,0,1-.992-4.356,9.226,9.226,0,0,1,.992-4.356A7.825,7.825,0,0,1,261,459.15a8.108,8.108,0,0,1,4.245-1.1,7.407,7.407,0,0,1,3.529.827,5.866,5.866,0,0,1,2.371,2.26V451.1h2.757v23.542h-2.481l-.276-2.7a7.734,7.734,0,0,1-2.26,2.15A6.593,6.593,0,0,1,265.25,475.028Zm.331-2.371a5.432,5.432,0,0,0,2.867-.772,5.363,5.363,0,0,0,1.985-2.15,7.377,7.377,0,0,0,.717-3.2,6.521,6.521,0,0,0-.717-3.2,5.006,5.006,0,0,0-1.985-2.15,5.71,5.71,0,0,0-5.734,0,5.362,5.362,0,0,0-1.985,2.15,7.492,7.492,0,0,0,0,6.4,4.7,4.7,0,0,0,1.985,2.15A5.432,5.432,0,0,0,265.58,472.657Z" transform="translate(-257.2 -388.026)"/><path class="c" d="M299.494,480.681a7.957,7.957,0,0,1-4.135-1.048,7.319,7.319,0,0,1-2.812-2.977,10.287,10.287,0,0,1-.055-8.932,7.319,7.319,0,0,1,2.812-2.977,8.021,8.021,0,0,1,4.19-1.048,7.624,7.624,0,0,1,4.08,1.048,7.193,7.193,0,0,1,2.646,2.812,7.875,7.875,0,0,1,.937,3.749v1.544h-12.9a5.832,5.832,0,0,0,.882,3.088,4.689,4.689,0,0,0,1.93,1.819,4.868,4.868,0,0,0,2.481.606,5.161,5.161,0,0,0,2.867-.772,4.08,4.08,0,0,0,1.654-2.15h2.7a7.515,7.515,0,0,1-2.481,3.749A7.766,7.766,0,0,1,299.494,480.681Zm0-14.666a5.237,5.237,0,0,0-3.473,1.213,4.843,4.843,0,0,0-1.764,3.473h10.2a4.6,4.6,0,0,0-1.489-3.418A5.081,5.081,0,0,0,299.494,466.016Z" transform="translate(-272.589 -393.679)"/><path class="c" d="M346.2,475.208a11.439,11.439,0,0,1-5.9-1.489,10.047,10.047,0,0,1-3.97-4.19,13.245,13.245,0,0,1-1.433-6.175,13.085,13.085,0,0,1,1.433-6.175,10.741,10.741,0,0,1,3.97-4.19,11.438,11.438,0,0,1,5.9-1.489,11.643,11.643,0,0,1,5.954,1.489,9.922,9.922,0,0,1,3.915,4.19,14.521,14.521,0,0,1,0,12.35,10.628,10.628,0,0,1-3.915,4.19A11.643,11.643,0,0,1,346.2,475.208Zm0-2.426a8.872,8.872,0,0,0,4.411-1.1,7.44,7.44,0,0,0,2.977-3.253,10.954,10.954,0,0,0,1.048-5.072,10.718,10.718,0,0,0-1.048-5.017,7.606,7.606,0,0,0-2.977-3.2,9.373,9.373,0,0,0-8.822,0,7.606,7.606,0,0,0-2.977,3.2,10.872,10.872,0,0,0-1.048,5.017,11.27,11.27,0,0,0,1.048,5.072,7.753,7.753,0,0,0,2.977,3.253A8.33,8.33,0,0,0,346.2,472.782Z" transform="translate(-292.061 -388.206)"/><path class="c" d="M388.456,474.983a7.254,7.254,0,0,1-3.529-.827,5.651,5.651,0,0,1-2.371-2.316l-.276,2.7H379.8V451h2.757v9.979a7.735,7.735,0,0,1,2.261-2.15,6.925,6.925,0,0,1,3.694-.937,7.908,7.908,0,0,1,4.19,1.1,7.462,7.462,0,0,1,2.812,3.032,10.054,10.054,0,0,1,0,8.711,7.825,7.825,0,0,1-2.812,3.032A7.375,7.375,0,0,1,388.456,474.983Zm-.331-2.371a5.432,5.432,0,0,0,2.867-.772,5.363,5.363,0,0,0,1.985-2.15,6.668,6.668,0,0,0,.717-3.2,6.522,6.522,0,0,0-.717-3.2,5.362,5.362,0,0,0-1.985-2.15,5.71,5.71,0,0,0-5.734,0,5.362,5.362,0,0,0-1.985,2.15,7.492,7.492,0,0,0,0,6.4,5.363,5.363,0,0,0,1.985,2.15A5.576,5.576,0,0,0,388.125,472.613Z" transform="translate(-312.205 -387.981)"/><path class="c" d="M414,480.3v-16.21h2.481l.221,3.088a5.919,5.919,0,0,1,2.261-2.536,7.479,7.479,0,0,1,3.8-.937v2.867h-.772a7.059,7.059,0,0,0-2.646.5,4.133,4.133,0,0,0-1.93,1.709,6.4,6.4,0,0,0-.717,3.308v8.16H414Z" transform="translate(-327.549 -393.679)"/><path class="c" d="M437.51,480.726a7.453,7.453,0,0,1-3.363-.662,4.558,4.558,0,0,1-1.985-1.819,4.92,4.92,0,0,1-.662-2.481,4.33,4.33,0,0,1,1.875-3.8,8.9,8.9,0,0,1,5.183-1.323h4.356v-.221a4.319,4.319,0,0,0-1.1-3.2,4.038,4.038,0,0,0-2.977-1.1,4.657,4.657,0,0,0-2.757.827,3.446,3.446,0,0,0-1.434,2.316h-2.867a5.146,5.146,0,0,1,1.213-2.977,5.842,5.842,0,0,1,2.591-1.819,8.172,8.172,0,0,1,3.253-.662,6.764,6.764,0,0,1,5.128,1.819,6.642,6.642,0,0,1,1.709,4.8V480.4h-2.426l-.165-2.922a5.738,5.738,0,0,1-1.985,2.316A6.528,6.528,0,0,1,437.51,480.726Zm.386-2.316a4.488,4.488,0,0,0,2.7-.827,5.047,5.047,0,0,0,1.709-2.15,6.7,6.7,0,0,0,.606-2.757v-.055h-4.135a5.45,5.45,0,0,0-3.418.827,2.636,2.636,0,0,0-.992,2.1,2.566,2.566,0,0,0,.937,2.04A3.75,3.75,0,0,0,437.9,478.411Z" transform="translate(-335.401 -393.724)"/></g><g transform="translate(122.1 114.4)"><rect class="d" width="33.742" height="206.754" transform="translate(0 2.812)"/><g transform="translate(72.447)"><path class="e" d="M294.8,119.7H253.5v87.112h41.3c34.459,0,47.085-18.746,47.085-43.556C341.88,138.335,329.2,119.7,294.8,119.7Zm0,67.374H276.932l.11-47.8H294.8c15.052,0,23.653,8.1,23.653,23.983C318.448,179.025,309.847,187.074,294.8,187.074Z" transform="translate(-253.5 -116.778)"/><path class="e" d="M466.36,171.96h23.212c-2.922,12.24-14.831,15.162-22,15.162-14.335,0-25.307-10.7-25.307-26.244s10.806-26.244,25.913-26.244c9.759,0,16.981,4.686,19.793,11.413h23.212C506.939,123.663,487.2,114.4,467.739,114.4,438.518,114.4,419,133.256,419,160.878c0,27.457,20.345,46.478,46.754,46.478,13.012,0,22.77-4.521,29.166-11.192v8.27h17.312V157.68H466.305v14.28Z" transform="translate(-327.753 -114.4)"/><path class="e" d="M644.908,114.4c-29.056,0-48.408,18.856-48.408,46.478,0,27.457,19.407,46.478,48.408,46.478,28.945,0,48.353-18.966,48.353-46.478C693.261,133.256,673.853,114.4,644.908,114.4Zm0,72.722c-14.225,0-25.2-10.255-25.2-26.244,0-16.1,10.972-26.244,25.2-26.244,14.114,0,25.2,10.145,25.2,26.244C670.1,176.812,659.022,187.122,644.908,187.122Z" transform="translate(-407.389 -114.4)"/></g></g></g></g></g></svg>