<svg xmlns="http://www.w3.org/2000/svg" width="59.758" height="59.755" viewBox="0 0 59.758 59.755"><defs><style>.a{fill:#c9a967;}</style></defs><g transform="translate(0 -0.01)"><g transform="translate(0 0.011)"><path class="a" d="M56.256,32.221H55.089v-8.17a6.78,6.78,0,0,0-5.28-6.6L44.5,8.248a5.831,5.831,0,0,0-6.723-2.67L33.911,1.715a5.836,5.836,0,0,0-8.244,0L10.1,17.282H6.769A6.777,6.777,0,0,0,0,24.051V53a6.777,6.777,0,0,0,6.769,6.769H22.292a1.167,1.167,0,1,0,0-2.334H6.769A4.44,4.44,0,0,1,2.334,53V24.051a4.44,4.44,0,0,1,4.435-4.435H48.32a4.44,4.44,0,0,1,4.435,4.435v8.17H44.118a6.3,6.3,0,0,0,0,12.605h8.637V53a4.44,4.44,0,0,1-4.435,4.435H32.8a1.167,1.167,0,1,0,0,2.334H48.32A6.777,6.777,0,0,0,55.089,53v-8.17h1.167a3.505,3.505,0,0,0,3.5-3.5v-5.6A3.505,3.505,0,0,0,56.256,32.221ZM40.353,7.786a3.472,3.472,0,0,1,2.122,1.628l4.542,7.867H21.86L37.7,8.136a3.472,3.472,0,0,1,2.652-.349ZM27.318,3.366a3.495,3.495,0,0,1,4.943,0l3.307,3.307L17.191,17.282H13.4ZM57.424,41.325a1.168,1.168,0,0,1-1.167,1.167H44.118a3.968,3.968,0,1,1,0-7.937H56.256a1.168,1.168,0,0,1,1.167,1.167Z" transform="translate(0 -0.011)"/><path class="a" d="M367.5,319.988a1.168,1.168,0,1,0,.825.342A1.175,1.175,0,0,0,367.5,319.988Z" transform="translate(-323.574 -282.642)"/><path class="a" d="M227.167,491.988a1.168,1.168,0,1,0,.825.342A1.175,1.175,0,0,0,227.167,491.988Z" transform="translate(-199.623 -434.567)"/></g></g></svg>