<svg xmlns="http://www.w3.org/2000/svg" width="68.453" height="53.355" viewBox="0 0 68.453 53.355"><defs><style>.a{fill:#c9a967;}</style></defs><g transform="translate(0 -56.463)"><path class="a" d="M4.613,109.818H63.84a4.636,4.636,0,0,0,4.613-4.648v-2.7a1.787,1.787,0,0,0-1.781-1.788H63.244a5.648,5.648,0,0,0,1.311-3.6V84.4a1,1,0,1,0-2.005,0V97.08a3.689,3.689,0,0,1-3.007,3.6H8.911A3.689,3.689,0,0,1,5.9,97.08V62.126a3.661,3.661,0,0,1,3.657-3.657H58.892a3.661,3.661,0,0,1,3.657,3.657V79.716a1,1,0,1,0,2.005,0V62.126a5.669,5.669,0,0,0-5.663-5.663H9.561A5.669,5.669,0,0,0,3.9,62.126V97.08a5.647,5.647,0,0,0,1.311,3.6H1.781A1.787,1.787,0,0,0,0,102.467v2.7a4.636,4.636,0,0,0,4.613,4.649Zm20.924-7.134H42.916v.81a.618.618,0,0,1-.6.618H26.139a.618.618,0,0,1-.6-.618Zm-23.532,0H23.532v.81a2.618,2.618,0,0,0,2.607,2.623H42.314a2.618,2.618,0,0,0,2.607-2.623v-.81H66.447v2.485a2.629,2.629,0,0,1-2.608,2.643H4.613a2.629,2.629,0,0,1-2.608-2.643Z"/><path class="a" d="M84.27,89.546a1,1,0,0,0,0-2.005H62.307a1.841,1.841,0,0,0-1.839,1.839v34.24a1.841,1.841,0,0,0,1.839,1.839h48.607a1.841,1.841,0,0,0,1.839-1.839V89.379a1.841,1.841,0,0,0-1.839-1.839H88.95a1,1,0,0,0,0,2.005h21.8V92.5H67.908V89.545H84.27Zm19.807,33.907H94.283v-1.205a2.516,2.516,0,0,1,2.513-2.513h4.768a2.516,2.516,0,0,1,2.513,2.513v1.205Zm-6.888-7.715a1.991,1.991,0,1,1,.583,1.408A1.99,1.99,0,0,1,97.189,115.738ZM87.613,94.5h23.134v13.471h-4.664V106.77a4.526,4.526,0,0,0-3.508-4.4,4,4,0,0,0-.569-4.932h0a4,4,0,0,0-6.222,4.932,4.526,4.526,0,0,0-3.506,4.4v1.205H87.613V94.5Zm13.951,9.753a2.516,2.516,0,0,1,2.513,2.513v1.205H94.283V106.77a2.516,2.516,0,0,1,2.513-2.513Zm-4.375-4a1.991,1.991,0,1,1,.583,1.408A1.99,1.99,0,0,1,97.189,100.261Zm-9.576,9.72h23.134v13.471h-4.664v-1.205a4.526,4.526,0,0,0-3.507-4.4,4,4,0,0,0-.569-4.932h0a4,4,0,0,0-6.222,4.932,4.526,4.526,0,0,0-3.506,4.4v1.205H87.613ZM62.473,89.546H65.9V92.5H62.473Zm16.464,33.907H69.143v-1.205a2.516,2.516,0,0,1,2.513-2.513h4.768a2.516,2.516,0,0,1,2.513,2.513Zm-4.9-9.705a1.991,1.991,0,1,1-1.408,3.4A1.993,1.993,0,0,1,74.04,113.747Zm11.567,9.705H80.943v-1.205a4.526,4.526,0,0,0-3.507-4.4,4,4,0,0,0-.569-4.932h0a4,4,0,0,0-6.222,4.932,4.526,4.526,0,0,0-3.506,4.4v1.205H62.473V109.981H85.607Zm-9.183-19.2a2.516,2.516,0,0,1,2.513,2.513v1.205H69.143V106.77a2.516,2.516,0,0,1,2.513-2.513ZM74.04,98.27a1.991,1.991,0,1,1-1.408,3.4A1.993,1.993,0,0,1,74.04,98.27ZM85.607,94.5v13.471H80.943V106.77a4.526,4.526,0,0,0-3.508-4.4,4,4,0,0,0-.569-4.932h0a4,4,0,0,0-6.222,4.932,4.526,4.526,0,0,0-3.506,4.4v1.205H62.473V94.5Z" transform="translate(-52.384 -26.922)"/></g></svg>