<svg xmlns="http://www.w3.org/2000/svg" width="61.075" height="61.075" viewBox="0 0 61.075 61.075"><defs><style>.a{fill:#c9a967;}</style></defs><path class="a" d="M52.131,8.944A30.538,30.538,0,0,0,8.944,52.131,30.538,30.538,0,0,0,52.131,8.944Zm-1.35,41.837A28.629,28.629,0,0,1,10.294,10.294,28.629,28.629,0,0,1,50.781,50.781Z"/><path class="a" d="M33.909,58.72A24.816,24.816,0,0,1,72.5,38.087.954.954,0,1,0,73.566,36.5,26.722,26.722,0,0,0,38.8,76.533a.954.954,0,0,0,1.422-1.273A24.769,24.769,0,0,1,33.909,58.72Z" transform="translate(-28.183 -28.183)"/><path class="a" d="M151.388,128.42a.954.954,0,1,0-1.586,1.062,24.814,24.814,0,0,1-36.257,33.061.954.954,0,0,0-1.2,1.482,26.723,26.723,0,0,0,39.046-35.6Z" transform="translate(-98.631 -112.728)"/><path class="a" d="M392.311,88.659a25.033,25.033,0,0,1,1.839,1.826.954.954,0,1,0,1.413-1.283,26.991,26.991,0,0,0-1.979-1.966.954.954,0,0,0-1.273,1.422Z" transform="translate(-345.233 -76.616)"/><path class="a" d="M248.954,68.771a.954.954,0,0,0,.954-.954V64.954a.954.954,0,1,0-1.909,0v2.863A.954.954,0,0,0,248.954,68.771Z" transform="translate(-218.417 -56.366)"/><path class="a" d="M248,408.954v2.863a.954.954,0,1,0,1.909,0v-2.863a.954.954,0,1,0-1.909,0Z" transform="translate(-218.417 -359.331)"/><path class="a" d="M68.771,248.954a.954.954,0,0,0-.954-.954H64.954a.954.954,0,1,0,0,1.909h2.863A.954.954,0,0,0,68.771,248.954Z" transform="translate(-56.366 -218.417)"/><path class="a" d="M408,248.954a.954.954,0,0,0,.954.954h2.863a.954.954,0,1,0,0-1.909h-2.863A.954.954,0,0,0,408,248.954Z" transform="translate(-359.331 -218.417)"/><path class="a" d="M159.211,91.607l-1.431-2.479a.954.954,0,1,0-1.653.954l1.431,2.479a.954.954,0,1,0,1.653-.954Z" transform="translate(-137.39 -78.075)"/><path class="a" d="M329.78,387.041a.954.954,0,0,0-1.653.954l1.431,2.479a.954.954,0,0,0,1.653-.954Z" transform="translate(-288.873 -340.452)"/><path class="a" d="M89.606,331.34a.951.951,0,0,0,.476-.128l2.479-1.431a.954.954,0,0,0-.954-1.653l-2.479,1.431a.954.954,0,0,0,.478,1.781Z" transform="translate(-78.076 -288.874)"/><path class="a" d="M387.518,159.34a.951.951,0,0,0,.476-.128l2.479-1.431a.954.954,0,1,0-.954-1.653l-2.479,1.431a.954.954,0,0,0,.478,1.781Z" transform="translate(-340.451 -137.391)"/><path class="a" d="M330.862,88.777a.954.954,0,0,0-1.3.349l-1.431,2.479a.954.954,0,1,0,1.653.954l1.431-2.479A.954.954,0,0,0,330.862,88.777Z" transform="translate(-288.873 -78.075)"/><path class="a" d="M158.862,386.691a.954.954,0,0,0-1.3.349l-1.431,2.479a.954.954,0,1,0,1.653.954l1.431-2.479A.954.954,0,0,0,158.862,386.691Z" transform="translate(-137.39 -340.451)"/><path class="a" d="M387.04,329.779l2.479,1.431a.954.954,0,1,0,.954-1.653l-2.479-1.431a.954.954,0,0,0-.954,1.653Z" transform="translate(-340.451 -288.872)"/><path class="a" d="M92.561,157.558l-2.479-1.431a.954.954,0,0,0-.954,1.653l2.479,1.431a.954.954,0,1,0,.954-1.653Z" transform="translate(-78.075 -137.39)"/><path class="a" d="M241.506,148.683a.954.954,0,0,0,.826-1.432l-5.294-9.169a2.86,2.86,0,0,0-1.221-4.557v-12.57a.954.954,0,1,0-1.909,0v12.57a2.862,2.862,0,0,0,1.477,5.513l5.293,9.168A.954.954,0,0,0,241.506,148.683Zm-7.6-12.46a.954.954,0,1,1,.954.954A.955.955,0,0,1,233.909,136.223Z" transform="translate(-204.325 -105.686)"/></svg>