<svg xmlns="http://www.w3.org/2000/svg" width="55.522" height="62" viewBox="0 0 55.522 62"><defs><style>.a{fill:#c9a967;}</style></defs><g transform="translate(-25.627)"><path class="a" d="M69.658,30.449h4.3a1.771,1.771,0,0,0,1.765-1.773V24.352a1.771,1.771,0,0,0-1.765-1.773h-4.3a1.771,1.771,0,0,0-1.765,1.773v4.325A1.771,1.771,0,0,0,69.658,30.449Zm.043-6.055h4.218v4.238H69.7Zm-.043,17.559h4.3a1.771,1.771,0,0,0,1.765-1.773V35.855a1.771,1.771,0,0,0-1.765-1.773h-4.3a1.771,1.771,0,0,0-1.765,1.773V40.18A1.771,1.771,0,0,0,69.658,41.953ZM69.7,35.9h4.218v4.238H69.7ZM57.377,30.449h4.3a1.771,1.771,0,0,0,1.765-1.773V24.352a1.771,1.771,0,0,0-1.765-1.773h-4.3a1.771,1.771,0,0,0-1.765,1.773v4.325A1.771,1.771,0,0,0,57.377,30.449Zm.043-6.055h4.218v4.238H57.42Zm-20.3,20.652h-4.3A1.771,1.771,0,0,0,31.05,46.82v4.325a1.771,1.771,0,0,0,1.765,1.773h4.3a1.771,1.771,0,0,0,1.765-1.773V46.82A1.771,1.771,0,0,0,37.118,45.047ZM37.075,51.1H32.857V46.863h4.218Zm.043-28.523h-4.3a1.771,1.771,0,0,0-1.765,1.773v4.325a1.771,1.771,0,0,0,1.765,1.773h4.3a1.771,1.771,0,0,0,1.765-1.773V24.352A1.771,1.771,0,0,0,37.118,22.578Zm-.043,6.055H32.857V24.395h4.218Zm20.3,13.051h4.3a1.771,1.771,0,0,0,1.765-1.773V35.586a1.771,1.771,0,0,0-1.765-1.773h-4.3a1.771,1.771,0,0,0-1.765,1.773v4.325A1.771,1.771,0,0,0,57.377,41.684Zm.043-6.055h4.218v4.238H57.42ZM76.624,4.15H72.76V2.762A2.758,2.758,0,0,0,70.012,0H69.6a2.758,2.758,0,0,0-2.748,2.762V4.15H39.928V2.762A2.758,2.758,0,0,0,37.179,0h-.415a2.758,2.758,0,0,0-2.748,2.762V4.15H30.152A4.541,4.541,0,0,0,25.627,8.7V57.459A4.535,4.535,0,0,0,30.146,62H76.63a4.535,4.535,0,0,0,4.519-4.541V8.7A4.541,4.541,0,0,0,76.624,4.15ZM68.656,2.762a.944.944,0,0,1,.941-.945h.415a.944.944,0,0,1,.941.945V4.15h-2.3Zm-32.832,0a.944.944,0,0,1,.941-.945h.415a.944.944,0,0,1,.941.945V4.15h-2.3V2.762Zm43.518,54.7a2.721,2.721,0,0,1-2.711,2.725H30.146a2.721,2.721,0,0,1-2.711-2.725v-.006a4.487,4.487,0,0,0,2.718.914H66.8A4.484,4.484,0,0,0,70,57.035l9.347-9.392ZM69.073,55.393a3.9,3.9,0,0,0,.109-.916V48.415a2.071,2.071,0,0,1,2.063-2.073h6.033a3.848,3.848,0,0,0,.911-.11ZM79.342,17.129H40.831a.908.908,0,0,0,0,1.816h38.51V42.452a2.071,2.071,0,0,1-2.063,2.073H71.246a3.885,3.885,0,0,0-3.871,3.89v6.062a2.071,2.071,0,0,1-2.063,2.073H30.152a2.727,2.727,0,0,1-2.717-2.731V18.946h9.782a.908.908,0,0,0,0-1.816H27.434V8.7a2.727,2.727,0,0,1,2.717-2.731h3.864v2.67A2.758,2.758,0,0,0,36.764,11.4a.908.908,0,0,0,0-1.816.944.944,0,0,1-.941-.945V5.967H66.848v2.67A2.758,2.758,0,0,0,69.6,11.4a.908.908,0,0,0,0-1.816.944.944,0,0,1-.941-.945V5.967h7.968A2.727,2.727,0,0,1,79.342,8.7ZM37.118,33.813h-4.3a1.771,1.771,0,0,0-1.765,1.773v4.325a1.771,1.771,0,0,0,1.765,1.773h4.3a1.771,1.771,0,0,0,1.765-1.773V35.586A1.771,1.771,0,0,0,37.118,33.813Zm-.043,6.055H32.857V35.629h4.218ZM45.1,30.449h4.3a1.771,1.771,0,0,0,1.765-1.773V24.352A1.771,1.771,0,0,0,49.4,22.578H45.1a1.771,1.771,0,0,0-1.765,1.773v4.325A1.771,1.771,0,0,0,45.1,30.449Zm.043-6.055h4.218v4.238H45.139ZM57.419,51.1a.9.9,0,0,0-1.807.043,1.771,1.771,0,0,0,1.765,1.773h4.3a1.771,1.771,0,0,0,1.765-1.773V46.82a1.771,1.771,0,0,0-1.765-1.773h-4.3a1.771,1.771,0,0,0-1.765,1.773v1.247a.9.9,0,1,0,1.808,0v-1.2h4.218V51.1ZM45.1,41.684h4.3a1.771,1.771,0,0,0,1.765-1.773V35.586A1.771,1.771,0,0,0,49.4,33.813H45.1a1.771,1.771,0,0,0-1.765,1.773v4.325A1.771,1.771,0,0,0,45.1,41.684Zm.043-6.055h4.218v4.238H45.139ZM45.1,52.918h4.3a1.771,1.771,0,0,0,1.765-1.773V46.82A1.771,1.771,0,0,0,49.4,45.047H45.1a1.771,1.771,0,0,0-1.765,1.773v4.325A1.771,1.771,0,0,0,45.1,52.918Zm.043-6.055h4.218V51.1H45.139Z" transform="translate(0 0)"/></g></svg>