<svg width="730" height="409" viewBox="0 0 730 409" fill="none" xmlns="http://www.w3.org/2000/svg">
<path d="M102.3 102H91.9336V65.8525H52.5098V102H42.1973V23.7969H52.5098V57.4199H91.9336V23.7969H102.3V102ZM143.174 103.074C135.296 103.074 128.887 100.496 123.945 95.3398C119.004 90.1478 116.533 83.2191 116.533 74.5537V72.7275C116.533 66.9626 117.625 61.8242 119.81 57.3125C122.03 52.765 125.109 49.2201 129.048 46.6777C133.022 44.0996 137.319 42.8105 141.938 42.8105C149.494 42.8105 155.366 45.2992 159.556 50.2764C163.745 55.2536 165.84 62.3792 165.84 71.6533V75.7891H126.47C126.613 81.5182 128.278 86.1553 131.465 89.7002C134.688 93.2093 138.77 94.9639 143.711 94.9639C147.22 94.9639 150.192 94.2477 152.627 92.8154C155.062 91.3831 157.192 89.4854 159.019 87.1221L165.088 91.8486C160.218 99.3324 152.913 103.074 143.174 103.074ZM141.938 50.9746C137.928 50.9746 134.562 52.4427 131.841 55.3789C129.119 58.2793 127.437 62.3613 126.792 67.625H155.903V66.873C155.617 61.8242 154.256 57.9212 151.821 55.1641C149.386 52.3711 146.092 50.9746 141.938 50.9746ZM205.479 52.8008C203.975 52.5501 202.345 52.4248 200.591 52.4248C194.074 52.4248 189.652 55.1999 187.324 60.75V102H177.388V43.8848H187.056L187.217 50.5986C190.475 45.4066 195.094 42.8105 201.074 42.8105C203.008 42.8105 204.476 43.0612 205.479 43.5625V52.8008ZM242.754 52.8008C241.25 52.5501 239.621 52.4248 237.866 52.4248C231.349 52.4248 226.927 55.1999 224.6 60.75V102H214.663V43.8848H224.331L224.492 50.5986C227.751 45.4066 232.37 42.8105 238.35 42.8105C240.283 42.8105 241.751 43.0612 242.754 43.5625V52.8008ZM285.669 102C285.096 100.854 284.631 98.8132 284.272 95.877C279.653 100.675 274.139 103.074 267.729 103.074C262 103.074 257.292 101.463 253.604 98.2402C249.951 94.9818 248.125 90.8639 248.125 85.8867C248.125 79.8353 250.417 75.1445 255 71.8145C259.619 68.4486 266.1 66.7656 274.443 66.7656H284.111V62.2002C284.111 58.7269 283.073 55.9697 280.996 53.9287C278.919 51.8519 275.858 50.8135 271.812 50.8135C268.267 50.8135 265.295 51.7087 262.896 53.499C260.496 55.2894 259.297 57.4557 259.297 59.998H249.307C249.307 57.0977 250.327 54.3047 252.368 51.6191C254.445 48.8978 257.238 46.7493 260.747 45.1738C264.292 43.5983 268.177 42.8105 272.402 42.8105C279.098 42.8105 284.344 44.4935 288.14 47.8594C291.935 51.1895 293.905 55.7907 294.048 61.6631V88.4111C294.048 93.7464 294.728 97.9896 296.089 101.141V102H285.669ZM269.18 94.4268C272.295 94.4268 275.249 93.6211 278.042 92.0098C280.835 90.3984 282.858 88.3037 284.111 85.7256V73.8018H276.323C264.149 73.8018 258.062 77.3646 258.062 84.4902C258.062 87.6055 259.1 90.0404 261.177 91.7949C263.254 93.5495 265.921 94.4268 269.18 94.4268ZM318.97 43.8848L319.238 50.3301C323.499 45.3171 329.246 42.8105 336.479 42.8105C344.608 42.8105 350.14 45.9258 353.076 52.1562C355.01 49.3633 357.516 47.1074 360.596 45.3887C363.711 43.6699 367.381 42.8105 371.606 42.8105C384.354 42.8105 390.835 49.5602 391.05 63.0596V102H381.113V63.6504C381.113 59.4967 380.164 56.3994 378.267 54.3584C376.369 52.2816 373.182 51.2432 368.706 51.2432C365.018 51.2432 361.956 52.3532 359.521 54.5732C357.087 56.7575 355.672 59.7116 355.278 63.4355V102H345.288V63.9189C345.288 55.4684 341.152 51.2432 332.881 51.2432C326.364 51.2432 321.906 54.0182 319.507 59.5684V102H309.57V43.8848H318.97ZM416.885 102H406.948V43.8848H416.885V102ZM406.143 28.4697C406.143 26.8584 406.626 25.4977 407.593 24.3877C408.595 23.2777 410.063 22.7227 411.997 22.7227C413.931 22.7227 415.399 23.2777 416.401 24.3877C417.404 25.4977 417.905 26.8584 417.905 28.4697C417.905 30.0811 417.404 31.4238 416.401 32.498C415.399 33.5723 413.931 34.1094 411.997 34.1094C410.063 34.1094 408.595 33.5723 407.593 32.498C406.626 31.4238 406.143 30.0811 406.143 28.4697ZM456.953 103.074C449.076 103.074 442.666 100.496 437.725 95.3398C432.783 90.1478 430.312 83.2191 430.312 74.5537V72.7275C430.312 66.9626 431.405 61.8242 433.589 57.3125C435.809 52.765 438.888 49.2201 442.827 46.6777C446.802 44.0996 451.099 42.8105 455.718 42.8105C463.273 42.8105 469.146 45.2992 473.335 50.2764C477.524 55.2536 479.619 62.3792 479.619 71.6533V75.7891H440.249C440.392 81.5182 442.057 86.1553 445.244 89.7002C448.467 93.2093 452.549 94.9639 457.49 94.9639C460.999 94.9639 463.971 94.2477 466.406 92.8154C468.841 91.3831 470.972 89.4854 472.798 87.1221L478.867 91.8486C473.997 99.3324 466.693 103.074 456.953 103.074ZM455.718 50.9746C451.707 50.9746 448.341 52.4427 445.62 55.3789C442.899 58.2793 441.216 62.3613 440.571 67.625H469.683V66.873C469.396 61.8242 468.035 57.9212 465.601 55.1641C463.166 52.3711 459.871 50.9746 455.718 50.9746ZM500.566 43.8848L500.889 51.1895C505.329 45.6035 511.13 42.8105 518.291 42.8105C530.573 42.8105 536.768 49.7393 536.875 63.5967V102H526.938V63.543C526.903 59.3535 525.936 56.2562 524.038 54.251C522.176 52.2458 519.258 51.2432 515.283 51.2432C512.061 51.2432 509.232 52.1025 506.797 53.8213C504.362 55.54 502.464 57.7959 501.104 60.5889V102H491.167V43.8848H500.566ZM565.342 29.8125V43.8848H576.191V51.5654H565.342V87.6055C565.342 89.9329 565.825 91.6875 566.792 92.8691C567.759 94.015 569.406 94.5879 571.733 94.5879C572.879 94.5879 574.455 94.373 576.46 93.9434V102C573.846 102.716 571.304 103.074 568.833 103.074C564.393 103.074 561.045 101.731 558.789 99.0459C556.533 96.3604 555.405 92.5469 555.405 87.6055V51.5654H544.824V43.8848H555.405V29.8125H565.342ZM623.726 102C623.153 100.854 622.687 98.8132 622.329 95.877C617.71 100.675 612.196 103.074 605.786 103.074C600.057 103.074 595.348 101.463 591.66 98.2402C588.008 94.9818 586.182 90.8639 586.182 85.8867C586.182 79.8353 588.473 75.1445 593.057 71.8145C597.676 68.4486 604.157 66.7656 612.5 66.7656H622.168V62.2002C622.168 58.7269 621.13 55.9697 619.053 53.9287C616.976 51.8519 613.914 50.8135 609.868 50.8135C606.323 50.8135 603.351 51.7087 600.952 53.499C598.553 55.2894 597.354 57.4557 597.354 59.998H587.363C587.363 57.0977 588.384 54.3047 590.425 51.6191C592.502 48.8978 595.295 46.7493 598.804 45.1738C602.349 43.5983 606.234 42.8105 610.459 42.8105C617.155 42.8105 622.401 44.4935 626.196 47.8594C629.992 51.1895 631.961 55.7907 632.104 61.6631V88.4111C632.104 93.7464 632.785 97.9896 634.146 101.141V102H623.726ZM607.236 94.4268C610.352 94.4268 613.306 93.6211 616.099 92.0098C618.892 90.3984 620.915 88.3037 622.168 85.7256V73.8018H614.38C602.205 73.8018 596.118 77.3646 596.118 84.4902C596.118 87.6055 597.157 90.0404 599.233 91.7949C601.31 93.5495 603.978 94.4268 607.236 94.4268ZM681.519 86.585C681.519 83.8994 680.498 81.8226 678.457 80.3545C676.452 78.8506 672.925 77.5615 667.876 76.4873C662.863 75.4131 658.87 74.124 655.898 72.6201C652.962 71.1162 650.778 69.3258 649.346 67.249C647.949 65.1722 647.251 62.7015 647.251 59.8369C647.251 55.0745 649.256 51.0462 653.267 47.752C657.313 44.4577 662.469 42.8105 668.735 42.8105C675.324 42.8105 680.659 44.5114 684.741 47.9131C688.859 51.3148 690.918 55.6654 690.918 60.9648H680.928C680.928 58.2435 679.764 55.8981 677.437 53.9287C675.145 51.9593 672.244 50.9746 668.735 50.9746C665.119 50.9746 662.29 51.7624 660.249 53.3379C658.208 54.9134 657.188 56.9723 657.188 59.5146C657.188 61.9137 658.136 63.722 660.034 64.9395C661.932 66.1569 665.352 67.3206 670.293 68.4307C675.27 69.5407 679.299 70.8656 682.378 72.4053C685.457 73.945 687.731 75.807 689.199 77.9912C690.703 80.1396 691.455 82.7715 691.455 85.8867C691.455 91.0788 689.378 95.2503 685.225 98.4014C681.071 101.517 675.682 103.074 669.058 103.074C664.403 103.074 660.285 102.251 656.704 100.604C653.123 98.9564 650.312 96.6647 648.271 93.7285C646.266 90.7565 645.264 87.5518 645.264 84.1143H655.2C655.379 87.4443 656.704 90.0941 659.175 92.0635C661.681 93.9971 664.976 94.9639 669.058 94.9639C672.817 94.9639 675.825 94.2119 678.081 92.708C680.373 91.1683 681.519 89.1273 681.519 86.585ZM309.893 201.459C309.893 192.543 312.005 185.382 316.23 179.975C320.456 174.532 325.988 171.811 332.827 171.811C339.631 171.811 345.02 174.138 348.994 178.793V148.5H358.931V231H349.8L349.316 224.77C345.342 229.639 339.81 232.074 332.72 232.074C325.988 232.074 320.492 229.317 316.23 223.803C312.005 218.288 309.893 211.091 309.893 202.211V201.459ZM319.829 202.587C319.829 209.175 321.19 214.332 323.911 218.056C326.632 221.78 330.392 223.642 335.19 223.642C341.493 223.642 346.094 220.813 348.994 215.155V188.461C346.022 182.982 341.457 180.243 335.298 180.243C330.428 180.243 326.632 182.123 323.911 185.883C321.19 189.643 319.829 195.211 319.829 202.587ZM398.516 232.074C390.638 232.074 384.229 229.496 379.287 224.34C374.346 219.148 371.875 212.219 371.875 203.554V201.728C371.875 195.963 372.967 190.824 375.151 186.312C377.371 181.765 380.451 178.22 384.39 175.678C388.364 173.1 392.661 171.811 397.28 171.811C404.836 171.811 410.708 174.299 414.897 179.276C419.087 184.254 421.182 191.379 421.182 200.653V204.789H381.812C381.955 210.518 383.62 215.155 386.807 218.7C390.029 222.209 394.111 223.964 399.053 223.964C402.562 223.964 405.534 223.248 407.969 221.815C410.404 220.383 412.534 218.485 414.36 216.122L420.43 220.849C415.56 228.332 408.255 232.074 398.516 232.074ZM397.28 179.975C393.27 179.975 389.904 181.443 387.183 184.379C384.461 187.279 382.778 191.361 382.134 196.625H411.245V195.873C410.959 190.824 409.598 186.921 407.163 184.164C404.728 181.371 401.434 179.975 397.28 179.975ZM46.6553 329.385V360H36.3428V281.797H65.1855C73.7435 281.797 80.4395 283.981 85.2734 288.35C90.1432 292.718 92.5781 298.501 92.5781 305.698C92.5781 313.289 90.1969 319.144 85.4346 323.262C80.708 327.344 73.9225 329.385 65.0781 329.385H46.6553ZM46.6553 320.952H65.1855C70.6999 320.952 74.9251 319.663 77.8613 317.085C80.7975 314.471 82.2656 310.711 82.2656 305.806C82.2656 301.151 80.7975 297.427 77.8613 294.634C74.9251 291.841 70.8968 290.391 65.7764 290.283H46.6553V320.952ZM132.271 310.801C130.767 310.55 129.137 310.425 127.383 310.425C120.866 310.425 116.444 313.2 114.116 318.75V360H104.18V301.885H113.848L114.009 308.599C117.267 303.407 121.886 300.811 127.866 300.811C129.8 300.811 131.268 301.061 132.271 301.562V310.801ZM137.749 330.405C137.749 324.712 138.859 319.591 141.079 315.044C143.335 310.496 146.45 306.987 150.425 304.517C154.435 302.046 159.001 300.811 164.121 300.811C172.035 300.811 178.426 303.55 183.296 309.028C188.201 314.507 190.654 321.794 190.654 330.889V331.587C190.654 337.244 189.562 342.329 187.378 346.841C185.229 351.317 182.132 354.808 178.086 357.314C174.076 359.821 169.456 361.074 164.229 361.074C156.351 361.074 149.959 358.335 145.054 352.856C140.184 347.378 137.749 340.127 137.749 331.104V330.405ZM147.739 331.587C147.739 338.032 149.225 343.206 152.197 347.109C155.205 351.012 159.215 352.964 164.229 352.964C169.277 352.964 173.288 350.994 176.26 347.056C179.232 343.081 180.718 337.531 180.718 330.405C180.718 324.032 179.196 318.875 176.152 314.937C173.145 310.962 169.134 308.975 164.121 308.975C159.215 308.975 155.259 310.926 152.251 314.829C149.243 318.732 147.739 324.318 147.739 331.587ZM200.698 330.459C200.698 321.543 202.811 314.382 207.036 308.975C211.261 303.532 216.794 300.811 223.633 300.811C230.436 300.811 235.825 303.138 239.8 307.793V277.5H249.736V360H240.605L240.122 353.77C236.147 358.639 230.615 361.074 223.525 361.074C216.794 361.074 211.297 358.317 207.036 352.803C202.811 347.288 200.698 340.091 200.698 331.211V330.459ZM210.635 331.587C210.635 338.175 211.995 343.332 214.717 347.056C217.438 350.78 221.198 352.642 225.996 352.642C232.298 352.642 236.899 349.813 239.8 344.155V317.461C236.828 311.982 232.262 309.243 226.104 309.243C221.234 309.243 217.438 311.123 214.717 314.883C211.995 318.643 210.635 324.211 210.635 331.587ZM301.084 354.253C297.217 358.8 291.541 361.074 284.058 361.074C277.863 361.074 273.136 359.284 269.878 355.703C266.655 352.087 265.026 346.751 264.99 339.697V301.885H274.927V339.429C274.927 348.237 278.507 352.642 285.669 352.642C293.26 352.642 298.309 349.813 300.815 344.155V301.885H310.752V360H301.299L301.084 354.253ZM349.209 352.964C352.754 352.964 355.851 351.89 358.501 349.741C361.151 347.593 362.619 344.907 362.905 341.685H372.305C372.126 345.015 370.98 348.184 368.867 351.191C366.755 354.199 363.926 356.598 360.381 358.389C356.872 360.179 353.148 361.074 349.209 361.074C341.296 361.074 334.993 358.442 330.303 353.179C325.648 347.879 323.32 340.646 323.32 331.479V329.814C323.32 324.157 324.359 319.126 326.436 314.722C328.512 310.317 331.484 306.898 335.352 304.463C339.255 302.028 343.856 300.811 349.155 300.811C355.672 300.811 361.079 302.762 365.376 306.665C369.709 310.568 372.018 315.635 372.305 321.865H362.905C362.619 318.105 361.187 315.026 358.608 312.627C356.066 310.192 352.915 308.975 349.155 308.975C344.106 308.975 340.186 310.801 337.393 314.453C334.635 318.07 333.257 323.315 333.257 330.19V332.07C333.257 338.766 334.635 343.923 337.393 347.539C340.15 351.156 344.089 352.964 349.209 352.964ZM396.958 287.812V301.885H407.808V309.565H396.958V345.605C396.958 347.933 397.441 349.688 398.408 350.869C399.375 352.015 401.022 352.588 403.35 352.588C404.495 352.588 406.071 352.373 408.076 351.943V360C405.462 360.716 402.92 361.074 400.449 361.074C396.009 361.074 392.661 359.731 390.405 357.046C388.149 354.36 387.021 350.547 387.021 345.605V309.565H376.44V301.885H387.021V287.812H396.958ZM430.259 360H420.322V301.885H430.259V360ZM419.517 286.47C419.517 284.858 420 283.498 420.967 282.388C421.969 281.278 423.438 280.723 425.371 280.723C427.305 280.723 428.773 281.278 429.775 282.388C430.778 283.498 431.279 284.858 431.279 286.47C431.279 288.081 430.778 289.424 429.775 290.498C428.773 291.572 427.305 292.109 425.371 292.109C423.438 292.109 421.969 291.572 420.967 290.498C420 289.424 419.517 288.081 419.517 286.47ZM465.386 346.519L479.78 301.885H489.932L469.092 360H461.519L440.464 301.885H450.615L465.386 346.519ZM510.288 360H500.352V301.885H510.288V360ZM499.546 286.47C499.546 284.858 500.029 283.498 500.996 282.388C501.999 281.278 503.467 280.723 505.4 280.723C507.334 280.723 508.802 281.278 509.805 282.388C510.807 283.498 511.309 284.858 511.309 286.47C511.309 288.081 510.807 289.424 509.805 290.498C508.802 291.572 507.334 292.109 505.4 292.109C503.467 292.109 501.999 291.572 500.996 290.498C500.029 289.424 499.546 288.081 499.546 286.47ZM523.823 330.459C523.823 321.543 525.936 314.382 530.161 308.975C534.386 303.532 539.919 300.811 546.758 300.811C553.561 300.811 558.95 303.138 562.925 307.793V277.5H572.861V360H563.73L563.247 353.77C559.272 358.639 553.74 361.074 546.65 361.074C539.919 361.074 534.422 358.317 530.161 352.803C525.936 347.288 523.823 340.091 523.823 331.211V330.459ZM533.76 331.587C533.76 338.175 535.12 343.332 537.842 347.056C540.563 350.78 544.323 352.642 549.121 352.642C555.423 352.642 560.024 349.813 562.925 344.155V317.461C559.953 311.982 555.387 309.243 549.229 309.243C544.359 309.243 540.563 311.123 537.842 314.883C535.12 318.643 533.76 324.211 533.76 331.587ZM624.209 360C623.636 358.854 623.171 356.813 622.812 353.877C618.193 358.675 612.679 361.074 606.27 361.074C600.54 361.074 595.832 359.463 592.144 356.24C588.491 352.982 586.665 348.864 586.665 343.887C586.665 337.835 588.957 333.145 593.54 329.814C598.159 326.449 604.64 324.766 612.983 324.766H622.651V320.2C622.651 316.727 621.613 313.97 619.536 311.929C617.459 309.852 614.398 308.813 610.352 308.813C606.807 308.813 603.835 309.709 601.436 311.499C599.036 313.289 597.837 315.456 597.837 317.998H587.847C587.847 315.098 588.867 312.305 590.908 309.619C592.985 306.898 595.778 304.749 599.287 303.174C602.832 301.598 606.717 300.811 610.942 300.811C617.638 300.811 622.884 302.493 626.68 305.859C630.475 309.189 632.445 313.791 632.588 319.663V346.411C632.588 351.746 633.268 355.99 634.629 359.141V360H624.209ZM607.72 352.427C610.835 352.427 613.789 351.621 616.582 350.01C619.375 348.398 621.398 346.304 622.651 343.726V331.802H614.863C602.689 331.802 596.602 335.365 596.602 342.49C596.602 345.605 597.64 348.04 599.717 349.795C601.794 351.549 604.461 352.427 607.72 352.427ZM645.747 330.459C645.747 321.543 647.86 314.382 652.085 308.975C656.31 303.532 661.842 300.811 668.682 300.811C675.485 300.811 680.874 303.138 684.849 307.793V277.5H694.785V360H685.654L685.171 353.77C681.196 358.639 675.664 361.074 668.574 361.074C661.842 361.074 656.346 358.317 652.085 352.803C647.86 347.288 645.747 340.091 645.747 331.211V330.459ZM655.684 331.587C655.684 338.175 657.044 343.332 659.766 347.056C662.487 350.78 666.247 352.642 671.045 352.642C677.347 352.642 681.948 349.813 684.849 344.155V317.461C681.877 311.982 677.311 309.243 671.152 309.243C666.283 309.243 662.487 311.123 659.766 314.883C657.044 318.643 655.684 324.211 655.684 331.587Z" fill="#4EC67F"/>
</svg>
