<svg xmlns="http://www.w3.org/2000/svg" width="400" height="405" viewBox="0 0 400 405"><defs><style>.a{fill:#a5a5a5;}.b{fill:#c9a967;}.c{fill:none;}</style></defs><g transform="translate(85 52.814)"><path class="a" d="M116.25,828.892l6.572-17.822H125.1l6.546,17.822h-2.269l-1.628-4.582h-7.6l-1.654,4.582Zm4.534-6.3h6.333l-3.159-8.81Z" transform="translate(-115.483 -553.506)"/><path class="a" d="M164.9,837.422a6.032,6.032,0,0,1-3.766-1.144,4.47,4.47,0,0,1-1.758-3.107h2.191a3.014,3.014,0,0,0,1.058,1.717,3.424,3.424,0,0,0,2.3.745,2.893,2.893,0,0,0,1.986-.574,1.77,1.77,0,0,0,.637-1.364,1.531,1.531,0,0,0-.827-1.527,11.22,11.22,0,0,0-2.328-.685,13.406,13.406,0,0,1-2.038-.585,4.64,4.64,0,0,1-1.706-1.084,2.519,2.519,0,0,1-.689-1.863,3.405,3.405,0,0,1,1.237-2.712,4.983,4.983,0,0,1,3.353-1.058,5.19,5.19,0,0,1,3.3,1.006,4.02,4.02,0,0,1,1.49,2.865h-2.116a2.213,2.213,0,0,0-.827-1.516,2.954,2.954,0,0,0-1.863-.548,2.842,2.842,0,0,0-1.77.484,1.539,1.539,0,0,0-.626,1.274,1.319,1.319,0,0,0,.8,1.2,8.4,8.4,0,0,0,2.176.745,19.267,19.267,0,0,1,2.235.626,4.213,4.213,0,0,1,1.732,1.1,2.98,2.98,0,0,1,.674,2.1,3.461,3.461,0,0,1-1.285,2.813A5.435,5.435,0,0,1,164.9,837.422Z" transform="translate(-142.545 -561.73)"/><path class="a" d="M197.1,837.427a6.179,6.179,0,0,1-3.208-.827,5.868,5.868,0,0,1-2.205-2.306,7.216,7.216,0,0,1-.8-3.487,7.339,7.339,0,0,1,.79-3.476,5.741,5.741,0,0,1,2.2-2.317,6.368,6.368,0,0,1,3.275-.827,5.891,5.891,0,0,1,3.167.827,5.588,5.588,0,0,1,2.053,2.179,6.136,6.136,0,0,1,.712,2.9v1.2H193.025a4.976,4.976,0,0,0,.674,2.406,3.982,3.982,0,0,0,3.427,1.922,3.826,3.826,0,0,0,2.213-.611,3.512,3.512,0,0,0,1.274-1.654h2.112A5.551,5.551,0,0,1,197.1,837.427Zm0-11.433a4.254,4.254,0,0,0-2.712.931,3.725,3.725,0,0,0-1.363,2.712h7.961a3.614,3.614,0,0,0-1.174-2.675,3.931,3.931,0,0,0-2.712-.984Z" transform="translate(-162.313 -561.735)"/><path class="a" d="M231.818,837.422a6.035,6.035,0,0,1-3.774-1.144,4.47,4.47,0,0,1-1.755-3.107h2.187a3.033,3.033,0,0,0,1.058,1.717,3.443,3.443,0,0,0,2.306.745,2.9,2.9,0,0,0,1.986-.574,1.77,1.77,0,0,0,.637-1.364,1.533,1.533,0,0,0-.831-1.527,11.147,11.147,0,0,0-2.328-.685,13.533,13.533,0,0,1-2.038-.585,4.639,4.639,0,0,1-1.706-1.084,2.515,2.515,0,0,1-.685-1.863,3.4,3.4,0,0,1,1.233-2.712,4.978,4.978,0,0,1,3.353-1.058,5.19,5.19,0,0,1,3.3,1.006,4.02,4.02,0,0,1,1.49,2.865h-2.112a2.213,2.213,0,0,0-.827-1.516,2.981,2.981,0,0,0-1.863-.548,2.85,2.85,0,0,0-1.77.484,1.535,1.535,0,0,0-.622,1.274,1.315,1.315,0,0,0,.8,1.2,8.455,8.455,0,0,0,2.176.745,19.241,19.241,0,0,1,2.235.626,4.213,4.213,0,0,1,1.732,1.1,2.981,2.981,0,0,1,.674,2.1,3.439,3.439,0,0,1-1.285,2.813A5.429,5.429,0,0,1,231.818,837.422Z" transform="translate(-184.529 -561.73)"/><path class="a" d="M264.108,837.43a6.4,6.4,0,0,1-3.211-.812,5.878,5.878,0,0,1-2.235-2.306,7.749,7.749,0,0,1,0-7,5.961,5.961,0,0,1,2.28-2.3,6.743,6.743,0,0,1,6.43,0,5.894,5.894,0,0,1,2.235,2.3,7.749,7.749,0,0,1,0,7,5.927,5.927,0,0,1-2.28,2.306A6.437,6.437,0,0,1,264.108,837.43Zm0-1.833a4.064,4.064,0,0,0,2.034-.533,4.013,4.013,0,0,0,1.531-1.606,5.483,5.483,0,0,0,.585-2.649,5.547,5.547,0,0,0-.574-2.649,3.9,3.9,0,0,0-1.516-1.6,4.013,4.013,0,0,0-5.577,1.6,6.289,6.289,0,0,0,0,5.3,4.054,4.054,0,0,0,1.516,1.606,3.965,3.965,0,0,0,2,.533Z" transform="translate(-204.315 -561.738)"/><path class="a" d="M296.63,837.1V824.468h1.933l.179,2.418a4.585,4.585,0,0,1,1.781-1.986,5.543,5.543,0,0,1,2.954-.745v2.235h-.585a5.345,5.345,0,0,0-2.064.373,3.155,3.155,0,0,0-1.49,1.337,5.1,5.1,0,0,0-.559,2.608v6.367Z" transform="translate(-228.664 -561.715)"/><path class="a" d="M318.36,827.731V815.1H320.5v12.629Zm.484-13.672v-1.606l5.342-3.234v1.863Z" transform="translate(-242.298 -552.345)"/><path class="a" d="M333.866,837.424a5.743,5.743,0,0,1-2.608-.533,3.647,3.647,0,0,1-1.553-1.427,3.841,3.841,0,0,1-.51-1.937,3.427,3.427,0,0,1,1.49-2.98,6.863,6.863,0,0,1,4.023-1.043h3.412v-.156a3.372,3.372,0,0,0-.864-2.507,3.167,3.167,0,0,0-2.317-.853,3.7,3.7,0,0,0-2.153.626,2.734,2.734,0,0,0-1.118,1.818h-2.191a4.053,4.053,0,0,1,.931-2.317,5.217,5.217,0,0,1,2-1.438,6.584,6.584,0,0,1,2.548-.5,4.775,4.775,0,0,1,5.32,5.167v7.767h-1.952l-.127-2.265a5.044,5.044,0,0,1-1.568,1.822A4.6,4.6,0,0,1,333.866,837.424Zm.332-1.807a3.476,3.476,0,0,0,2.1-.637,4.047,4.047,0,0,0,1.337-1.654,5.156,5.156,0,0,0,.458-2.138v-.026h-3.234a4.2,4.2,0,0,0-2.66.648,2.023,2.023,0,0,0-.775,1.617,1.952,1.952,0,0,0,.723,1.591A3.148,3.148,0,0,0,334.2,835.617Z" transform="translate(-249.095 -561.732)"/><path class="a" d="M378.673,843.254l3.129-6.825h-.745L376.05,825h2.317l4.176,9.828,4.43-9.828h2.217l-8.278,18.254Z" transform="translate(-278.497 -562.247)"/><path class="a" d="M429.7,828.892V811.07h10.848v1.755h-8.71v6.266h7.41v1.732h-7.41v8.069Z" transform="translate(-312.16 -553.506)"/><path class="a" d="M466.2,837.43a6.389,6.389,0,0,1-3.211-.812,5.886,5.886,0,0,1-2.254-2.306,7.1,7.1,0,0,1-.827-3.5,6.992,6.992,0,0,1,.842-3.5,5.961,5.961,0,0,1,2.28-2.3,6.736,6.736,0,0,1,6.426,0,5.9,5.9,0,0,1,2.235,2.3,7.1,7.1,0,0,1,.827,3.5,7.029,7.029,0,0,1-.838,3.5,5.927,5.927,0,0,1-2.28,2.306A6.445,6.445,0,0,1,466.2,837.43Zm0-1.833a4.076,4.076,0,0,0,2.034-.533,3.978,3.978,0,0,0,1.527-1.606,5.438,5.438,0,0,0,.589-2.649,5.587,5.587,0,0,0-.574-2.649,3.9,3.9,0,0,0-1.516-1.6,3.99,3.99,0,0,0-2.012-.536,4.054,4.054,0,0,0-2.038.536,4,4,0,0,0-1.527,1.6,6.289,6.289,0,0,0,0,5.3,4.053,4.053,0,0,0,1.516,1.606A3.965,3.965,0,0,0,466.2,835.6Z" transform="translate(-331.112 -561.738)"/><path class="a" d="M498.74,837.1V824.468h1.933l.179,2.418a4.585,4.585,0,0,1,1.781-1.985,5.535,5.535,0,0,1,2.954-.745v2.235H505a5.33,5.33,0,0,0-2.064.373,3.155,3.155,0,0,0-1.49,1.337,5.1,5.1,0,0,0-.559,2.608v6.367Z" transform="translate(-355.48 -561.715)"/><path class="a" d="M520.47,837.115V824.482h1.937l.153,1.833a4.3,4.3,0,0,1,1.628-1.58,4.679,4.679,0,0,1,2.291-.559,5.193,5.193,0,0,1,2.586.611,4.039,4.039,0,0,1,1.669,1.863,4.81,4.81,0,0,1,1.818-1.8,4.959,4.959,0,0,1,2.507-.663,4.862,4.862,0,0,1,3.617,1.364,5.72,5.72,0,0,1,1.349,4.187v7.384h-2.112v-7.153a4.682,4.682,0,0,0-.79-2.954,2.72,2.72,0,0,0-2.265-.995,3.182,3.182,0,0,0-2.533,1.185,5.07,5.07,0,0,0-1.006,3.375v6.542H529.18v-7.153a4.682,4.682,0,0,0-.79-2.954,2.723,2.723,0,0,0-2.269-.995,3.159,3.159,0,0,0-2.507,1.185,5.07,5.07,0,0,0-1.006,3.375v6.542Z" transform="translate(-369.115 -561.729)"/><path class="a" d="M581.976,837.423a5.744,5.744,0,0,1-2.608-.533,3.648,3.648,0,0,1-1.553-1.427,3.8,3.8,0,0,1-.51-1.937,3.427,3.427,0,0,1,1.49-2.98,6.862,6.862,0,0,1,4.023-1.043h3.412v-.157a3.372,3.372,0,0,0-.864-2.507,3.167,3.167,0,0,0-2.317-.853,3.7,3.7,0,0,0-2.153.626,2.719,2.719,0,0,0-1.118,1.818h-2.217a4.053,4.053,0,0,1,.931-2.317,5.216,5.216,0,0,1,2-1.438,6.571,6.571,0,0,1,2.548-.5,4.775,4.775,0,0,1,5.32,5.167v7.767H586.45l-.13-2.265a5,5,0,0,1-1.565,1.822A4.6,4.6,0,0,1,581.976,837.423Zm.328-1.807a3.479,3.479,0,0,0,2.1-.637,4.074,4.074,0,0,0,1.337-1.654,5.156,5.156,0,0,0,.458-2.138v-.026h-3.234a4.2,4.2,0,0,0-2.66.648,2.027,2.027,0,0,0-.779,1.617,1.956,1.956,0,0,0,.745,1.591A3.14,3.14,0,0,0,582.3,835.617Z" transform="translate(-404.774 -561.732)"/><path class="a" d="M617.371,837.425a6.388,6.388,0,0,1-3.245-.827,5.927,5.927,0,0,1-2.269-2.317,7.719,7.719,0,0,1,0-6.952,5.959,5.959,0,0,1,2.269-2.317,6.388,6.388,0,0,1,3.245-.827,6.08,6.08,0,0,1,3.781,1.17,5.108,5.108,0,0,1,1.948,3.133h-2.19a2.813,2.813,0,0,0-1.248-1.822,4.136,4.136,0,0,0-2.317-.648,3.964,3.964,0,0,0-3.539,2.138,6.289,6.289,0,0,0,0,5.3,4.1,4.1,0,0,0,1.527,1.617,3.943,3.943,0,0,0,2.012.548,4.134,4.134,0,0,0,2.317-.648,2.82,2.82,0,0,0,1.248-1.863h2.19a5.044,5.044,0,0,1-1.933,3.107A6.039,6.039,0,0,1,617.371,837.425Z" transform="translate(-425.938 -561.733)"/><path class="a" d="M649.328,812.576a1.438,1.438,0,0,1-1.49-1.49,1.367,1.367,0,0,1,.421-1.021,1.561,1.561,0,0,1,2.1,0,1.349,1.349,0,0,1,.432,1.021,1.408,1.408,0,0,1-.432,1.054A1.439,1.439,0,0,1,649.328,812.576Zm-1.058,15.431V815.374h2.138V828Z" transform="translate(-449.032 -552.621)"/><path class="a" d="M666.465,828.037a6.374,6.374,0,0,1-3.208-.812A5.863,5.863,0,0,1,661,824.919a7.105,7.105,0,0,1-.827-3.5,7.03,7.03,0,0,1,.838-3.5,5.962,5.962,0,0,1,2.28-2.3,6.743,6.743,0,0,1,6.43,0,5.928,5.928,0,0,1,2.254,2.3,7.1,7.1,0,0,1,.827,3.5,6.991,6.991,0,0,1-.842,3.5,5.927,5.927,0,0,1-2.28,2.306A6.439,6.439,0,0,1,666.465,828.037Zm0-1.833a4.1,4.1,0,0,0,2.038-.533,4.027,4.027,0,0,0,1.527-1.606,5.44,5.44,0,0,0,.585-2.634,5.545,5.545,0,0,0-.574-2.649,3.876,3.876,0,0,0-1.516-1.6,4.083,4.083,0,0,0-4.046,0,3.944,3.944,0,0,0-1.527,1.6,6.254,6.254,0,0,0,0,5.3,4.018,4.018,0,0,0,1.513,1.606A3.969,3.969,0,0,0,666.465,826.2Zm-.536-12.145v-1.606l5.357-3.234v1.863Z" transform="translate(-456.774 -552.345)"/><path class="a" d="M699,837.109V824.476h1.933l.127,2.265a4.635,4.635,0,0,1,1.758-1.885,4.955,4.955,0,0,1,2.608-.685,4.791,4.791,0,0,1,3.58,1.364,5.782,5.782,0,0,1,1.334,4.187v7.384H708.2v-7.153q0-3.953-3.26-3.949a3.514,3.514,0,0,0-2.708,1.185,4.824,4.824,0,0,0-1.084,3.375v6.542Z" transform="translate(-481.135 -561.723)"/><path class="a" d="M123.69,902.1a6.178,6.178,0,0,1-3.208-.827,5.849,5.849,0,0,1-2.2-2.3,7.2,7.2,0,0,1-.8-3.491,7.34,7.34,0,0,1,.79-3.476,5.763,5.763,0,0,1,2.2-2.317,6.366,6.366,0,0,1,3.275-.827,5.913,5.913,0,0,1,3.17.827,5.614,5.614,0,0,1,2.049,2.179,6.136,6.136,0,0,1,.712,2.9q0,.279,0,.559v.637H119.615a4.939,4.939,0,0,0,.674,2.407,3.957,3.957,0,0,0,1.49,1.438,4,4,0,0,0,1.922.484,3.843,3.843,0,0,0,2.235-.611,3.494,3.494,0,0,0,1.3-1.654h2.116a5.551,5.551,0,0,1-5.629,4.072Zm0-11.433a4.285,4.285,0,0,0-2.712.931,3.725,3.725,0,0,0-1.364,2.712h7.946a3.632,3.632,0,0,0-1.17-2.675A3.937,3.937,0,0,0,123.69,890.664Z" transform="translate(-116.251 -602.313)"/><path class="a" d="M154.73,901.817V889.188h1.937l.127,2.265a4.578,4.578,0,0,1,1.758-1.863,4.947,4.947,0,0,1,2.608-.689,4.78,4.78,0,0,1,3.576,1.364,5.794,5.794,0,0,1,1.337,4.187v7.384h-2.138v-7.153q0-3.953-3.26-3.949a3.52,3.52,0,0,0-2.712,1.185,4.824,4.824,0,0,0-1.084,3.375v6.542Z" transform="translate(-139.627 -602.338)"/><path class="a" d="M213.074,893.354a8.881,8.881,0,0,1-4.6-1.159,8.058,8.058,0,0,1-3.081-3.245,10.99,10.99,0,0,1,0-9.612,8.167,8.167,0,0,1,3.081-3.249,9.664,9.664,0,0,1,9.217,0,8.089,8.089,0,0,1,3.07,3.249,11.091,11.091,0,0,1,0,9.612,7.982,7.982,0,0,1-3.07,3.245,8.941,8.941,0,0,1-4.62,1.159Zm0-1.863a6.671,6.671,0,0,0,3.45-.879,5.99,5.99,0,0,0,2.317-2.522,9.742,9.742,0,0,0,0-7.857,6,6,0,0,0-2.317-2.507,7.209,7.209,0,0,0-6.9,0,5.961,5.961,0,0,0-2.317,2.507,9.686,9.686,0,0,0,0,7.857,5.96,5.96,0,0,0,2.317,2.522,6.664,6.664,0,0,0,3.45.861Z" transform="translate(-170.724 -593.57)"/><path class="a" d="M263.022,893.008a5.827,5.827,0,0,1-2.76-.637,4.373,4.373,0,0,1-1.863-1.781l-.2,2.112H256.26V874.37H258.4v7.794a6.078,6.078,0,0,1,1.743-1.658,5.215,5.215,0,0,1,2.891-.745,6.157,6.157,0,0,1,3.286.864,5.938,5.938,0,0,1,2.176,2.369,7.842,7.842,0,0,1,0,6.814,5.816,5.816,0,0,1-2.191,2.34A6.227,6.227,0,0,1,263.022,893.008Zm-.227-1.863a4.165,4.165,0,0,0,2.235-.6,4.218,4.218,0,0,0,1.527-1.669,5.819,5.819,0,0,0,0-4.992,4.232,4.232,0,0,0-7.536,0,5.853,5.853,0,0,0,0,4.992,4.076,4.076,0,0,0,3.77,2.265Z" transform="translate(-203.333 -593.224)"/><path class="a" d="M296.15,901.777V889.148h1.933l.179,2.418a4.59,4.59,0,0,1,1.784-1.986,5.523,5.523,0,0,1,2.951-.745v2.235h-.57a5.247,5.247,0,0,0-2.06.4,3.137,3.137,0,0,0-1.49,1.334,5.107,5.107,0,0,0-.559,2.608v6.363Z" transform="translate(-228.362 -602.299)"/><path class="a" d="M321.286,902.1a5.756,5.756,0,0,1-2.608-.533,3.625,3.625,0,0,1-1.553-1.427,3.836,3.836,0,0,1-.51-1.933,3.435,3.435,0,0,1,1.49-2.98,6.861,6.861,0,0,1,4.023-1.043h3.412v-.153a3.357,3.357,0,0,0-.868-2.511,3.166,3.166,0,0,0-2.317-.853,3.673,3.673,0,0,0-2.15.626,2.727,2.727,0,0,0-1.118,1.822H316.9a4.064,4.064,0,0,1,.928-2.317,5.216,5.216,0,0,1,2-1.442,6.631,6.631,0,0,1,2.544-.5,4.781,4.781,0,0,1,5.324,5.171v7.764h-1.911l-.127-2.265a5.069,5.069,0,0,1-1.565,1.822A4.612,4.612,0,0,1,321.286,902.1Zm.332-1.807a3.48,3.48,0,0,0,2.1-.637A4.075,4.075,0,0,0,325.056,898a5.156,5.156,0,0,0,.458-2.138v-.026h-3.234a4.2,4.2,0,0,0-2.664.648,2.023,2.023,0,0,0-.775,1.617,1.956,1.956,0,0,0,.726,1.591,3.118,3.118,0,0,0,2.049.6Z" transform="translate(-241.202 -602.316)"/><path class="a" d="M355.465,902.092a6.036,6.036,0,0,1-3.77-1.144,4.47,4.47,0,0,1-1.755-3.107h2.191a3.014,3.014,0,0,0,1.054,1.717,3.442,3.442,0,0,0,2.306.726,2.9,2.9,0,0,0,1.986-.574,1.766,1.766,0,0,0,.637-1.36,1.517,1.517,0,0,0-.827-1.531,11.17,11.17,0,0,0-2.332-.685,13.657,13.657,0,0,1-2.038-.585,4.622,4.622,0,0,1-1.7-1.084,2.518,2.518,0,0,1-.689-1.844,3.4,3.4,0,0,1,1.233-2.712,4.978,4.978,0,0,1,3.353-1.058,5.189,5.189,0,0,1,3.3,1.006,3.993,3.993,0,0,1,1.49,2.865h-2.112a2.212,2.212,0,0,0-.827-1.516,2.98,2.98,0,0,0-1.863-.548,2.85,2.85,0,0,0-1.781.481,1.542,1.542,0,0,0-.622,1.274,1.323,1.323,0,0,0,.8,1.2,8.485,8.485,0,0,0,2.179.745,19.4,19.4,0,0,1,2.235.626,4.214,4.214,0,0,1,1.732,1.1,2.98,2.98,0,0,1,.674,2.1,3.461,3.461,0,0,1-1.285,2.813A5.392,5.392,0,0,1,355.465,902.092Z" transform="translate(-262.114 -602.308)"/><path class="a" d="M404.925,893.348a8.492,8.492,0,0,1-4.523-1.158,7.8,7.8,0,0,1-2.939-3.234,11.619,11.619,0,0,1,0-9.623,7.91,7.91,0,0,1,2.939-3.249,8.461,8.461,0,0,1,4.523-1.17,8,8,0,0,1,4.977,1.464,6.563,6.563,0,0,1,2.455,4.1h-2.366a4.746,4.746,0,0,0-1.669-2.66,5.27,5.27,0,0,0-3.4-1.01,6.239,6.239,0,0,0-3.353.875,5.792,5.792,0,0,0-2.2,2.522,10.327,10.327,0,0,0,0,7.868,5.794,5.794,0,0,0,2.2,2.522,6.239,6.239,0,0,0,3.353.879,5.387,5.387,0,0,0,3.4-.983,4.616,4.616,0,0,0,1.669-2.608h2.366a6.494,6.494,0,0,1-2.455,4.024A8.047,8.047,0,0,1,404.925,893.348Z" transform="translate(-291.278 -593.564)"/><path class="a" d="M445.029,877.246a1.438,1.438,0,0,1-1.49-1.49,1.352,1.352,0,0,1,.421-1.021,1.464,1.464,0,0,1,1.054-.406,1.491,1.491,0,0,1,1.043.406,1.338,1.338,0,0,1,.436,1.021,1.4,1.4,0,0,1-.436,1.054,1.43,1.43,0,0,1-1.028.436Zm-1.069,15.431V880.047H446.1v12.629Z" transform="translate(-320.842 -593.198)"/><path class="a" d="M459.027,902.309,454.24,889.68h2.235l3.792,10.569,3.819-10.569h2.19l-4.787,12.629Z" transform="translate(-327.558 -602.831)"/><path class="a" d="M490.828,877.246a1.438,1.438,0,0,1-1.49-1.49,1.368,1.368,0,0,1,.421-1.021,1.561,1.561,0,0,1,2.1,0,1.349,1.349,0,0,1,.432,1.021,1.408,1.408,0,0,1-.432,1.054A1.438,1.438,0,0,1,490.828,877.246Zm-1.073,15.431V880.048H491.9v12.629Z" transform="translate(-349.58 -593.198)"/><path class="a" d="M503.11,892.7V874.37h2.138V892.7Z" transform="translate(-358.221 -593.224)"/><path class="a" d="M519.98,902.1a6.176,6.176,0,0,1-3.208-.827,5.882,5.882,0,0,1-2.205-2.3,7.242,7.242,0,0,1-.8-3.491,7.337,7.337,0,0,1,.79-3.476,5.74,5.74,0,0,1,2.2-2.317,6.367,6.367,0,0,1,3.275-.827,5.913,5.913,0,0,1,3.17.827,5.615,5.615,0,0,1,2.049,2.179,6.134,6.134,0,0,1,.711,2.9v1.2H515.9a4.94,4.94,0,0,0,.678,2.406,3.972,3.972,0,0,0,3.424,1.922,3.845,3.845,0,0,0,2.217-.611,3.5,3.5,0,0,0,1.3-1.654h2.112a5.539,5.539,0,0,1-5.625,4.072Zm0-11.433a4.277,4.277,0,0,0-2.712.931,3.726,3.726,0,0,0-1.363,2.712h7.946a3.621,3.621,0,0,0-1.173-2.675A3.93,3.93,0,0,0,519.98,890.664Z" transform="translate(-364.907 -602.313)"/><path class="a" d="M554.695,902.092a6.036,6.036,0,0,1-3.77-1.144,4.47,4.47,0,0,1-1.755-3.107h2.187a3.022,3.022,0,0,0,1.058,1.717,3.442,3.442,0,0,0,2.306.726,2.912,2.912,0,0,0,1.986-.574,1.766,1.766,0,0,0,.637-1.36,1.517,1.517,0,0,0-.827-1.531,11.258,11.258,0,0,0-2.332-.685,13.518,13.518,0,0,1-2.038-.585,4.636,4.636,0,0,1-1.706-1.084,2.515,2.515,0,0,1-.686-1.844,3.4,3.4,0,0,1,1.233-2.712,4.987,4.987,0,0,1,3.353-1.058,5.189,5.189,0,0,1,3.3,1.006,4.008,4.008,0,0,1,1.49,2.865h-2.112a2.213,2.213,0,0,0-.827-1.516,2.98,2.98,0,0,0-1.863-.548,2.85,2.85,0,0,0-1.769.484,1.542,1.542,0,0,0-.622,1.274,1.322,1.322,0,0,0,.8,1.2,8.435,8.435,0,0,0,2.179.745,19.647,19.647,0,0,1,2.235.626,4.175,4.175,0,0,1,1.729,1.1,2.98,2.98,0,0,1,.674,2.1,3.439,3.439,0,0,1-1.285,2.813A5.454,5.454,0,0,1,554.695,902.092Z" transform="translate(-387.122 -602.308)"/><path class="b" d="M145.236,506.388c-3.7-1.818-8.468-2.738-14.157-2.738H114.2v44.06h16.861c5.707,0,10.476-.92,14.157-2.738a18.549,18.549,0,0,0,8.323-7.7,26.314,26.314,0,0,0-.015-23.179A18.4,18.4,0,0,0,145.236,506.388Zm-21.578,4.567h6.985c4,0,7.19.592,9.489,1.766a10.464,10.464,0,0,1,4.936,5.033,19.208,19.208,0,0,1,1.49,7.924,19.464,19.464,0,0,1-1.49,7.954,10.335,10.335,0,0,1-4.932,4.97,21.594,21.594,0,0,1-9.492,1.736h-6.985Z" transform="translate(-114.196 -360.415)"/><path class="b" d="M258.254,528.155a18.929,18.929,0,0,0-18.176,0,17.41,17.41,0,0,0-6.452,6.452,20.308,20.308,0,0,0-.034,19.074,17.137,17.137,0,0,0,6.415,6.453,19,19,0,0,0,18.21,0,17.087,17.087,0,0,0,6.456-6.452,20.436,20.436,0,0,0,0-19.074A17.2,17.2,0,0,0,258.254,528.155Zm-9.124,26.026a7.842,7.842,0,0,1-5.786-2.511c-1.624-1.669-2.448-4.2-2.448-7.525s.823-5.856,2.448-7.522a7.958,7.958,0,0,1,11.6,0c1.647,1.669,2.481,4.2,2.481,7.522s-.835,5.853-2.481,7.522A7.939,7.939,0,0,1,249.131,554.181Z" transform="translate(-187.628 -374.339)"/><path class="b" d="M348.464,528.06l-8.524,25.363-8.52-25.363H321.5l12.83,34.967h11.154l12.9-34.967Z" transform="translate(-244.269 -375.737)"/><path class="b" d="M441.782,528.082a18.077,18.077,0,0,0-9.086-2.258,18.691,18.691,0,0,0-9.541,2.362,16.715,16.715,0,0,0-6.333,6.594,20.013,20.013,0,0,0-2.287,9.638,18.836,18.836,0,0,0,2.325,9.433,16.414,16.414,0,0,0,6.423,6.333,19.122,19.122,0,0,0,9.358,2.235,17.955,17.955,0,0,0,7.563-1.513,16.235,16.235,0,0,0,5.644-4.273,16.7,16.7,0,0,0,3.282-6.031l.112-.372h-9.574l-.078.171a7.283,7.283,0,0,1-2.634,3.033,7.823,7.823,0,0,1-4.4,1.14,8.34,8.34,0,0,1-8.617-7.991h26.078l.022-.272c.045-.6.078-1.185.1-1.744s.034-1.092.034-1.606a17.446,17.446,0,0,0-2.235-8.706A16.3,16.3,0,0,0,441.782,528.082ZM427.115,535.4a9.209,9.209,0,0,1,5.588-1.777,8.039,8.039,0,0,1,5.473,1.952,7.13,7.13,0,0,1,2.369,4.891H424.112A8.109,8.109,0,0,1,427.115,535.4Z" transform="translate(-302.642 -374.333)"/><rect class="b" width="9.459" height="44.057" transform="translate(150.067 143.239)"/><path class="b" d="M148.02,639.965a12.822,12.822,0,0,0-5.808-4.9,23.776,23.776,0,0,0-9.768-1.77H114.19v44.057h9.459V660.5h8.788a23.025,23.025,0,0,0,9.913-1.863,13.051,13.051,0,0,0,5.733-4.958,13.493,13.493,0,0,0-.071-13.713Zm-24.364.328h8.233c3,0,5.182.592,6.482,1.758a6.247,6.247,0,0,1,1.96,4.88,6.117,6.117,0,0,1-1.96,4.821c-1.3,1.166-3.479,1.758-6.482,1.758h-8.233Z" transform="translate(-114.19 -441.849)"/><path class="b" d="M234.254,657.795a18.929,18.929,0,0,0-18.176,0,17.428,17.428,0,0,0-6.452,6.441,20.316,20.316,0,0,0-.034,19.078,17.135,17.135,0,0,0,6.415,6.452,19,19,0,0,0,18.21,0,17.115,17.115,0,0,0,6.456-6.445,20.487,20.487,0,0,0,0-19.085A17.2,17.2,0,0,0,234.254,657.795Zm-9.124,26.022a7.824,7.824,0,0,1-5.786-2.511c-1.624-1.665-2.448-4.195-2.448-7.521s.823-5.856,2.448-7.525a7.965,7.965,0,0,1,11.6,0c1.647,1.669,2.481,4.2,2.481,7.522s-.835,5.853-2.481,7.522a7.95,7.95,0,0,1-5.819,2.515Z" transform="translate(-172.569 -455.765)"/><path class="b" d="M331.764,655.463a13.9,13.9,0,0,0-7.253,1.844,12.442,12.442,0,0,0-4.273,4.18l-.618-5.193h-8.39v34.967h9.463V673.223a10.306,10.306,0,0,1,2.313-7.149,7.664,7.664,0,0,1,5.916-2.537c2.433,0,4.243.745,5.383,2.235s1.74,3.725,1.74,6.616v18.869H345.5v-19.7c0-5.216-1.211-9.258-3.606-11.977S336.082,655.463,331.764,655.463Z" transform="translate(-237.824 -455.757)"/><path class="b" d="M421.282,633h-8.39l-1.039,9.22H405.93v8h5.894V664.9c0,4.556,1.118,7.782,3.353,9.585a13.674,13.674,0,0,0,8.848,2.7h6.333v-8.162h-4.586a5.48,5.48,0,0,1-3.517-.861c-.659-.57-.972-1.643-.972-3.211V650.2h9.287v-8h-9.287Z" transform="translate(-297.245 -441.661)"/><path class="b" d="M501.1,657.749a18.082,18.082,0,0,0-9.086-2.235,18.69,18.69,0,0,0-9.541,2.362,16.69,16.69,0,0,0-6.333,6.594,19.964,19.964,0,0,0-2.287,9.634,18.865,18.865,0,0,0,2.325,9.433,16.392,16.392,0,0,0,6.423,6.333,19.11,19.11,0,0,0,9.358,2.235,17.924,17.924,0,0,0,7.574-1.55,16.261,16.261,0,0,0,5.648-4.273,16.688,16.688,0,0,0,3.278-6.031l.115-.373h-9.6l-.078.168a7.264,7.264,0,0,1-2.634,3.032,7.8,7.8,0,0,1-4.377,1.166,8.367,8.367,0,0,1-8.624-8.006h26.078l.019-.272c.048-.6.082-1.185.1-1.743s.037-1.1.037-1.606a17.4,17.4,0,0,0-2.235-8.706A16.3,16.3,0,0,0,501.1,657.749Zm-14.667,7.32a9.213,9.213,0,0,1,5.588-1.781,8.043,8.043,0,0,1,5.488,1.937,7.141,7.141,0,0,1,2.373,4.892h-16.44a8.114,8.114,0,0,1,3-5.048Z" transform="translate(-339.864 -455.79)"/><path class="b" d="M629.76,659.569c-2.451-2.734-6-4.1-10.547-4.1a14.9,14.9,0,0,0-7.034,1.669,13.785,13.785,0,0,0-4.865,4.21c-2.291-3.919-6.1-5.9-11.322-5.9a13.412,13.412,0,0,0-6.482,1.524,12.639,12.639,0,0,0-4.1,3.491l-.689-4.184H576.36v34.967h9.459V673.212a10.99,10.99,0,0,1,2.116-7.16,6.829,6.829,0,0,1,5.495-2.526,5.922,5.922,0,0,1,5.1,2.235,11.191,11.191,0,0,1,1.676,6.62V691.25h9.459V673.212a10.968,10.968,0,0,1,2.116-7.16,6.888,6.888,0,0,1,5.558-2.526,5.731,5.731,0,0,1,5,2.235c1.084,1.49,1.643,3.725,1.643,6.624v18.869h9.459v-19.7C633.437,666.324,632.2,662.293,629.76,659.569Z" transform="translate(-404.183 -455.747)"/><path class="b" d="M114.2,118.49V235.635h62.691v-2.116a52.34,52.34,0,0,1,104.68,0v2.116h62.691V118.49Zm4.232,4.232h75.79c-38.763,9.954-65.824,37.016-75.778,75.775ZM172.7,231.407H118.447c.373-28.522,8.669-52.659,23.306-70.891l43.4,37.6A56.3,56.3,0,0,0,172.7,231.407Zm15.218-36.487-43.446-37.627c12.946-14.723,30.314-25.2,51.2-30.548l15.606,53.135a56.737,56.737,0,0,0-23.362,15.039Zm55.21-16.243a56.73,56.73,0,0,0-27.8,0L199.81,125.758a143.867,143.867,0,0,1,58.861,0Zm4.053,1.207,15.606-53.135c20.888,5.331,38.256,15.807,51.2,30.548l-43.446,37.627A56.738,56.738,0,0,0,247.182,179.885Zm38.58,51.522a56.254,56.254,0,0,0-12.45-33.286l43.4-37.6c14.637,18.232,22.919,42.369,23.306,70.891ZM340.03,198.5c-9.954-38.759-37.027-65.82-75.771-75.775h75.775Z" transform="translate(-114.196 -118.49)"/></g><rect class="c" width="400" height="405" transform="translate(0 0)"/></svg>