<svg xmlns="http://www.w3.org/2000/svg" width="190" height="100" viewBox="0 0 190 100"><defs><style>.a{fill:none;}</style></defs><g transform="translate(-445 -3269)"><rect class="a" width="190" height="100" transform="translate(445 3269)"/><g transform="translate(71.63 2808.837)"><g transform="translate(391.37 493.163)"><path d="M408.137,499.822a10.077,10.077,0,0,1,6.337,2.231l8.893-8.89h-32v31.994l8.869-8.869a10.125,10.125,0,0,1,7.9-16.468" transform="translate(-391.37 -493.163)"/><path d="M422.812,516.944a5.142,5.142,0,0,1-.036-7.621,5.746,5.746,0,0,0-.312-8.466,5.145,5.145,0,0,1-.806-5.832v-.011a.428.428,0,0,0-.693-.484h0l-7.04,7.043a10.128,10.128,0,0,1-14.248,14.245l-6.923,6.923-.005.008h.005a.434.434,0,0,0-.1.266.429.429,0,0,0,.428.428.412.412,0,0,0,.259-.094l.005.008a5.108,5.108,0,0,1,5.377.957,5.742,5.742,0,0,0,8.827.361h.013a5.152,5.152,0,0,1,7.163-.144,5.53,5.53,0,0,0,8.043.144l.042-.044a5.531,5.531,0,0,0,0-7.671Z" transform="translate(-389.294 -491.165)"/><g transform="translate(40.862 4.95)"><path d="M406.994,495.159h14.329l-.031,3.471H410.969v5.605h9.4v3.471h-9.4v8.217h-3.975Z" transform="translate(-406.994 -494.889)"/><path d="M428.116,499.328a7.059,7.059,0,0,0-6.569.207,6.672,6.672,0,0,0-2.522,2.537,7.287,7.287,0,0,0,0,7.09,6.763,6.763,0,0,0,2.522,2.55,6.852,6.852,0,0,0,3.528.934,7.412,7.412,0,0,0,2.982-.652,8.53,8.53,0,0,0,2.656-1.81l2.344,2.61a12.27,12.27,0,0,1-3.795,2.626,10.7,10.7,0,0,1-4.391.965,10.86,10.86,0,0,1-5.489-1.425,10.462,10.462,0,0,1-3.918-3.871,10.571,10.571,0,0,1-1.423-5.414,10.312,10.312,0,0,1,1.455-5.4,10.422,10.422,0,0,1,3.959-3.827,11.5,11.5,0,0,1,9.923-.5,10.76,10.76,0,0,1,3.649,2.461l-2.314,2.908a7.784,7.784,0,0,0-2.6-1.985Z" transform="translate(-395.61 -495.053)"/><path d="M422.88,495.159h14.327l-.031,3.471H426.853v5.605h9.405v3.471h-9.405v8.217H422.88Z" transform="translate(-381.333 -494.889)"/><path d="M430.009,495.159h14.329l-.031,3.471H433.985v5.605h9.405v3.471h-9.405v8.217H430.01Z" transform="translate(-369.817 -494.889)"/><path d="M457.986,495.159h3.858v20.763h-3.769l-10.677-14.3v14.3H443.51V495.159h3.769l10.708,14.327Z" transform="translate(-348.008 -494.889)"/><path d="M449.116,498.629v10.51a5.705,5.705,0,0,1-.763,2.955,5.285,5.285,0,0,1-2.137,2,6.773,6.773,0,0,1-3.144.708,8.875,8.875,0,0,1-3.232-.614,6.907,6.907,0,0,1-2.537-1.594l1.222-1.922a5.822,5.822,0,0,0,1.941,1.24,5.971,5.971,0,0,0,2.27.479,4.126,4.126,0,0,0,1.9-.419,3.227,3.227,0,0,0,1.318-1.174,3.154,3.154,0,0,0,.471-1.708v-1.718a4.666,4.666,0,0,1-1.734,1.6,5.147,5.147,0,0,1-2.361.586,5.388,5.388,0,0,1-2.689-.667,4.63,4.63,0,0,1-1.834-1.859,5.708,5.708,0,0,1-.649-2.769v-5.636h2.691V504a2.979,2.979,0,0,0,.871,2.218,3.136,3.136,0,0,0,2.27.845,3.252,3.252,0,0,0,2.352-.952,3.783,3.783,0,0,0,1.085-2.456v-5.031Z" transform="translate(-358.264 -489.283)"/><path d="M422.88,495.159h3.973v17.293h10.323l.031,3.471H422.88Z" transform="translate(-381.333 -494.889)"/></g></g></g></g></svg>