<svg xmlns="http://www.w3.org/2000/svg" width="22.999" height="23" viewBox="0 0 22.999 23"><defs><style>.a{fill:#c9a967;}</style></defs><path class="a" d="M19.6,19.6H16.188V14.259c0-1.273-.023-2.911-1.772-2.911-1.775,0-2.047,1.387-2.047,2.818V19.6H8.961V8.621h3.271v1.5h.046a3.585,3.585,0,0,1,3.228-1.773c3.454,0,4.091,2.272,4.091,5.228ZM5.116,7.121a1.978,1.978,0,1,1,1.4-.58,1.978,1.978,0,0,1-1.4.58M6.82,19.6H3.409V8.621H6.82ZM21.295,0H1.7A1.678,1.678,0,0,0,0,1.659v19.68A1.68,1.68,0,0,0,1.7,23h19.6a1.683,1.683,0,0,0,1.7-1.66V1.657A1.682,1.682,0,0,0,21.295,0" transform="translate(0.001 0.001)"/></svg>